<svg width="888" height="427" viewBox="0 0 888 427" fill="none" xmlns="http://www.w3.org/2000/svg">
<mask id="path-1-inside-1" fill="white">
<path fill-rule="evenodd" clip-rule="evenodd" d="M142.088 14.8709C143.982 12.429 146.899 11 149.989 11H221.335C226.725 11 231.145 15.2726 231.329 20.6599L237.171 192.34C237.355 197.727 241.775 202 247.165 202H292.5C298.023 202 302.5 206.477 302.5 212V275.5C302.5 281.023 298.023 285.5 292.5 285.5H241.09C235.567 285.5 231.09 289.977 231.09 295.5V405.5C231.09 411.023 226.613 415.5 221.09 415.5H155.5C149.977 415.5 145.5 411.023 145.5 405.5V292.5C145.5 286.977 141.023 282.5 135.5 282.5H24C18.4772 282.5 14 278.023 14 272.5V183.424C14 181.204 14.7382 179.048 16.0985 177.295L142.088 14.8709ZM170.012 137.259L137.5 173.991L103.803 212.959C98.2017 219.437 102.804 229.5 111.368 229.5H177.5C183.023 229.5 187.5 225.023 187.5 219.5V143.886C187.5 134.681 176.113 130.365 170.012 137.259Z"/>
</mask>
<path fill-rule="evenodd" clip-rule="evenodd" d="M142.088 14.8709C143.982 12.429 146.899 11 149.989 11H221.335C226.725 11 231.145 15.2726 231.329 20.6599L237.171 192.34C237.355 197.727 241.775 202 247.165 202H292.5C298.023 202 302.5 206.477 302.5 212V275.5C302.5 281.023 298.023 285.5 292.5 285.5H241.09C235.567 285.5 231.09 289.977 231.09 295.5V405.5C231.09 411.023 226.613 415.5 221.09 415.5H155.5C149.977 415.5 145.5 411.023 145.5 405.5V292.5C145.5 286.977 141.023 282.5 135.5 282.5H24C18.4772 282.5 14 278.023 14 272.5V183.424C14 181.204 14.7382 179.048 16.0985 177.295L142.088 14.8709ZM170.012 137.259L137.5 173.991L103.803 212.959C98.2017 219.437 102.804 229.5 111.368 229.5H177.5C183.023 229.5 187.5 225.023 187.5 219.5V143.886C187.5 134.681 176.113 130.365 170.012 137.259Z" fill="#4F4F4E"/>
<path d="M142.088 14.8709L144.458 16.7096V16.7096L142.088 14.8709ZM231.329 20.6599L228.33 20.7619V20.7619L231.329 20.6599ZM237.171 192.34L240.17 192.238L237.171 192.34ZM16.0985 177.295L18.4689 179.133H18.4689L16.0985 177.295ZM137.5 173.991L135.254 172.003L135.242 172.016L135.231 172.029L137.5 173.991ZM170.012 137.259L167.765 135.27L170.012 137.259ZM103.803 212.959L106.073 214.921L103.803 212.959ZM149.989 8C145.971 8 142.18 9.85764 139.717 13.0322L144.458 16.7096C145.784 15.0003 147.826 14 149.989 14V8ZM221.335 8H149.989V14H221.335V8ZM234.327 20.5579C234.089 13.5543 228.342 8 221.335 8V14C225.108 14 228.202 16.9908 228.33 20.7619L234.327 20.5579ZM240.17 192.238L234.327 20.5579L228.33 20.7619L234.173 192.442L240.17 192.238ZM247.165 199C243.392 199 240.298 196.009 240.17 192.238L234.173 192.442C234.411 199.446 240.158 205 247.165 205V199ZM292.5 199H247.165V205H292.5V199ZM305.5 212C305.5 204.82 299.68 199 292.5 199V205C296.366 205 299.5 208.134 299.5 212H305.5ZM305.5 275.5V212H299.5V275.5H305.5ZM292.5 288.5C299.68 288.5 305.5 282.68 305.5 275.5H299.5C299.5 279.366 296.366 282.5 292.5 282.5V288.5ZM241.09 288.5H292.5V282.5H241.09V288.5ZM234.09 295.5C234.09 291.634 237.224 288.5 241.09 288.5V282.5C233.91 282.5 228.09 288.32 228.09 295.5H234.09ZM234.09 405.5V295.5H228.09V405.5H234.09ZM221.09 418.5C228.27 418.5 234.09 412.68 234.09 405.5H228.09C228.09 409.366 224.956 412.5 221.09 412.5V418.5ZM155.5 418.5H221.09V412.5H155.5V418.5ZM142.5 405.5C142.5 412.68 148.32 418.5 155.5 418.5V412.5C151.634 412.5 148.5 409.366 148.5 405.5H142.5ZM142.5 292.5V405.5H148.5V292.5H142.5ZM135.5 285.5C139.366 285.5 142.5 288.634 142.5 292.5H148.5C148.5 285.32 142.68 279.5 135.5 279.5V285.5ZM24 285.5H135.5V279.5H24V285.5ZM11 272.5C11 279.68 16.8203 285.5 24 285.5V279.5C20.134 279.5 17 276.366 17 272.5H11ZM11 183.424V272.5H17V183.424H11ZM13.728 175.456C11.9597 177.736 11 180.539 11 183.424H17C17 181.87 17.5168 180.361 18.4689 179.133L13.728 175.456ZM139.717 13.0322L13.728 175.456L18.4689 179.133L144.458 16.7096L139.717 13.0322ZM139.746 175.98L172.258 139.247L167.765 135.27L135.254 172.003L139.746 175.98ZM106.073 214.921L139.769 175.954L135.231 172.029L101.534 210.997L106.073 214.921ZM111.368 226.5C105.373 226.5 102.151 219.456 106.073 214.921L101.534 210.997C94.252 219.418 100.234 232.5 111.368 232.5V226.5ZM177.5 226.5H111.368V232.5H177.5V226.5ZM184.5 219.5C184.5 223.366 181.366 226.5 177.5 226.5V232.5C184.68 232.5 190.5 226.68 190.5 219.5H184.5ZM184.5 143.886V219.5H190.5V143.886H184.5ZM172.258 139.247C176.529 134.422 184.5 137.442 184.5 143.886H190.5C190.5 131.919 175.697 126.309 167.765 135.27L172.258 139.247Z" fill="#4F4F4E" mask="url(#path-1-inside-1)"/>
<mask id="path-3-inside-2" fill="white">
<path fill-rule="evenodd" clip-rule="evenodd" d="M128.088 3.87092C129.982 1.42895 132.899 0 135.989 0H207.335C212.725 0 217.145 4.27255 217.329 9.6599L223.171 181.34C223.355 186.727 227.775 191 233.165 191H278.5C284.023 191 288.5 195.477 288.5 201V264.5C288.5 270.023 284.023 274.5 278.5 274.5H227.09C221.567 274.5 217.09 278.977 217.09 284.5V394.5C217.09 400.023 212.613 404.5 207.09 404.5H141.5C135.977 404.5 131.5 400.023 131.5 394.5V281.5C131.5 275.977 127.023 271.5 121.5 271.5H10C4.47715 271.5 0 267.023 0 261.5V172.424C0 170.204 0.738241 168.048 2.09845 166.295L128.088 3.87092ZM156.012 126.259L123.5 162.991L89.8034 201.959C84.2017 208.437 88.8035 218.5 97.3676 218.5H163.5C169.023 218.5 173.5 214.023 173.5 208.5V132.886C173.5 123.681 162.113 119.365 156.012 126.259Z"/>
</mask>
<path fill-rule="evenodd" clip-rule="evenodd" d="M128.088 3.87092C129.982 1.42895 132.899 0 135.989 0H207.335C212.725 0 217.145 4.27255 217.329 9.6599L223.171 181.34C223.355 186.727 227.775 191 233.165 191H278.5C284.023 191 288.5 195.477 288.5 201V264.5C288.5 270.023 284.023 274.5 278.5 274.5H227.09C221.567 274.5 217.09 278.977 217.09 284.5V394.5C217.09 400.023 212.613 404.5 207.09 404.5H141.5C135.977 404.5 131.5 400.023 131.5 394.5V281.5C131.5 275.977 127.023 271.5 121.5 271.5H10C4.47715 271.5 0 267.023 0 261.5V172.424C0 170.204 0.738241 168.048 2.09845 166.295L128.088 3.87092ZM156.012 126.259L123.5 162.991L89.8034 201.959C84.2017 208.437 88.8035 218.5 97.3676 218.5H163.5C169.023 218.5 173.5 214.023 173.5 208.5V132.886C173.5 123.681 162.113 119.365 156.012 126.259Z" fill="#F4E6EE"/>
<path d="M128.088 3.87092L130.458 5.70964V5.70964L128.088 3.87092ZM217.329 9.6599L214.33 9.76193V9.76193L217.329 9.6599ZM223.171 181.34L226.17 181.238L223.171 181.34ZM2.09845 166.295L4.46892 168.133H4.46892L2.09845 166.295ZM123.5 162.991L121.254 161.003L121.242 161.016L121.231 161.029L123.5 162.991ZM156.012 126.259L153.765 124.27L156.012 126.259ZM89.8034 201.959L92.0726 203.921L89.8034 201.959ZM135.989 -3C131.971 -3 128.18 -1.14236 125.717 2.0322L130.458 5.70964C131.784 4.00027 133.826 3 135.989 3V-3ZM207.335 -3H135.989V3H207.335V-3ZM220.327 9.55786C220.089 2.55432 214.342 -3 207.335 -3V3C211.108 3 214.202 5.99079 214.33 9.76193L220.327 9.55786ZM226.17 181.238L220.327 9.55786L214.33 9.76193L220.173 181.442L226.17 181.238ZM233.165 188C229.392 188 226.298 185.009 226.17 181.238L220.173 181.442C220.411 188.446 226.158 194 233.165 194V188ZM278.5 188H233.165V194H278.5V188ZM291.5 201C291.5 193.82 285.68 188 278.5 188V194C282.366 194 285.5 197.134 285.5 201H291.5ZM291.5 264.5V201H285.5V264.5H291.5ZM278.5 277.5C285.68 277.5 291.5 271.68 291.5 264.5H285.5C285.5 268.366 282.366 271.5 278.5 271.5V277.5ZM227.09 277.5H278.5V271.5H227.09V277.5ZM220.09 284.5C220.09 280.634 223.224 277.5 227.09 277.5V271.5C219.91 271.5 214.09 277.32 214.09 284.5H220.09ZM220.09 394.5V284.5H214.09V394.5H220.09ZM207.09 407.5C214.27 407.5 220.09 401.68 220.09 394.5H214.09C214.09 398.366 210.956 401.5 207.09 401.5V407.5ZM141.5 407.5H207.09V401.5H141.5V407.5ZM128.5 394.5C128.5 401.68 134.32 407.5 141.5 407.5V401.5C137.634 401.5 134.5 398.366 134.5 394.5H128.5ZM128.5 281.5V394.5H134.5V281.5H128.5ZM121.5 274.5C125.366 274.5 128.5 277.634 128.5 281.5H134.5C134.5 274.32 128.68 268.5 121.5 268.5V274.5ZM10 274.5H121.5V268.5H10V274.5ZM-3 261.5C-3 268.68 2.8203 274.5 10 274.5V268.5C6.134 268.5 3 265.366 3 261.5H-3ZM-3 172.424V261.5H3V172.424H-3ZM-0.272007 164.456C-2.04029 166.736 -3 169.539 -3 172.424H3C3 170.87 3.51677 169.361 4.46892 168.133L-0.272007 164.456ZM125.717 2.0322L-0.272008 164.456L4.46892 168.133L130.458 5.70964L125.717 2.0322ZM125.746 164.98L158.258 128.247L153.765 124.27L121.254 161.003L125.746 164.98ZM92.0726 203.921L125.769 164.954L121.231 161.029L87.5342 199.997L92.0726 203.921ZM97.3676 215.5C91.3727 215.5 88.1515 208.456 92.0726 203.921L87.5342 199.997C80.252 208.418 86.2343 221.5 97.3676 221.5V215.5ZM163.5 215.5H97.3676V221.5H163.5V215.5ZM170.5 208.5C170.5 212.366 167.366 215.5 163.5 215.5V221.5C170.68 221.5 176.5 215.68 176.5 208.5H170.5ZM170.5 132.886V208.5H176.5V132.886H170.5ZM158.258 128.247C162.529 123.422 170.5 126.442 170.5 132.886H176.5C176.5 120.919 161.697 115.309 153.765 124.27L158.258 128.247Z" fill="#4F4F4E" mask="url(#path-3-inside-2)"/>
<mask id="path-5-inside-3" fill="white">
<path fill-rule="evenodd" clip-rule="evenodd" d="M727.088 25.8709C728.982 23.429 731.899 22 734.989 22H806.335C811.725 22 816.145 26.2726 816.329 31.6599L822.171 203.34C822.355 208.727 826.775 213 832.165 213H877.5C883.023 213 887.5 217.477 887.5 223V286.5C887.5 292.023 883.023 296.5 877.5 296.5H826.09C820.567 296.5 816.09 300.977 816.09 306.5V416.5C816.09 422.023 811.613 426.5 806.09 426.5H740.5C734.977 426.5 730.5 422.023 730.5 416.5V303.5C730.5 297.977 726.023 293.5 720.5 293.5H609C603.477 293.5 599 289.023 599 283.5V194.424C599 192.204 599.738 190.048 601.098 188.295L727.088 25.8709ZM755.012 148.259L722.5 184.991L688.803 223.959C683.202 230.437 687.804 240.5 696.368 240.5H762.5C768.023 240.5 772.5 236.023 772.5 230.5V154.886C772.5 145.681 761.113 141.365 755.012 148.259Z"/>
</mask>
<path fill-rule="evenodd" clip-rule="evenodd" d="M727.088 25.8709C728.982 23.429 731.899 22 734.989 22H806.335C811.725 22 816.145 26.2726 816.329 31.6599L822.171 203.34C822.355 208.727 826.775 213 832.165 213H877.5C883.023 213 887.5 217.477 887.5 223V286.5C887.5 292.023 883.023 296.5 877.5 296.5H826.09C820.567 296.5 816.09 300.977 816.09 306.5V416.5C816.09 422.023 811.613 426.5 806.09 426.5H740.5C734.977 426.5 730.5 422.023 730.5 416.5V303.5C730.5 297.977 726.023 293.5 720.5 293.5H609C603.477 293.5 599 289.023 599 283.5V194.424C599 192.204 599.738 190.048 601.098 188.295L727.088 25.8709ZM755.012 148.259L722.5 184.991L688.803 223.959C683.202 230.437 687.804 240.5 696.368 240.5H762.5C768.023 240.5 772.5 236.023 772.5 230.5V154.886C772.5 145.681 761.113 141.365 755.012 148.259Z" fill="#4F4F4E"/>
<path d="M727.088 25.8709L729.458 27.7096V27.7096L727.088 25.8709ZM816.329 31.6599L813.33 31.7619V31.7619L816.329 31.6599ZM822.171 203.34L825.17 203.238L822.171 203.34ZM601.098 188.295L603.469 190.133H603.469L601.098 188.295ZM722.5 184.991L720.254 183.003L720.242 183.016L720.231 183.029L722.5 184.991ZM755.012 148.259L752.765 146.27L755.012 148.259ZM688.803 223.959L691.073 225.921L688.803 223.959ZM734.989 19C730.971 19 727.18 20.8576 724.717 24.0322L729.458 27.7096C730.784 26.0003 732.826 25 734.989 25V19ZM806.335 19H734.989V25H806.335V19ZM819.327 31.5579C819.089 24.5543 813.342 19 806.335 19V25C810.108 25 813.202 27.9908 813.33 31.7619L819.327 31.5579ZM825.17 203.238L819.327 31.5579L813.33 31.7619L819.173 203.442L825.17 203.238ZM832.165 210C828.392 210 825.298 207.009 825.17 203.238L819.173 203.442C819.411 210.446 825.158 216 832.165 216V210ZM877.5 210H832.165V216H877.5V210ZM890.5 223C890.5 215.82 884.68 210 877.5 210V216C881.366 216 884.5 219.134 884.5 223H890.5ZM890.5 286.5V223H884.5V286.5H890.5ZM877.5 299.5C884.68 299.5 890.5 293.68 890.5 286.5H884.5C884.5 290.366 881.366 293.5 877.5 293.5V299.5ZM826.09 299.5H877.5V293.5H826.09V299.5ZM819.09 306.5C819.09 302.634 822.224 299.5 826.09 299.5V293.5C818.91 293.5 813.09 299.32 813.09 306.5H819.09ZM819.09 416.5V306.5H813.09V416.5H819.09ZM806.09 429.5C813.27 429.5 819.09 423.68 819.09 416.5H813.09C813.09 420.366 809.956 423.5 806.09 423.5V429.5ZM740.5 429.5H806.09V423.5H740.5V429.5ZM727.5 416.5C727.5 423.68 733.32 429.5 740.5 429.5V423.5C736.634 423.5 733.5 420.366 733.5 416.5H727.5ZM727.5 303.5V416.5H733.5V303.5H727.5ZM720.5 296.5C724.366 296.5 727.5 299.634 727.5 303.5H733.5C733.5 296.32 727.68 290.5 720.5 290.5V296.5ZM609 296.5H720.5V290.5H609V296.5ZM596 283.5C596 290.68 601.82 296.5 609 296.5V290.5C605.134 290.5 602 287.366 602 283.5H596ZM596 194.424V283.5H602V194.424H596ZM598.728 186.456C596.96 188.736 596 191.539 596 194.424H602C602 192.87 602.517 191.361 603.469 190.133L598.728 186.456ZM724.717 24.0322L598.728 186.456L603.469 190.133L729.458 27.7096L724.717 24.0322ZM724.746 186.98L757.258 150.247L752.765 146.27L720.254 183.003L724.746 186.98ZM691.073 225.921L724.769 186.954L720.231 183.029L686.534 221.997L691.073 225.921ZM696.368 237.5C690.373 237.5 687.151 230.456 691.073 225.921L686.534 221.997C679.252 230.418 685.234 243.5 696.368 243.5V237.5ZM762.5 237.5H696.368V243.5H762.5V237.5ZM769.5 230.5C769.5 234.366 766.366 237.5 762.5 237.5V243.5C769.68 243.5 775.5 237.68 775.5 230.5H769.5ZM769.5 154.886V230.5H775.5V154.886H769.5ZM757.258 150.247C761.529 145.422 769.5 148.442 769.5 154.886H775.5C775.5 142.919 760.697 137.309 752.765 146.27L757.258 150.247Z" fill="#4F4F4E" mask="url(#path-5-inside-3)"/>
<mask id="path-7-inside-4" fill="white">
<path fill-rule="evenodd" clip-rule="evenodd" d="M713.088 14.8709C714.982 12.429 717.899 11 720.989 11H792.335C797.725 11 802.145 15.2726 802.329 20.6599L808.171 192.34C808.355 197.727 812.775 202 818.165 202H863.5C869.023 202 873.5 206.477 873.5 212V275.5C873.5 281.023 869.023 285.5 863.5 285.5H812.09C806.567 285.5 802.09 289.977 802.09 295.5V405.5C802.09 411.023 797.613 415.5 792.09 415.5H726.5C720.977 415.5 716.5 411.023 716.5 405.5V292.5C716.5 286.977 712.023 282.5 706.5 282.5H595C589.477 282.5 585 278.023 585 272.5V183.424C585 181.204 585.738 179.048 587.098 177.295L713.088 14.8709ZM741.012 137.259L708.5 173.991L674.803 212.959C669.202 219.437 673.804 229.5 682.368 229.5H748.5C754.023 229.5 758.5 225.023 758.5 219.5V143.886C758.5 134.681 747.113 130.365 741.012 137.259Z"/>
</mask>
<path fill-rule="evenodd" clip-rule="evenodd" d="M713.088 14.8709C714.982 12.429 717.899 11 720.989 11H792.335C797.725 11 802.145 15.2726 802.329 20.6599L808.171 192.34C808.355 197.727 812.775 202 818.165 202H863.5C869.023 202 873.5 206.477 873.5 212V275.5C873.5 281.023 869.023 285.5 863.5 285.5H812.09C806.567 285.5 802.09 289.977 802.09 295.5V405.5C802.09 411.023 797.613 415.5 792.09 415.5H726.5C720.977 415.5 716.5 411.023 716.5 405.5V292.5C716.5 286.977 712.023 282.5 706.5 282.5H595C589.477 282.5 585 278.023 585 272.5V183.424C585 181.204 585.738 179.048 587.098 177.295L713.088 14.8709ZM741.012 137.259L708.5 173.991L674.803 212.959C669.202 219.437 673.804 229.5 682.368 229.5H748.5C754.023 229.5 758.5 225.023 758.5 219.5V143.886C758.5 134.681 747.113 130.365 741.012 137.259Z" fill="#F4E6EE"/>
<path d="M713.088 14.8709L715.458 16.7096V16.7096L713.088 14.8709ZM802.329 20.6599L799.33 20.7619V20.7619L802.329 20.6599ZM808.171 192.34L811.17 192.238L808.171 192.34ZM587.098 177.295L589.469 179.133H589.469L587.098 177.295ZM708.5 173.991L706.254 172.003L706.242 172.016L706.231 172.029L708.5 173.991ZM741.012 137.259L738.765 135.27L741.012 137.259ZM674.803 212.959L677.073 214.921L674.803 212.959ZM720.989 8C716.971 8 713.18 9.85764 710.717 13.0322L715.458 16.7096C716.784 15.0003 718.826 14 720.989 14V8ZM792.335 8H720.989V14H792.335V8ZM805.327 20.5579C805.089 13.5543 799.342 8 792.335 8V14C796.108 14 799.202 16.9908 799.33 20.7619L805.327 20.5579ZM811.17 192.238L805.327 20.5579L799.33 20.7619L805.173 192.442L811.17 192.238ZM818.165 199C814.392 199 811.298 196.009 811.17 192.238L805.173 192.442C805.411 199.446 811.158 205 818.165 205V199ZM863.5 199H818.165V205H863.5V199ZM876.5 212C876.5 204.82 870.68 199 863.5 199V205C867.366 205 870.5 208.134 870.5 212H876.5ZM876.5 275.5V212H870.5V275.5H876.5ZM863.5 288.5C870.68 288.5 876.5 282.68 876.5 275.5H870.5C870.5 279.366 867.366 282.5 863.5 282.5V288.5ZM812.09 288.5H863.5V282.5H812.09V288.5ZM805.09 295.5C805.09 291.634 808.224 288.5 812.09 288.5V282.5C804.91 282.5 799.09 288.32 799.09 295.5H805.09ZM805.09 405.5V295.5H799.09V405.5H805.09ZM792.09 418.5C799.27 418.5 805.09 412.68 805.09 405.5H799.09C799.09 409.366 795.956 412.5 792.09 412.5V418.5ZM726.5 418.5H792.09V412.5H726.5V418.5ZM713.5 405.5C713.5 412.68 719.32 418.5 726.5 418.5V412.5C722.634 412.5 719.5 409.366 719.5 405.5H713.5ZM713.5 292.5V405.5H719.5V292.5H713.5ZM706.5 285.5C710.366 285.5 713.5 288.634 713.5 292.5H719.5C719.5 285.32 713.68 279.5 706.5 279.5V285.5ZM595 285.5H706.5V279.5H595V285.5ZM582 272.5C582 279.68 587.82 285.5 595 285.5V279.5C591.134 279.5 588 276.366 588 272.5H582ZM582 183.424V272.5H588V183.424H582ZM584.728 175.456C582.96 177.736 582 180.539 582 183.424H588C588 181.87 588.517 180.361 589.469 179.133L584.728 175.456ZM710.717 13.0322L584.728 175.456L589.469 179.133L715.458 16.7096L710.717 13.0322ZM710.746 175.98L743.258 139.247L738.765 135.27L706.254 172.003L710.746 175.98ZM677.073 214.921L710.769 175.954L706.231 172.029L672.534 210.997L677.073 214.921ZM682.368 226.5C676.373 226.5 673.151 219.456 677.073 214.921L672.534 210.997C665.252 219.418 671.234 232.5 682.368 232.5V226.5ZM748.5 226.5H682.368V232.5H748.5V226.5ZM755.5 219.5C755.5 223.366 752.366 226.5 748.5 226.5V232.5C755.68 232.5 761.5 226.68 761.5 219.5H755.5ZM755.5 143.886V219.5H761.5V143.886H755.5ZM743.258 139.247C747.529 134.422 755.5 137.442 755.5 143.886H761.5C761.5 131.919 746.697 126.309 738.765 135.27L743.258 139.247Z" fill="#4F4F4E" mask="url(#path-7-inside-4)"/>
<mask id="path-9-inside-5" fill="white">
<path fill-rule="evenodd" clip-rule="evenodd" d="M550 29C550 23.4772 545.523 19 540 19H360C354.477 19 350 23.4771 350 29V414C350 419.523 354.477 424 360 424H540C545.523 424 550 419.523 550 414V29ZM417.894 112C412.371 112 407.894 116.477 407.894 122V322C407.894 327.523 412.372 332 417.894 332H482.105C487.628 332 492.105 327.523 492.105 322V122C492.105 116.477 487.628 112 482.105 112H417.894Z"/>
</mask>
<path fill-rule="evenodd" clip-rule="evenodd" d="M550 29C550 23.4772 545.523 19 540 19H360C354.477 19 350 23.4771 350 29V414C350 419.523 354.477 424 360 424H540C545.523 424 550 419.523 550 414V29ZM417.894 112C412.371 112 407.894 116.477 407.894 122V322C407.894 327.523 412.372 332 417.894 332H482.105C487.628 332 492.105 327.523 492.105 322V122C492.105 116.477 487.628 112 482.105 112H417.894Z" fill="#4F4F4E"/>
<path d="M360 23H540V15H360V23ZM354 414V29H346V414H354ZM540 420H360V428H540V420ZM546 29V414H554V29H546ZM411.894 122C411.894 118.686 414.581 116 417.894 116V108C410.162 108 403.894 114.268 403.894 122H411.894ZM411.894 322V122H403.894V322H411.894ZM417.894 328C414.581 328 411.894 325.314 411.894 322H403.894C403.894 329.732 410.162 336 417.894 336V328ZM482.105 328H417.894V336H482.105V328ZM488.105 322C488.105 325.314 485.419 328 482.105 328V336C489.837 336 496.105 329.732 496.105 322H488.105ZM488.105 122V322H496.105V122H488.105ZM482.105 116C485.419 116 488.105 118.686 488.105 122H496.105C496.105 114.268 489.837 108 482.105 108V116ZM417.894 116H482.105V108H417.894V116ZM540 428C547.732 428 554 421.732 554 414H546C546 417.314 543.314 420 540 420V428ZM346 414C346 421.732 352.268 428 360 428V420C356.686 420 354 417.314 354 414H346ZM540 23C543.314 23 546 25.6863 546 29H554C554 21.268 547.732 15 540 15V23ZM360 15C352.268 15 346 21.268 346 29H354C354 25.6863 356.686 23 360 23V15Z" fill="#4F4F4E" mask="url(#path-9-inside-5)"/>
<mask id="path-11-inside-6" fill="white">
<path fill-rule="evenodd" clip-rule="evenodd" d="M537 15C537 9.47715 532.523 5 527 5H347C341.477 5 337 9.47715 337 15V400C337 405.523 341.477 410 347 410H527C532.523 410 537 405.523 537 400V15ZM404.894 98C399.371 98 394.894 102.477 394.894 108V308C394.894 313.523 399.372 318 404.894 318H469.105C474.628 318 479.105 313.523 479.105 308V108C479.105 102.477 474.628 98 469.105 98H404.894Z"/>
</mask>
<path fill-rule="evenodd" clip-rule="evenodd" d="M537 15C537 9.47715 532.523 5 527 5H347C341.477 5 337 9.47715 337 15V400C337 405.523 341.477 410 347 410H527C532.523 410 537 405.523 537 400V15ZM404.894 98C399.371 98 394.894 102.477 394.894 108V308C394.894 313.523 399.372 318 404.894 318H469.105C474.628 318 479.105 313.523 479.105 308V108C479.105 102.477 474.628 98 469.105 98H404.894Z" fill="#F4E6EE"/>
<path d="M347 9H527V1H347V9ZM341 400V15H333V400H341ZM527 406H347V414H527V406ZM533 15V400H541V15H533ZM398.894 108C398.894 104.686 401.581 102 404.894 102V94C397.162 94 390.894 100.268 390.894 108H398.894ZM398.894 308V108H390.894V308H398.894ZM404.894 314C401.581 314 398.894 311.314 398.894 308H390.894C390.894 315.732 397.162 322 404.894 322V314ZM469.105 314H404.894V322H469.105V314ZM475.105 308C475.105 311.314 472.419 314 469.105 314V322C476.837 322 483.105 315.732 483.105 308H475.105ZM475.105 108V308H483.105V108H475.105ZM469.105 102C472.419 102 475.105 104.686 475.105 108H483.105C483.105 100.268 476.837 94 469.105 94V102ZM404.894 102H469.105V94H404.894V102ZM527 414C534.732 414 541 407.732 541 400H533C533 403.314 530.314 406 527 406V414ZM333 400C333 407.732 339.268 414 347 414V406C343.686 406 341 403.314 341 400H333ZM527 9C530.314 9 533 11.6863 533 15H541C541 7.26801 534.732 1 527 1V9ZM347 1C339.268 1 333 7.268 333 15H341C341 11.6863 343.686 9 347 9V1Z" fill="#4F4F4E" mask="url(#path-11-inside-6)"/>
</svg>
