<svg width="204" height="158" viewBox="0 0 204 158" fill="none" xmlns="http://www.w3.org/2000/svg">
<path d="M163 82C185.644 82 204 63.6437 204 41C204 18.3563 185.644 0 163 0C140.356 0 122 18.3563 122 41C122 63.6437 140.356 82 163 82Z" fill="#F9D0E4"/>
<path opacity="0.2" d="M193.585 13.9245C197.419 22.8435 197.939 32.8277 195.052 42.093C192.165 51.3583 186.06 59.3009 177.827 64.5015C169.593 69.7021 159.769 71.8219 150.109 70.482C140.449 69.1421 131.582 64.4298 125.094 57.1873C127.436 62.6365 130.942 67.5141 135.368 71.4822C139.793 75.4503 145.034 78.4141 150.726 80.1681C156.418 81.9222 162.425 82.4246 168.332 81.6406C174.238 80.8566 179.903 78.8048 184.933 75.6275C189.963 72.4502 194.238 68.2234 197.462 63.2398C200.687 58.2561 202.783 52.635 203.606 46.7657C204.429 40.8964 203.959 34.9193 202.229 29.2486C200.498 23.5779 197.549 18.3491 193.585 13.9245Z" fill="black"/>
<path d="M162.5 41H164L165.321 157.038H160.679L162.5 41Z" fill="#3F3D56"/>
<g clip-path="url(#clip0)">
<path d="M38 139C42.9706 139 47 130.941 47 121C47 111.059 42.9706 103 38 103C33.0294 103 29 111.059 29 121C29 130.941 33.0294 139 38 139Z" fill="#6B3752"/>
<path d="M39.0896 150C34.4116 129.066 39.0425 108.208 39.0898 108L39.9998 108.115C39.9527 108.322 35.3484 129.071 40 149.887L39.0896 150Z" fill="#F9D0E4"/>
<path d="M45.9454 117.43L38.0187 121.67L38.3454 122.281L46.2721 118.041L45.9454 117.43Z" fill="#F9D0E4"/>
<path d="M29.9796 119.554L29.6527 120.165L37.5785 124.407L37.9054 123.797L29.9796 119.554Z" fill="#F9D0E4"/>
<path d="M17 129C26.3888 129 34 113.33 34 94C34 74.67 26.3888 59 17 59C7.61116 59 0 74.67 0 94C0 113.33 7.61116 129 17 129Z" fill="#F9D0E4"/>
<path d="M19.2705 151C11.9489 109.63 19.1967 68.4115 19.2707 68L19.9998 68.1163C19.926 68.5268 12.6995 109.635 20 150.886L19.2705 151Z" fill="#6B3752"/>
<path d="M32.417 86.4618L16.913 94.7547L17.2397 95.3656L32.7438 87.0727L32.417 86.4618Z" fill="#6B3752"/>
<path d="M0.877327 90.6161L0.550415 91.2269L16.0522 99.524L16.3791 98.9132L0.877327 90.6161Z" fill="#6B3752"/>
<path d="M72.8184 142.382C78.0366 142.382 82.2668 133.773 82.2668 123.153C82.2668 112.533 78.0366 103.923 72.8184 103.923C67.6002 103.923 63.37 112.533 63.37 123.153C63.37 133.773 67.6002 142.382 72.8184 142.382Z" fill="#6B3752"/>
<path d="M71.9459 154.628C75.7301 131.981 71.984 109.417 71.9457 109.192L71.2097 109.316C71.2477 109.54 74.9723 131.986 71.2095 154.505L71.9459 154.628Z" fill="#F9D0E4"/>
<path d="M64.5 119.018L64.1478 119.675L72.6918 124.233L73.0439 123.576L64.5 119.018Z" fill="#F9D0E4"/>
<path d="M81.7089 121.301L73.166 125.862L73.5184 126.519L82.0613 121.958L81.7089 121.301Z" fill="#F9D0E4"/>
<path d="M95.5201 131.107C105.726 131.107 114 114.268 114 93.4969C114 72.7255 105.726 55.887 95.5201 55.887C85.3139 55.887 77.0402 72.7255 77.0402 93.4969C77.0402 114.268 85.3139 131.107 95.5201 131.107Z" fill="#F9D0E4"/>
<path d="M93.4617 155C100.853 110.765 93.5362 66.6913 93.4615 66.2513L92.7254 66.3756C92.8 66.8146 100.095 110.77 92.7252 154.878L93.4617 155Z" fill="#6B3752"/>
<path d="M79.0817 85.7233L78.7295 86.38L95.4408 95.2957L95.7929 94.639L79.0817 85.7233Z" fill="#6B3752"/>
<path d="M113.077 90.1896L96.3684 99.1099L96.7208 99.7665L113.43 90.8462L113.077 90.1896Z" fill="#6B3752"/>
<path d="M51.7518 122.327C65.7182 122.327 77.0401 99.2845 77.0401 70.8604C77.0401 42.4364 65.7182 19.3942 51.7518 19.3942C37.7855 19.3942 26.4635 42.4364 26.4635 70.8604C26.4635 99.2845 37.7855 122.327 51.7518 122.327Z" fill="#F9D0E4"/>
<path d="M48.7993 156.619C58.9103 96.1096 48.9014 35.821 48.7991 35.2191L48.063 35.3435C48.1651 35.9442 58.1525 96.1144 48.0629 156.497L48.7993 156.619Z" fill="#6B3752"/>
<path d="M29.1923 61.6391L28.8401 62.2959L51.7081 74.4963L52.0603 73.8395L29.1923 61.6391Z" fill="#6B3752"/>
<path d="M75.8423 66.4555L52.9775 78.6619L53.3299 79.3186L76.1946 67.1122L75.8423 66.4555Z" fill="#6B3752"/>
</g>
<defs>
<clipPath id="clip0">
<rect width="114" height="146" fill="white" transform="translate(0 9)"/>
</clipPath>
</defs>
</svg>
