<svg width="149" height="186" viewBox="0 0 149 186" fill="none" xmlns="http://www.w3.org/2000/svg">
<g clip-path="url(#clip0)">
<path d="M94.548 125.206C109.21 125.206 121.096 113.296 121.096 98.6031C121.096 83.9106 109.21 72 94.548 72C79.8859 72 68 83.9106 68 98.6031C68 113.296 79.8859 125.206 94.548 125.206Z" fill="#F9D0E4"/>
<path d="M87.3753 137.451L93.9058 141.506V114.095L86.5859 109.55C85.9808 109.174 85.5385 108.584 85.3469 107.897C86.0462 107.763 86.7702 107.897 87.3753 108.273L93.9058 112.328V101.699C93.9058 99.643 94.1575 97.5945 94.6551 95.5996C95.1528 97.5945 95.4045 99.643 95.4045 101.699V119.048L105.039 113.066C105.808 112.588 106.698 112.342 107.603 112.357C107.213 113.175 106.597 113.864 105.828 114.342L95.4044 120.815V185.639H93.9058V143.273L86.5859 138.727C85.9808 138.352 85.5385 137.762 85.3469 137.075C86.0462 136.941 86.7702 137.075 87.3753 137.451Z" fill="#4F4F4E"/>
<path d="M65.8691 125.679C80.5311 125.679 92.4171 113.768 92.4171 99.0757C92.4171 84.3832 80.5311 72.4725 65.8691 72.4725C51.207 72.4725 39.321 84.3832 39.321 99.0757C39.321 113.768 51.207 125.679 65.8691 125.679Z" fill="#F9D0E4"/>
<path d="M58.6964 137.923L65.2268 141.979V114.568L57.907 110.022C57.3018 109.647 56.8596 109.057 56.668 108.37C57.3673 108.236 58.0912 108.37 58.6964 108.746L65.2268 112.801V102.172C65.2268 100.115 65.4785 98.067 65.9762 96.0721C66.4739 98.067 66.7255 100.115 66.7255 102.172V119.52L76.3598 113.538C77.129 113.06 78.0191 112.814 78.924 112.829C78.5345 113.648 77.9184 114.337 77.1492 114.815L66.7255 121.287V186.112H65.2268V143.745L57.907 139.2C57.3018 138.824 56.8596 138.234 56.668 137.547C57.3673 137.413 58.0912 137.548 58.6964 137.923Z" fill="#4F4F4E"/>
<path d="M65.8691 125.679C80.5311 125.679 92.4171 113.768 92.4171 99.0757C92.4171 84.3832 80.5311 72.4725 65.8691 72.4725C51.207 72.4725 39.321 84.3832 39.321 99.0757C39.321 113.768 51.207 125.679 65.8691 125.679Z" fill="#F9D0E4"/>
<path d="M58.6964 137.923L65.2268 141.979V114.568L57.907 110.022C57.3018 109.647 56.8596 109.057 56.668 108.37C57.3673 108.236 58.0912 108.37 58.6964 108.746L65.2268 112.801V102.172C65.2268 100.115 65.4785 98.067 65.9762 96.0721C66.4739 98.067 66.7255 100.115 66.7255 102.172V119.52L76.3598 113.538C77.129 113.06 78.0191 112.814 78.924 112.829C78.5345 113.648 77.9184 114.337 77.1492 114.815L66.7255 121.287V186.112H65.2268V143.745L57.907 139.2C57.3018 138.824 56.8596 138.234 56.668 137.547C57.3673 137.413 58.0912 137.548 58.6964 137.923Z" fill="#4F4F4E"/>
<path d="M26.548 127.938C41.2101 127.938 53.096 116.027 53.096 101.334C53.096 86.6419 41.2101 74.7313 26.548 74.7313C11.8859 74.7313 0 86.6419 0 101.334C0 116.027 11.8859 127.938 26.548 127.938Z" fill="#F9D0E4"/>
<path d="M33.7208 140.182L27.1903 144.237V116.826L34.5102 112.281C35.1153 111.905 35.5575 111.315 35.7492 110.628C35.0499 110.494 34.3259 110.629 33.7208 111.004L27.1903 115.06V104.43C27.1903 102.374 26.9386 100.326 26.441 98.3308C25.9433 100.326 25.6916 102.374 25.6916 104.43V121.779L16.0574 115.797C15.2881 115.319 14.3981 115.073 13.4932 115.088C13.8827 115.906 14.4987 116.596 15.268 117.073L25.6917 123.546V186.255H27.1903V146.004L34.5102 141.459C35.1153 141.083 35.5575 140.493 35.7492 139.806C35.0499 139.672 34.3259 139.806 33.7208 140.182Z" fill="#4F4F4E"/>
<path d="M45.833 91.6078C71.0773 91.6078 91.5419 71.1007 91.5419 45.8039C91.5419 20.5071 71.0773 0 45.833 0C20.5886 0 0.124023 20.5071 0.124023 45.8039C0.124023 71.1007 20.5886 91.6078 45.833 91.6078Z" fill="#F9D0E4"/>
<path d="M58.1825 112.69L46.9388 119.672V72.477L59.5417 64.6512C60.5836 64.0042 61.345 62.9885 61.6749 61.8055L61.675 61.8055H61.6749C60.4709 61.5751 59.2245 61.8062 58.1825 62.4532L46.9388 69.4351V51.1344C46.9388 47.5941 46.5055 44.0671 45.6486 40.6324C44.7917 44.0671 44.3584 47.5941 44.3584 51.1344V81.0045L27.7707 70.7043C26.4462 69.8818 24.9137 69.4582 23.3557 69.4837C24.0263 70.8932 25.0871 72.0798 26.4116 72.9022L44.3584 84.0464V186.355H46.9388V122.714L59.5417 114.888C60.5836 114.241 61.345 113.225 61.6749 112.042L61.675 112.042H61.6749C60.4709 111.812 59.2245 112.043 58.1825 112.69Z" fill="#4F4F4E"/>
</g>
<defs>
<clipPath id="clip0">
<rect width="149" height="186" fill="white"/>
</clipPath>
</defs>
</svg>
