<svg width="417" height="299" viewBox="0 0 417 299" fill="none" xmlns="http://www.w3.org/2000/svg">
<path opacity="0.2" d="M208.5 299C323.651 299 417 287.67 417 273.694C417 259.719 323.651 248.389 208.5 248.389C93.3486 248.389 0 259.719 0 273.694C0 287.67 93.3486 299 208.5 299Z" fill="#F3A9CD"/>
<path d="M356.757 286.098C356.757 286.098 367.632 272.281 366.752 258.573C366.347 252.825 367.819 247.101 370.949 242.261C372.452 239.974 374.163 237.83 376.058 235.855" stroke="#535461" stroke-width="2" stroke-miterlimit="10"/>
<path d="M375.556 227.213C374.789 229.132 376.045 236.082 376.045 236.082C376.045 236.082 381.748 231.904 382.515 229.985C382.882 229.064 382.868 228.035 382.476 227.124C382.083 226.213 381.345 225.495 380.422 225.127C379.5 224.76 378.469 224.773 377.557 225.164C376.644 225.555 375.924 226.292 375.556 227.213Z" fill="#F3A9CD"/>
<path d="M365.557 235.55C365.958 237.577 370.795 242.73 370.795 242.73C370.795 242.73 373.308 236.128 372.907 234.101C372.812 233.619 372.623 233.16 372.35 232.752C372.077 232.343 371.727 231.992 371.318 231.718C370.909 231.445 370.451 231.254 369.968 231.158C369.486 231.061 368.989 231.061 368.507 231.156C368.024 231.251 367.565 231.44 367.155 231.712C366.746 231.985 366.394 232.335 366.12 232.743C365.846 233.151 365.656 233.609 365.559 234.091C365.462 234.572 365.462 235.068 365.557 235.55Z" fill="#F3A9CD"/>
<path d="M358.551 253.813C359.921 255.361 366.702 257.37 366.702 257.37C366.702 257.37 365.534 250.405 364.163 248.857C363.837 248.489 363.442 248.188 363 247.973C362.558 247.757 362.077 247.631 361.586 247.601C361.095 247.571 360.603 247.637 360.138 247.797C359.672 247.957 359.243 248.207 358.875 248.532C358.506 248.858 358.205 249.253 357.989 249.694C357.774 250.136 357.647 250.615 357.617 251.106C357.587 251.596 357.654 252.088 357.814 252.552C357.974 253.017 358.225 253.445 358.551 253.813Z" fill="#F3A9CD"/>
<path d="M356.366 268.823C357.455 270.58 363.798 273.705 363.798 273.705C363.798 273.705 363.825 266.642 362.736 264.885C362.478 264.467 362.139 264.104 361.74 263.817C361.34 263.53 360.888 263.324 360.409 263.212C359.93 263.099 359.434 263.082 358.948 263.161C358.462 263.24 357.997 263.413 357.578 263.672C357.16 263.931 356.797 264.269 356.509 264.668C356.222 265.067 356.016 265.518 355.903 265.997C355.791 266.475 355.774 266.971 355.853 267.456C355.932 267.941 356.107 268.406 356.366 268.823Z" fill="#F3A9CD"/>
<path d="M377.953 246.012C376.04 246.8 369.065 245.627 369.065 245.627C369.065 245.627 373.183 239.884 375.095 239.096C376.014 238.718 377.045 238.719 377.963 239.1C378.88 239.481 379.608 240.21 379.987 241.128C380.366 242.045 380.365 243.074 379.983 243.99C379.602 244.906 378.871 245.634 377.953 246.012Z" fill="#F3A9CD"/>
<path d="M375.174 263.534C373.113 263.714 366.81 260.511 366.81 260.511C366.81 260.511 372.459 256.262 374.521 256.081C375.011 256.038 375.505 256.092 375.975 256.239C376.444 256.386 376.88 256.625 377.257 256.94C377.635 257.256 377.946 257.643 378.173 258.079C378.401 258.515 378.54 258.991 378.583 259.481C378.626 259.971 378.572 260.464 378.424 260.933C378.276 261.401 378.037 261.836 377.72 262.213C377.404 262.589 377.016 262.9 376.579 263.126C376.142 263.353 375.665 263.492 375.174 263.534Z" fill="#F3A9CD"/>
<path d="M370.134 280.195C368.133 280.72 361.377 278.627 361.377 278.627C361.377 278.627 366.227 273.485 368.228 272.959C369.189 272.707 370.211 272.846 371.069 273.346C371.927 273.846 372.551 274.666 372.804 275.626C373.056 276.585 372.917 277.605 372.416 278.462C371.916 279.319 371.095 279.942 370.134 280.195Z" fill="#F3A9CD"/>
<path opacity="0.25" d="M375.556 227.213C374.789 229.132 376.045 236.082 376.045 236.082C376.045 236.082 381.748 231.904 382.515 229.985C382.882 229.064 382.868 228.035 382.476 227.124C382.083 226.213 381.345 225.495 380.422 225.127C379.5 224.76 378.469 224.773 377.557 225.164C376.644 225.555 375.924 226.292 375.556 227.213Z" fill="black"/>
<path opacity="0.25" d="M365.557 235.55C365.958 237.577 370.795 242.73 370.795 242.73C370.795 242.73 373.308 236.128 372.907 234.101C372.812 233.619 372.623 233.16 372.35 232.752C372.077 232.343 371.727 231.992 371.318 231.718C370.909 231.445 370.451 231.254 369.968 231.158C369.486 231.061 368.989 231.061 368.507 231.156C368.024 231.251 367.565 231.44 367.155 231.712C366.746 231.985 366.394 232.335 366.12 232.743C365.846 233.151 365.656 233.609 365.559 234.091C365.462 234.572 365.462 235.068 365.557 235.55Z" fill="black"/>
<path opacity="0.25" d="M358.551 253.813C359.921 255.361 366.702 257.37 366.702 257.37C366.702 257.37 365.534 250.405 364.163 248.857C363.837 248.489 363.442 248.188 363 247.973C362.558 247.757 362.077 247.631 361.586 247.601C361.095 247.571 360.603 247.637 360.138 247.797C359.672 247.957 359.243 248.207 358.875 248.532C358.506 248.858 358.205 249.253 357.989 249.694C357.774 250.136 357.647 250.615 357.617 251.106C357.587 251.596 357.654 252.088 357.814 252.552C357.974 253.017 358.225 253.445 358.551 253.813Z" fill="black"/>
<path opacity="0.25" d="M356.366 268.823C357.455 270.58 363.798 273.705 363.798 273.705C363.798 273.705 363.825 266.642 362.736 264.885C362.478 264.467 362.139 264.104 361.74 263.817C361.34 263.53 360.888 263.324 360.409 263.212C359.93 263.099 359.434 263.082 358.948 263.161C358.462 263.24 357.997 263.413 357.578 263.672C357.16 263.931 356.797 264.269 356.509 264.668C356.222 265.067 356.016 265.518 355.903 265.997C355.791 266.475 355.774 266.971 355.853 267.456C355.932 267.941 356.107 268.406 356.366 268.823Z" fill="black"/>
<path opacity="0.25" d="M377.953 246.012C376.04 246.8 369.065 245.627 369.065 245.627C369.065 245.627 373.183 239.884 375.095 239.096C376.014 238.718 377.045 238.719 377.963 239.1C378.88 239.481 379.608 240.21 379.987 241.128C380.366 242.045 380.365 243.074 379.983 243.99C379.602 244.906 378.871 245.634 377.953 246.012Z" fill="black"/>
<path opacity="0.25" d="M375.174 263.534C373.113 263.714 366.81 260.511 366.81 260.511C366.81 260.511 372.459 256.262 374.521 256.081C375.011 256.038 375.505 256.092 375.975 256.239C376.444 256.386 376.88 256.625 377.257 256.94C377.635 257.256 377.946 257.643 378.173 258.079C378.401 258.515 378.54 258.991 378.583 259.481C378.626 259.971 378.572 260.464 378.424 260.933C378.276 261.401 378.037 261.836 377.72 262.213C377.404 262.589 377.016 262.9 376.579 263.126C376.142 263.353 375.665 263.492 375.174 263.534Z" fill="black"/>
<path opacity="0.25" d="M370.134 280.195C368.133 280.72 361.377 278.627 361.377 278.627C361.377 278.627 366.227 273.485 368.228 272.959C369.189 272.707 370.211 272.846 371.069 273.346C371.927 273.846 372.551 274.666 372.804 275.626C373.056 276.585 372.917 277.605 372.416 278.462C371.916 279.319 371.095 279.942 370.134 280.195Z" fill="black"/>
<path d="M356.85 285.523C356.85 285.523 372.398 277.291 377.158 264.403C379.119 258.984 382.788 254.347 387.614 251.188C389.916 249.706 392.35 248.438 394.884 247.399" stroke="#535461" stroke-width="2" stroke-miterlimit="10"/>
<path d="M397.932 239.295C396.453 240.739 394.78 247.602 394.78 247.602C394.78 247.602 401.689 246.089 403.169 244.646C403.88 243.952 404.285 243.005 404.297 242.013C404.308 241.021 403.924 240.065 403.23 239.356C402.535 238.646 401.587 238.241 400.594 238.23C399.6 238.219 398.643 238.602 397.932 239.295Z" fill="#F3A9CD"/>
<path d="M385.408 242.872C384.952 244.887 387.283 251.555 387.283 251.555C387.283 251.555 392.26 246.536 392.716 244.521C392.825 244.042 392.837 243.546 392.754 243.062C392.671 242.578 392.492 242.115 392.23 241.699C391.967 241.284 391.625 240.924 391.223 240.641C390.821 240.357 390.368 240.156 389.888 240.048C389.408 239.939 388.911 239.926 388.427 240.01C387.942 240.093 387.478 240.271 387.062 240.533C386.646 240.795 386.286 241.137 386.002 241.538C385.718 241.939 385.516 242.392 385.408 242.872Z" fill="#F3A9CD"/>
<path d="M371.591 256.733C372.216 258.702 377.6 263.283 377.6 263.283C377.6 263.283 379.358 256.442 378.733 254.473C378.585 254.005 378.345 253.57 378.028 253.194C377.712 252.818 377.324 252.509 376.887 252.282C376.45 252.056 375.973 251.918 375.483 251.876C374.993 251.834 374.499 251.889 374.03 252.037C373.562 252.185 373.126 252.425 372.75 252.741C372.374 253.057 372.063 253.445 371.837 253.881C371.61 254.317 371.472 254.793 371.43 255.282C371.388 255.772 371.442 256.265 371.591 256.733Z" fill="#F3A9CD"/>
<path d="M363.502 269.572C363.785 271.618 368.316 277.042 368.316 277.042C368.316 277.042 371.207 270.596 370.924 268.549C370.857 268.063 370.694 267.594 370.446 267.17C370.197 266.746 369.867 266.375 369.475 266.079C369.083 265.782 368.636 265.565 368.16 265.441C367.684 265.317 367.189 265.288 366.701 265.355C366.214 265.422 365.745 265.584 365.32 265.833C364.896 266.081 364.524 266.41 364.227 266.802C363.93 267.193 363.713 267.639 363.589 268.115C363.464 268.59 363.435 269.085 363.502 269.572Z" fill="#F3A9CD"/>
<path d="M392.495 257.452C390.426 257.398 384.526 253.503 384.526 253.503C384.526 253.503 390.621 249.919 392.689 249.973C393.682 249.999 394.625 250.417 395.309 251.137C395.993 251.856 396.363 252.818 396.337 253.809C396.311 254.801 395.892 255.742 395.171 256.425C394.451 257.108 393.488 257.477 392.495 257.452H392.495Z" fill="#F3A9CD"/>
<path d="M382.844 272.346C380.886 271.677 376.423 266.198 376.423 266.198C376.423 266.198 383.313 264.599 385.27 265.268C386.21 265.59 386.984 266.271 387.421 267.162C387.858 268.053 387.923 269.08 387.601 270.019C387.28 270.958 386.598 271.73 385.705 272.167C384.813 272.603 383.784 272.668 382.844 272.347V272.346Z" fill="#F3A9CD"/>
<path d="M371.474 285.538C369.432 285.209 364.105 280.562 364.105 280.562C364.105 280.562 370.625 277.823 372.668 278.153C373.649 278.311 374.527 278.851 375.108 279.656C375.69 280.46 375.928 281.462 375.769 282.441C375.611 283.421 375.07 284.297 374.264 284.878C373.459 285.459 372.455 285.696 371.474 285.538Z" fill="#F3A9CD"/>
<path opacity="0.2" d="M241.002 59.2464C220.399 58.5322 200.776 51.8908 182.039 44.6247C163.301 37.3585 144.741 29.3083 124.632 25.4581C111.698 22.9817 96.9066 22.6313 86.4851 29.5557C76.4565 36.219 73.216 47.7213 71.4738 58.394C70.163 66.4238 69.3924 74.8748 72.9839 82.3921C75.4774 87.611 79.9048 91.998 82.9664 96.9969C93.6199 114.391 86.0899 135.84 74.5448 152.825C69.1292 160.791 62.8476 168.392 58.6686 176.873C54.4895 185.354 52.5563 195.072 56.2126 203.723C59.8366 212.298 68.473 218.739 77.8282 223.269C96.829 232.47 119.22 235.104 141.053 236.595C189.385 239.897 237.974 238.467 286.434 237.036C304.368 236.506 322.38 235.969 340.023 233.2C349.82 231.662 359.935 229.222 367.048 223.33C376.077 215.85 378.315 203.185 372.265 193.806C362.116 178.075 334.056 174.167 326.962 157.285C323.057 147.992 327.067 137.641 332.742 129.022C344.914 110.534 365.317 94.3137 366.392 73.1809C367.13 58.6666 357.322 44.1309 342.156 37.2636C326.26 30.0653 304.217 30.9708 292.49 42.8864C280.414 55.1561 259.193 59.8771 241.002 59.2464Z" fill="#F3A9CD"/>
<path d="M202.369 262.344C210.106 262.344 216.377 255.697 216.377 247.497C216.377 239.297 210.106 232.65 202.369 232.65C194.633 232.65 188.361 239.297 188.361 247.497C188.361 255.697 194.633 262.344 202.369 262.344Z" fill="#FBD56F"/>
<path opacity="0.1" d="M202.369 262.344C210.106 262.344 216.377 255.697 216.377 247.497C216.377 239.297 210.106 232.65 202.369 232.65C194.633 232.65 188.361 239.297 188.361 247.497C188.361 255.697 194.633 262.344 202.369 262.344Z" fill="black"/>
<path d="M204.787 262.344C212.523 262.344 218.795 255.845 218.795 247.828C218.795 239.81 212.523 233.311 204.787 233.311C197.05 233.311 190.779 239.81 190.779 247.828C190.779 255.845 197.05 262.344 204.787 262.344Z" fill="#FBD56F"/>
<path d="M210.461 260.983L209.003 260.173C209.003 260.173 208.322 263.013 208.545 265.037C208.567 265.242 208.651 265.436 208.787 265.591C208.923 265.747 209.103 265.858 209.303 265.908C212.656 266.739 228.632 270.28 239.618 265.292C239.777 265.22 239.915 265.107 240.017 264.965C240.12 264.823 240.183 264.657 240.202 264.483C240.337 263.24 239.86 260.673 239.669 260.173C239.26 259.097 210.461 260.983 210.461 260.983Z" fill="#FBD56F"/>
<path opacity="0.1" d="M210.461 260.983L209.003 260.173C209.003 260.173 208.322 263.013 208.545 265.037C208.567 265.242 208.651 265.436 208.787 265.591C208.923 265.747 209.103 265.858 209.303 265.908C212.656 266.739 228.632 270.28 239.618 265.292C239.777 265.22 239.915 265.107 240.017 264.965C240.12 264.823 240.183 264.657 240.202 264.483C240.337 263.24 239.86 260.673 239.669 260.173C239.26 259.097 210.461 260.983 210.461 260.983Z" fill="black"/>
<path d="M224.336 263.624C232.804 263.624 239.669 262.079 239.669 260.173C239.669 258.267 232.804 256.722 224.336 256.722C215.868 256.722 209.003 258.267 209.003 260.173C209.003 262.079 215.868 263.624 224.336 263.624Z" fill="#FBD56F"/>
<path d="M216.319 255.891L214.861 255.081C214.861 255.081 214.18 257.921 214.403 259.945C214.425 260.15 214.509 260.344 214.645 260.5C214.781 260.655 214.961 260.766 215.161 260.816C218.513 261.647 234.49 265.188 245.476 260.201C245.635 260.128 245.773 260.015 245.875 259.873C245.978 259.731 246.041 259.565 246.06 259.392C246.195 258.148 245.718 255.581 245.527 255.081C245.117 254.005 216.319 255.891 216.319 255.891Z" fill="#FBD56F"/>
<path opacity="0.1" d="M216.319 255.891L214.861 255.081C214.861 255.081 214.18 257.921 214.403 259.945C214.425 260.15 214.509 260.344 214.645 260.5C214.781 260.655 214.961 260.766 215.161 260.816C218.513 261.647 234.49 265.188 245.476 260.201C245.635 260.128 245.773 260.015 245.875 259.873C245.978 259.731 246.041 259.565 246.06 259.392C246.195 258.148 245.718 255.581 245.527 255.081C245.117 254.005 216.319 255.891 216.319 255.891Z" fill="black"/>
<path d="M230.195 258.532C238.663 258.532 245.527 256.987 245.527 255.081C245.527 253.175 238.663 251.63 230.195 251.63C221.726 251.63 214.862 253.175 214.862 255.081C214.862 256.987 221.726 258.532 230.195 258.532Z" fill="#FBD56F"/>
<path d="M221.497 249.199L220.04 248.389C220.04 248.389 219.359 251.229 219.582 253.253C219.604 253.458 219.688 253.652 219.824 253.807C219.959 253.963 220.14 254.073 220.34 254.124C223.692 254.955 239.669 258.496 250.655 253.508C250.814 253.436 250.952 253.323 251.054 253.181C251.157 253.039 251.22 252.873 251.239 252.699C251.374 251.455 250.897 248.889 250.706 248.389C250.296 247.313 221.497 249.199 221.497 249.199Z" fill="#FBD56F"/>
<path opacity="0.1" d="M221.497 249.199L220.04 248.389C220.04 248.389 219.359 251.229 219.582 253.253C219.604 253.458 219.688 253.652 219.824 253.807C219.959 253.963 220.14 254.073 220.34 254.124C223.692 254.955 239.669 258.496 250.655 253.508C250.814 253.436 250.952 253.323 251.054 253.181C251.157 253.039 251.22 252.873 251.239 252.699C251.374 251.455 250.897 248.889 250.706 248.389C250.296 247.313 221.497 249.199 221.497 249.199Z" fill="black"/>
<path d="M235.373 251.84C243.841 251.84 250.706 250.295 250.706 248.389C250.706 246.483 243.841 244.938 235.373 244.938C226.905 244.938 220.04 246.483 220.04 248.389C220.04 250.295 226.905 251.84 235.373 251.84Z" fill="#FBD56F"/>
<path d="M215.762 242.233L214.305 241.422C214.305 241.422 213.624 244.262 213.847 246.286C213.868 246.491 213.953 246.685 214.089 246.841C214.224 246.997 214.405 247.107 214.605 247.157C217.957 247.988 233.934 251.53 244.92 246.542C245.079 246.469 245.217 246.356 245.319 246.214C245.422 246.073 245.485 245.907 245.504 245.733C245.639 244.489 245.162 241.922 244.971 241.422C244.561 240.346 215.762 242.233 215.762 242.233Z" fill="#FBD56F"/>
<path opacity="0.1" d="M215.762 242.233L214.305 241.422C214.305 241.422 213.624 244.262 213.847 246.286C213.868 246.491 213.953 246.685 214.089 246.841C214.224 246.997 214.405 247.107 214.605 247.157C217.957 247.988 233.934 251.53 244.92 246.542C245.079 246.469 245.217 246.356 245.319 246.214C245.422 246.073 245.485 245.907 245.504 245.733C245.639 244.489 245.162 241.922 244.971 241.422C244.561 240.346 215.762 242.233 215.762 242.233Z" fill="black"/>
<path d="M229.638 244.873C238.106 244.873 244.971 243.328 244.971 241.422C244.971 239.516 238.106 237.971 229.638 237.971C221.17 237.971 214.305 239.516 214.305 241.422C214.305 243.328 221.17 244.873 229.638 244.873Z" fill="#FBD56F"/>
<path d="M228.664 236.642L227.207 235.832C227.207 235.832 226.526 238.672 226.748 240.695C226.77 240.901 226.855 241.094 226.991 241.25C227.126 241.406 227.307 241.516 227.507 241.566C230.859 242.398 246.835 245.939 257.822 240.951C257.981 240.878 258.119 240.766 258.221 240.624C258.323 240.482 258.387 240.316 258.406 240.142C258.54 238.898 258.063 236.332 257.873 235.832C257.463 234.755 228.664 236.642 228.664 236.642Z" fill="#FBD56F"/>
<path opacity="0.1" d="M228.664 236.642L227.207 235.832C227.207 235.832 226.526 238.672 226.748 240.695C226.77 240.901 226.855 241.094 226.991 241.25C227.126 241.406 227.307 241.516 227.507 241.566C230.859 242.398 246.835 245.939 257.822 240.951C257.981 240.878 258.119 240.766 258.221 240.624C258.323 240.482 258.387 240.316 258.406 240.142C258.54 238.898 258.063 236.332 257.873 235.832C257.463 234.755 228.664 236.642 228.664 236.642Z" fill="black"/>
<path d="M242.54 239.283C251.008 239.283 257.873 237.738 257.873 235.832C257.873 233.926 251.008 232.38 242.54 232.38C234.072 232.38 227.207 233.926 227.207 235.832C227.207 237.738 234.072 239.283 242.54 239.283Z" fill="#FBD56F"/>
<path d="M219.947 232.884L218.49 232.074C218.49 232.074 217.809 234.914 218.031 236.938C218.053 237.143 218.138 237.337 218.274 237.492C218.409 237.648 218.59 237.758 218.79 237.809C222.142 238.64 238.118 242.181 249.105 237.193C249.264 237.121 249.402 237.008 249.504 236.866C249.606 236.724 249.67 236.558 249.689 236.384C249.823 235.14 249.346 232.574 249.156 232.074C248.746 230.998 219.947 232.884 219.947 232.884Z" fill="#FBD56F"/>
<path opacity="0.1" d="M219.947 232.884L218.49 232.074C218.49 232.074 217.809 234.914 218.031 236.938C218.053 237.143 218.138 237.337 218.274 237.492C218.409 237.648 218.59 237.758 218.79 237.809C222.142 238.64 238.118 242.181 249.105 237.193C249.264 237.121 249.402 237.008 249.504 236.866C249.606 236.724 249.67 236.558 249.689 236.384C249.823 235.14 249.346 232.574 249.156 232.074C248.746 230.998 219.947 232.884 219.947 232.884Z" fill="black"/>
<path d="M233.823 235.525C242.291 235.525 249.156 233.98 249.156 232.074C249.156 230.168 242.291 228.623 233.823 228.623C225.355 228.623 218.49 230.168 218.49 232.074C218.49 233.98 225.355 235.525 233.823 235.525Z" fill="#FBD56F"/>
<path d="M225.767 225.63L224.31 224.82C224.31 224.82 223.628 227.66 223.851 229.683C223.873 229.889 223.958 230.082 224.093 230.238C224.229 230.394 224.409 230.504 224.61 230.554C227.962 231.385 243.938 234.927 254.925 229.939C255.084 229.866 255.221 229.754 255.324 229.612C255.426 229.47 255.49 229.304 255.508 229.13C255.643 227.886 255.166 225.32 254.976 224.82C254.566 223.743 225.767 225.63 225.767 225.63Z" fill="#FBD56F"/>
<path opacity="0.1" d="M225.767 225.63L224.31 224.82C224.31 224.82 223.628 227.66 223.851 229.683C223.873 229.889 223.958 230.082 224.093 230.238C224.229 230.394 224.409 230.504 224.61 230.554C227.962 231.385 243.938 234.927 254.925 229.939C255.084 229.866 255.221 229.754 255.324 229.612C255.426 229.47 255.49 229.304 255.508 229.13C255.643 227.886 255.166 225.32 254.976 224.82C254.566 223.743 225.767 225.63 225.767 225.63Z" fill="black"/>
<path d="M239.643 228.271C248.111 228.271 254.976 226.726 254.976 224.82C254.976 222.914 248.111 221.368 239.643 221.368C231.175 221.368 224.31 222.914 224.31 224.82C224.31 226.726 231.175 228.271 239.643 228.271Z" fill="#FBD56F"/>
<path d="M228.638 217.019L227.181 216.209C227.181 216.209 226.499 219.049 226.722 221.073C226.744 221.278 226.828 221.471 226.964 221.627C227.1 221.783 227.28 221.893 227.481 221.944C230.833 222.775 246.809 226.316 257.795 221.328C257.955 221.256 258.092 221.143 258.195 221.001C258.297 220.859 258.361 220.693 258.379 220.519C258.514 219.275 258.037 216.709 257.847 216.209C257.437 215.133 228.638 217.019 228.638 217.019Z" fill="#FBD56F"/>
<path opacity="0.1" d="M228.638 217.019L227.181 216.209C227.181 216.209 226.499 219.049 226.722 221.073C226.744 221.278 226.828 221.471 226.964 221.627C227.1 221.783 227.28 221.893 227.481 221.944C230.833 222.775 246.809 226.316 257.795 221.328C257.955 221.256 258.092 221.143 258.195 221.001C258.297 220.859 258.361 220.693 258.379 220.519C258.514 219.275 258.037 216.709 257.847 216.209C257.437 215.133 228.638 217.019 228.638 217.019Z" fill="black"/>
<path d="M242.514 219.66C250.982 219.66 257.847 218.115 257.847 216.209C257.847 214.303 250.982 212.758 242.514 212.758C234.046 212.758 227.181 214.303 227.181 216.209C227.181 218.115 234.046 219.66 242.514 219.66Z" fill="#FBD56F"/>
<path d="M254.521 262.98L253.064 262.17C253.064 262.17 252.383 265.01 252.605 267.034C252.627 267.239 252.712 267.433 252.847 267.589C252.983 267.744 253.163 267.855 253.364 267.905C256.716 268.736 272.692 272.277 283.679 267.289C283.838 267.217 283.976 267.104 284.078 266.962C284.18 266.82 284.244 266.654 284.263 266.481C284.397 265.237 283.92 262.67 283.73 262.17C283.32 261.094 254.521 262.98 254.521 262.98Z" fill="#FBD56F"/>
<path opacity="0.1" d="M254.521 262.98L253.064 262.17C253.064 262.17 252.383 265.01 252.605 267.034C252.627 267.239 252.712 267.433 252.847 267.589C252.983 267.744 253.163 267.855 253.364 267.905C256.716 268.736 272.692 272.277 283.679 267.289C283.838 267.217 283.976 267.104 284.078 266.962C284.18 266.82 284.244 266.654 284.263 266.481C284.397 265.237 283.92 262.67 283.73 262.17C283.32 261.094 254.521 262.98 254.521 262.98Z" fill="black"/>
<path d="M268.397 265.621C276.865 265.621 283.73 264.076 283.73 262.17C283.73 260.264 276.865 258.719 268.397 258.719C259.929 258.719 253.064 260.264 253.064 262.17C253.064 264.076 259.929 265.621 268.397 265.621Z" fill="#FBD56F"/>
<path d="M259.7 256.288L258.243 255.478C258.243 255.478 257.561 258.318 257.784 260.342C257.806 260.547 257.891 260.741 258.026 260.896C258.162 261.052 258.342 261.162 258.543 261.213C261.895 262.044 277.871 265.585 288.858 260.597C289.017 260.525 289.155 260.412 289.257 260.27C289.359 260.128 289.423 259.962 289.442 259.788C289.576 258.544 289.099 255.978 288.909 255.478C288.499 254.402 259.7 256.288 259.7 256.288Z" fill="#FBD56F"/>
<path opacity="0.1" d="M259.7 256.288L258.243 255.478C258.243 255.478 257.561 258.318 257.784 260.342C257.806 260.547 257.891 260.741 258.026 260.896C258.162 261.052 258.342 261.162 258.543 261.213C261.895 262.044 277.871 265.585 288.858 260.597C289.017 260.525 289.155 260.412 289.257 260.27C289.359 260.128 289.423 259.962 289.442 259.788C289.576 258.544 289.099 255.978 288.909 255.478C288.499 254.402 259.7 256.288 259.7 256.288Z" fill="black"/>
<path d="M273.576 258.929C282.044 258.929 288.909 257.384 288.909 255.478C288.909 253.572 282.044 252.027 273.576 252.027C265.108 252.027 258.243 253.572 258.243 255.478C258.243 257.384 265.108 258.929 273.576 258.929Z" fill="#FBD56F"/>
<path d="M253.965 249.321L252.508 248.511C252.508 248.511 251.826 251.351 252.049 253.375C252.071 253.58 252.156 253.774 252.291 253.93C252.427 254.085 252.607 254.196 252.808 254.246C256.16 255.077 272.136 258.619 283.123 253.631C283.282 253.558 283.419 253.445 283.522 253.303C283.624 253.162 283.688 252.996 283.706 252.822C283.841 251.578 283.364 249.011 283.174 248.511C282.764 247.435 253.965 249.321 253.965 249.321Z" fill="#FBD56F"/>
<path opacity="0.1" d="M253.965 249.321L252.508 248.511C252.508 248.511 251.826 251.351 252.049 253.375C252.071 253.58 252.156 253.774 252.291 253.93C252.427 254.085 252.607 254.196 252.808 254.246C256.16 255.077 272.136 258.619 283.123 253.631C283.282 253.558 283.419 253.445 283.522 253.303C283.624 253.162 283.688 252.996 283.706 252.822C283.841 251.578 283.364 249.011 283.174 248.511C282.764 247.435 253.965 249.321 253.965 249.321Z" fill="black"/>
<path d="M267.841 251.962C276.309 251.962 283.174 250.417 283.174 248.511C283.174 246.605 276.309 245.06 267.841 245.06C259.373 245.06 252.508 246.605 252.508 248.511C252.508 250.417 259.373 251.962 267.841 251.962Z" fill="#FBD56F"/>
<path d="M266.867 243.731L265.41 242.921C265.41 242.921 264.728 245.76 264.951 247.784C264.973 247.99 265.057 248.183 265.193 248.339C265.329 248.495 265.509 248.605 265.71 248.655C269.062 249.486 285.038 253.028 296.024 248.04C296.184 247.967 296.321 247.854 296.424 247.713C296.526 247.571 296.59 247.405 296.608 247.231C296.743 245.987 296.266 243.421 296.076 242.921C295.666 241.844 266.867 243.731 266.867 243.731Z" fill="#FBD56F"/>
<path opacity="0.1" d="M266.867 243.731L265.41 242.921C265.41 242.921 264.728 245.76 264.951 247.784C264.973 247.99 265.057 248.183 265.193 248.339C265.329 248.495 265.509 248.605 265.71 248.655C269.062 249.486 285.038 253.028 296.024 248.04C296.184 247.967 296.321 247.854 296.424 247.713C296.526 247.571 296.59 247.405 296.608 247.231C296.743 245.987 296.266 243.421 296.076 242.921C295.666 241.844 266.867 243.731 266.867 243.731Z" fill="black"/>
<path d="M280.743 246.372C289.211 246.372 296.076 244.827 296.076 242.921C296.076 241.015 289.211 239.469 280.743 239.469C272.275 239.469 265.41 241.015 265.41 242.921C265.41 244.827 272.275 246.372 280.743 246.372Z" fill="#FBD56F"/>
<path d="M258.15 239.973L256.693 239.163C256.693 239.163 256.011 242.003 256.234 244.027C256.256 244.232 256.34 244.425 256.476 244.581C256.612 244.737 256.792 244.847 256.993 244.898C260.345 245.729 276.321 249.27 287.307 244.282C287.467 244.21 287.604 244.097 287.707 243.955C287.809 243.813 287.873 243.647 287.891 243.473C288.026 242.229 287.549 239.663 287.359 239.163C286.949 238.087 258.15 239.973 258.15 239.973Z" fill="#FBD56F"/>
<path opacity="0.1" d="M258.15 239.973L256.693 239.163C256.693 239.163 256.011 242.003 256.234 244.027C256.256 244.232 256.34 244.425 256.476 244.581C256.612 244.737 256.792 244.847 256.993 244.898C260.345 245.729 276.321 249.27 287.307 244.282C287.467 244.21 287.604 244.097 287.707 243.955C287.809 243.813 287.873 243.647 287.891 243.473C288.026 242.229 287.549 239.663 287.359 239.163C286.949 238.087 258.15 239.973 258.15 239.973Z" fill="black"/>
<path d="M272.026 242.614C280.494 242.614 287.358 241.069 287.358 239.163C287.358 237.257 280.494 235.712 272.026 235.712C263.557 235.712 256.693 237.257 256.693 239.163C256.693 241.069 263.557 242.614 272.026 242.614Z" fill="#FBD56F"/>
<path d="M263.97 232.719L262.513 231.908C262.513 231.908 261.831 234.748 262.054 236.772C262.076 236.977 262.16 237.171 262.296 237.327C262.432 237.483 262.612 237.593 262.813 237.643C266.165 238.474 282.141 242.016 293.127 237.028C293.286 236.955 293.424 236.842 293.526 236.701C293.629 236.559 293.692 236.393 293.711 236.219C293.846 234.975 293.369 232.408 293.178 231.908C292.769 230.832 263.97 232.719 263.97 232.719Z" fill="#FBD56F"/>
<path opacity="0.1" d="M263.97 232.719L262.513 231.908C262.513 231.908 261.831 234.748 262.054 236.772C262.076 236.977 262.16 237.171 262.296 237.327C262.432 237.483 262.612 237.593 262.813 237.643C266.165 238.474 282.141 242.016 293.127 237.028C293.286 236.955 293.424 236.842 293.526 236.701C293.629 236.559 293.692 236.393 293.711 236.219C293.846 234.975 293.369 232.408 293.178 231.908C292.769 230.832 263.97 232.719 263.97 232.719Z" fill="black"/>
<path d="M277.846 235.36C286.314 235.36 293.179 233.815 293.179 231.908C293.179 230.002 286.314 228.457 277.846 228.457C269.377 228.457 262.513 230.002 262.513 231.908C262.513 233.815 269.377 235.36 277.846 235.36Z" fill="#FBD56F"/>
<path d="M266.841 224.108L265.383 223.298C265.383 223.298 264.702 226.138 264.925 228.161C264.947 228.367 265.031 228.56 265.167 228.716C265.303 228.872 265.483 228.982 265.683 229.032C269.035 229.864 285.012 233.405 295.998 228.417C296.157 228.344 296.295 228.232 296.397 228.09C296.5 227.948 296.563 227.782 296.582 227.608C296.717 226.364 296.24 223.798 296.049 223.298C295.639 222.222 266.841 224.108 266.841 224.108Z" fill="#FBD56F"/>
<path opacity="0.1" d="M266.841 224.108L265.383 223.298C265.383 223.298 264.702 226.138 264.925 228.161C264.947 228.367 265.031 228.56 265.167 228.716C265.303 228.872 265.483 228.982 265.683 229.032C269.035 229.864 285.012 233.405 295.998 228.417C296.157 228.344 296.295 228.232 296.397 228.09C296.5 227.948 296.563 227.782 296.582 227.608C296.717 226.364 296.24 223.798 296.049 223.298C295.639 222.222 266.841 224.108 266.841 224.108Z" fill="black"/>
<path d="M280.716 226.749C289.184 226.749 296.049 225.204 296.049 223.298C296.049 221.392 289.184 219.847 280.716 219.847C272.248 219.847 265.383 221.392 265.383 223.298C265.383 225.204 272.248 226.749 280.716 226.749Z" fill="#FBD56F"/>
<path opacity="0.1" d="M302.03 222.213C302.03 222.213 295.018 225.514 294.422 226.955C293.825 228.395 302.03 222.213 302.03 222.213Z" fill="black"/>
<path opacity="0.1" d="M301.582 226.458C301.582 226.458 295.255 229.139 294.391 229.81C293.527 230.48 301.582 226.458 301.582 226.458Z" fill="black"/>
<path opacity="0.1" d="M298.673 232.193C298.673 232.193 295.871 234.278 294.326 232.64C292.781 231.001 298.673 232.193 298.673 232.193Z" fill="black"/>
<g opacity="0.1">
<path opacity="0.1" d="M317.363 129.63C317.276 130.107 316.702 130.672 316.435 130.266C316.824 131.02 316.116 131.976 315.28 132.122C314.444 132.267 313.614 131.844 312.93 131.343C312.376 130.97 311.912 130.476 311.574 129.9C311.32 129.285 311.099 128.658 310.914 128.019C310.616 127.299 310.131 126.671 309.509 126.2C308.887 125.729 308.15 125.433 307.375 125.342C307.806 126.072 307.122 127.075 306.283 127.203C305.443 127.331 304.625 126.832 304.049 126.21C303.472 125.587 303.054 124.832 302.478 124.21C301.901 123.587 301.083 123.088 300.244 123.215C299.502 123.328 298.926 123.891 298.306 124.314C297.686 124.736 296.816 125.019 296.216 124.568C295.882 124.316 295.718 123.891 295.397 123.623C294.57 122.93 293.288 123.642 292.681 124.533C291.474 126.306 290.873 127.179 288.733 127.854C288.031 128.075 287.592 128.025 287.355 127.812C286.885 128.888 287.099 129.837 288.733 129.322C290.873 128.648 291.474 127.774 292.681 126.002C293.288 125.111 294.57 124.399 295.397 125.091C295.718 125.36 295.882 125.785 296.216 126.036C296.816 126.487 297.686 126.204 298.306 125.782C298.926 125.36 299.502 124.796 300.244 124.683C301.083 124.556 301.901 125.055 302.478 125.678C303.054 126.3 303.472 127.056 304.049 127.678C304.625 128.3 305.444 128.799 306.283 128.671C307.122 128.543 307.806 127.54 307.375 126.81C308.15 126.901 308.887 127.197 309.509 127.668C310.131 128.139 310.616 128.767 310.914 129.488C311.099 130.126 311.32 130.754 311.574 131.368C311.912 131.945 312.376 132.438 312.93 132.812C313.614 133.313 314.444 133.735 315.28 133.59C316.116 133.445 316.824 132.488 316.435 131.735C316.702 132.14 317.276 131.575 317.363 131.098C317.479 130.455 317.501 129.799 317.43 129.15C317.413 129.311 317.392 129.471 317.363 129.63Z" fill="black"/>
<path opacity="0.1" d="M289.449 123.208C289.454 123.189 289.463 123.171 289.468 123.151C289.874 121.639 288.727 120.211 288.003 118.821C287.496 117.842 287.181 116.774 287.076 115.676C287.048 115.87 287.034 116.066 287.034 116.262C287.025 117.663 287.358 119.046 288.003 120.29C288.498 121.24 289.19 122.207 289.449 123.208Z" fill="black"/>
<path opacity="0.1" d="M318.041 119.425C317.463 120.412 316.51 121.211 316.246 122.324C316.144 122.794 316.149 123.282 316.26 123.751C316.537 122.66 317.47 121.868 318.041 120.893C318.579 119.939 318.781 118.832 318.615 117.749C318.534 118.34 318.339 118.909 318.041 119.425Z" fill="black"/>
</g>
<path d="M234.191 283.528C241.927 283.528 248.199 276.88 248.199 268.68C248.199 260.48 241.927 253.833 234.191 253.833C226.454 253.833 220.183 260.48 220.183 268.68C220.183 276.88 226.454 283.528 234.191 283.528Z" fill="#FBD56F"/>
<path opacity="0.1" d="M234.191 283.528C241.927 283.528 248.199 276.88 248.199 268.68C248.199 260.48 241.927 253.833 234.191 253.833C226.454 253.833 220.183 260.48 220.183 268.68C220.183 276.88 226.454 283.528 234.191 283.528Z" fill="black"/>
<path d="M236.608 283.528C244.345 283.528 250.617 277.028 250.617 269.011C250.617 260.994 244.345 254.494 236.608 254.494C228.872 254.494 222.6 260.994 222.6 269.011C222.6 277.028 228.872 283.528 236.608 283.528Z" fill="#FBD56F"/>
<path d="M33.6221 276.84C43.1773 276.84 50.9234 275.532 50.9234 273.919C50.9234 272.306 43.1773 270.999 33.6221 270.999C24.0668 270.999 16.3208 272.306 16.3208 273.919C16.3208 275.532 24.0668 276.84 33.6221 276.84Z" fill="#F3A9CD"/>
<path d="M40.776 269.141C41.517 268.454 42.212 267.643 42.4255 266.656C42.639 265.668 42.2177 264.485 41.2729 264.124C40.2143 263.72 39.0831 264.452 38.2255 265.192C37.3678 265.932 36.3849 266.776 35.2625 266.62C35.8399 266.097 36.2718 265.434 36.5163 264.696C36.7608 263.957 36.8094 263.167 36.6575 262.404C36.6082 262.089 36.4741 261.793 36.2695 261.548C35.6819 260.921 34.6166 261.19 33.913 261.684C31.6754 263.256 31.051 266.291 31.0388 269.023C30.8132 268.037 31.0033 267.011 30.9977 266C30.9921 264.989 30.7147 263.869 29.8608 263.326C29.3289 263.04 28.7307 262.899 28.1269 262.919C27.121 262.882 26.0008 262.983 25.3139 263.717C24.4604 264.63 24.6817 266.161 25.4242 267.166C26.1668 268.171 27.2962 268.8 28.3358 269.495C29.1697 269.99 29.8809 270.668 30.4165 271.476C30.4794 271.589 30.5311 271.707 30.5707 271.83H36.8765C38.292 271.114 39.6038 270.209 40.776 269.141Z" fill="#F3A9CD"/>
<path d="M190.082 254.875C190.853 255.929 191.483 257.078 191.958 258.294C192.083 258.609 192.205 258.939 192.322 259.286C194.185 264.848 191.232 271.519 190.388 270.799C189.543 270.08 186.912 268.745 186.403 270.62C185.895 272.496 184.015 274.414 184.015 274.414C180.591 277.853 177.492 274.137 175.457 270.298C174.792 269.032 174.202 267.728 173.687 266.393C173.236 265.214 172.976 264.399 172.976 264.399L187.238 252.266C187.238 252.266 188.617 252.898 190.082 254.875Z" fill="#F3A9CD"/>
<path d="M167.605 262.634C168.375 263.688 169.006 264.837 169.48 266.053C169.605 266.368 169.728 266.698 169.844 267.044C171.708 272.607 168.754 279.277 167.91 278.558C167.065 277.838 164.434 276.503 163.925 278.379C163.417 280.255 161.537 282.173 161.537 282.173C158.113 285.611 155.014 281.896 152.979 278.057C152.315 276.79 151.724 275.486 151.209 274.152C150.758 272.973 150.498 272.158 150.498 272.158L164.76 260.024C164.76 260.024 166.139 260.656 167.605 262.634Z" fill="#F3A9CD"/>
<path d="M122.472 273.353C122.392 274.655 122.143 275.942 121.73 277.18C121.626 277.502 121.509 277.834 121.377 278.175C119.257 283.645 112.72 286.898 112.53 285.806C112.339 284.714 111.167 282.01 109.576 283.13C107.986 284.25 105.313 284.528 105.313 284.528C100.479 284.994 100.468 280.158 101.355 275.906C101.653 274.508 102.031 273.127 102.488 271.772C102.894 270.577 103.215 269.784 103.215 269.784L121.95 269.531C121.95 269.531 122.607 270.896 122.472 273.353Z" fill="#F3A9CD"/>
<path d="M98.2654 267.257C98.1853 268.559 97.936 269.846 97.5238 271.084C97.4193 271.406 97.3026 271.738 97.1704 272.079C95.0503 277.549 88.5133 280.802 88.3231 279.71C88.1329 278.618 86.9604 275.914 85.3697 277.034C83.779 278.154 81.1066 278.432 81.1066 278.432C76.2726 278.898 76.2611 274.062 77.1485 269.81C77.4463 268.412 77.8247 267.031 78.2817 265.676C78.6875 264.481 79.0085 263.688 79.0085 263.688L97.7434 263.435C97.7434 263.435 98.4009 264.8 98.2654 267.257Z" fill="#F3A9CD"/>
<path opacity="0.2" d="M190.082 254.875C190.853 255.929 191.483 257.078 191.958 258.294C192.083 258.609 192.205 258.939 192.322 259.286C194.185 264.848 191.232 271.519 190.388 270.799C189.543 270.08 186.912 268.745 186.403 270.62C185.895 272.496 184.015 274.414 184.015 274.414C180.591 277.853 177.492 274.137 175.457 270.298C174.792 269.032 174.202 267.728 173.687 266.393C173.236 265.214 172.976 264.399 172.976 264.399L187.238 252.266C187.238 252.266 188.617 252.898 190.082 254.875Z" fill="black"/>
<path opacity="0.2" d="M167.605 262.634C168.375 263.688 169.006 264.837 169.48 266.053C169.605 266.368 169.728 266.698 169.844 267.044C171.708 272.607 168.754 279.277 167.91 278.558C167.065 277.838 164.434 276.503 163.925 278.379C163.417 280.255 161.537 282.173 161.537 282.173C158.113 285.611 155.014 281.896 152.979 278.057C152.315 276.79 151.724 275.486 151.209 274.152C150.758 272.973 150.498 272.158 150.498 272.158L164.76 260.024C164.76 260.024 166.139 260.656 167.605 262.634Z" fill="black"/>
<path opacity="0.2" d="M122.472 273.353C122.392 274.655 122.143 275.942 121.73 277.18C121.626 277.502 121.509 277.834 121.377 278.175C119.257 283.645 112.72 286.898 112.53 285.806C112.339 284.714 111.167 282.01 109.576 283.13C107.986 284.25 105.313 284.528 105.313 284.528C100.479 284.994 100.468 280.158 101.355 275.906C101.653 274.508 102.031 273.127 102.488 271.772C102.894 270.577 103.215 269.784 103.215 269.784L121.95 269.531C121.95 269.531 122.607 270.896 122.472 273.353Z" fill="black"/>
<path opacity="0.2" d="M98.2654 267.257C98.1853 268.559 97.936 269.846 97.5238 271.084C97.4193 271.406 97.3026 271.738 97.1704 272.079C95.0503 277.549 88.5133 280.802 88.3231 279.71C88.1329 278.618 86.9604 275.914 85.3697 277.034C83.779 278.154 81.1066 278.432 81.1066 278.432C76.2726 278.898 76.2611 274.062 77.1485 269.81C77.4463 268.412 77.8247 267.031 78.2817 265.676C78.6875 264.481 79.0085 263.688 79.0085 263.688L97.7434 263.435C97.7434 263.435 98.4009 264.8 98.2654 267.257Z" fill="black"/>
<path d="M228.125 185.27C228.125 235.236 211.197 275.741 133.08 275.741C80.5887 275.741 39.9783 262.718 38.0357 185.27C36.7829 135.32 80.5887 94.7994 133.08 94.7994C185.572 94.7994 228.125 135.305 228.125 185.27Z" fill="#F3A9CD"/>
<path opacity="0.2" d="M115.251 96.3788H115.263C115.26 96.3804 115.257 96.3815 115.254 96.3819L115.251 96.3788Z" fill="black"/>
<path opacity="0.2" d="M115.437 96.3483C115.678 96.3095 116.155 96.243 116.849 96.1904L115.303 96.3733C115.326 96.3677 115.353 96.3622 115.387 96.3566C115.403 96.3539 115.417 96.3511 115.437 96.3483Z" fill="black"/>
<path opacity="0.2" d="M188.732 137.657L181.06 140.409C177.149 135.184 172.941 130.186 168.456 125.44C163.562 120.239 158.221 115.473 152.496 111.196C132.853 96.6923 117.659 96.3223 112.642 96.6953L124.174 95.344C135.074 97.2124 145.556 100.987 155.135 106.494C161.837 110.343 168.079 114.937 173.741 120.188C183.782 129.473 188.732 137.657 188.732 137.657Z" fill="black"/>
<path opacity="0.2" d="M112.507 142.644C112.507 142.644 102.189 108.073 110.944 98.6443C110.944 98.6443 124.703 93.9301 135.021 120.644L112.507 142.644Z" fill="black"/>
<path d="M169.322 109.557C169.322 109.557 193.607 88.9507 204.35 92.7215C204.35 92.7215 213.063 102.221 195.132 120.048L169.322 109.557Z" fill="#F3A9CD"/>
<path opacity="0.2" d="M169.322 109.557C169.322 109.557 193.607 88.9507 204.35 92.7215C204.35 92.7215 213.063 102.221 195.132 120.048L169.322 109.557Z" fill="black"/>
<path d="M245.053 208.269C245.053 235.127 225.751 256.345 207.59 256.345C189.429 256.345 179.285 235.127 179.285 208.269C179.285 181.412 194.038 160.689 212.169 159.639C240.89 157.977 245.053 181.412 245.053 208.269Z" fill="#F3A9CD"/>
<path opacity="0.2" d="M245.053 208.269C245.053 235.127 225.751 256.345 207.59 256.345C189.429 256.345 179.285 235.127 179.285 208.269C179.285 181.412 194.038 160.689 212.169 159.639C240.89 157.977 245.053 181.412 245.053 208.269Z" fill="black"/>
<path d="M206.48 220.046C209.852 220.046 212.585 216.572 212.585 212.287C212.585 208.002 209.852 204.528 206.48 204.528C203.108 204.528 200.375 208.002 200.375 212.287C200.375 216.572 203.108 220.046 206.48 220.046Z" fill="#F3A9CD"/>
<path d="M228.125 213.395C231.497 213.395 234.23 209.922 234.23 205.637C234.23 201.352 231.497 197.878 228.125 197.878C224.753 197.878 222.02 201.352 222.02 205.637C222.02 209.922 224.753 213.395 228.125 213.395Z" fill="#F3A9CD"/>
<path d="M173.439 113.607C173.444 115.527 172.991 117.421 172.117 119.135C170.964 121.413 169.093 123.259 166.787 124.394C161.85 119.187 156.463 114.415 150.687 110.133C151.202 108.384 152.112 106.774 153.349 105.425C154.416 104.249 155.72 103.308 157.178 102.662C158.636 102.016 160.215 101.68 161.812 101.675C168.233 101.675 173.439 107.017 173.439 113.607Z" fill="#FAD46F"/>
</svg>
