<svg width="300" height="219" viewBox="0 0 300 219" fill="none" xmlns="http://www.w3.org/2000/svg">
<path d="M33.5337 49.9554C68.9749 15.0237 180.711 -17.8327 228.71 11.094C319.06 65.5438 305.284 57.1861 285.116 87.507C269.143 111.522 292.604 135.975 234.7 194.485C125.547 213.235 119.89 235.53 25.547 200.746C-12.8892 194.485 2.08608 180.949 7.07761 128.988C2.585 57.3783 17.5603 73.0976 33.5337 49.9554Z" fill="#F4E6EE"/>
<path d="M49.0003 72H236V77.5096V152.49V158H49.0003C48.9998 155 49.0001 155.533 49.0001 152.49V77.5096C49.0001 77.3722 49.0001 77.2553 49.0001 77.1565C49.0001 76.9484 49.0001 76.1953 49.0001 77.1565C49.0001 77.4006 49.0002 76.8956 49.0003 72Z" fill="#6B3752"/>
<path d="M49.0001 77.1565C49.0001 76.9484 49.0001 76.1953 49.0001 77.1565V77.1565Z" fill="#6B3752"/>
<path d="M203.478 140.804H133.892V149.958H203.478V140.804Z" fill="white"/>
<path d="M123 126H126V109H123L117 116.5L119 118.5L123 114.5V126Z" fill="white"/>
<path d="M131 125H130V115V110H131H138H139V124V125H131Z" stroke="white" stroke-width="2"/>
<path d="M145 125H144V115V110H145H152H153V124V125H145Z" stroke="white" stroke-width="2"/>
<path d="M113 112H69.0001V122H113V112Z" fill="white"/>
<path d="M204 112H160V122H204V112Z" fill="white"/>
<path d="M204 91H69.0001V101H204V91Z" fill="white"/>
</svg>
