<svg width="294" height="351" viewBox="0 0 294 351" fill="none" xmlns="http://www.w3.org/2000/svg">
<path fill-rule="evenodd" clip-rule="evenodd" d="M149.606 286.996C262.534 247.489 243.295 323.373 272.025 180.618C300.756 37.864 143.842 78.5536 124.704 67.9967C105.565 57.4398 -11.6208 64.9847 16.5839 200.246C44.7886 335.508 36.6784 326.504 149.606 286.996Z" fill="#F4E6EE"/>
<path d="M195.714 84.6373H80.7141L80.714 95.4643V242.81L80.714 253.637H195.714V242.81V95.4643V84.6373Z" fill="#6B3752"/>
<path d="M186.192 237.442H116.606V246.596H186.192V237.442Z" fill="white"/>
<path d="M166.415 146.604H96.0963V155.758H166.415V146.604Z" fill="white"/>
<path d="M180.332 127.591H96.0963V137.45H180.332V127.591Z" fill="white"/>
<path d="M180.332 107.171H96.0963V117.029H180.332V107.171Z" fill="white"/>
</svg>
