<svg width="449" height="363" viewBox="0 0 449 363" fill="none" xmlns="http://www.w3.org/2000/svg">
<g clip-path="url(#clip0)">
<path d="M213.541 354.03C269.22 354.03 314.357 352.313 314.357 350.195C314.357 348.078 269.22 346.361 213.541 346.361C157.863 346.361 112.726 348.078 112.726 350.195C112.726 352.313 157.863 354.03 213.541 354.03Z" fill="#4F4F4E"/>
<path d="M164.062 179.976C185.103 179.976 202.16 162.893 202.16 141.82C202.16 120.747 185.103 103.663 164.062 103.663C143.021 103.663 125.963 120.747 125.963 141.82C125.963 162.893 143.021 179.976 164.062 179.976Z" fill="#FF6584"/>
<path d="M119.174 340.158C136.908 340.158 151.284 338.831 151.284 337.194C151.284 335.556 136.908 334.229 119.174 334.229C101.44 334.229 87.064 335.556 87.064 337.194C87.064 338.831 101.44 340.158 119.174 340.158Z" fill="#4F4F4E"/>
<path d="M177.672 350.409C177.672 350.409 204.323 279.232 189.63 235.431C174.938 191.63 163.321 193.341 163.321 193.341C163.321 193.341 143.504 188.208 118.903 203.265C94.3027 218.321 87.8108 222.77 73.8021 216.61C59.7934 210.451 57.0599 200.869 22.8923 201.896C22.8923 201.896 41.0012 191.972 58.7683 200.869C76.5355 209.766 88.4942 214.557 106.603 200.869C124.712 187.181 149.654 169.387 173.913 179.995C173.913 179.995 156.146 162.543 150.338 162.543C144.529 162.543 117.195 159.806 108.311 150.566C108.311 150.566 95.6694 141.669 73.1188 163.57C50.5682 185.47 56.035 185.47 35.876 183.759C15.7171 182.049 3.8147e-06 172.125 3.8147e-06 172.125C3.8147e-06 172.125 23.5757 181.706 37.9261 176.916C52.2765 172.125 64.5768 153.988 77.2189 147.829C89.8609 141.669 97.3778 133.457 114.462 142.354C114.462 142.354 107.286 112.925 93.6193 115.32C79.9523 117.716 100.111 108.476 100.111 108.476C100.111 108.476 96.3528 58.5156 89.1775 55.0937C82.0023 51.6717 86.4441 42.7746 73.1188 41.0636C73.1188 41.0636 89.5192 39.0104 92.5943 50.3029C95.6694 61.5954 116.853 122.506 116.853 122.506C116.853 122.506 129.837 148.513 144.187 142.354C158.538 136.194 138.721 101.632 138.721 101.632L114.12 90.3399C114.12 90.3399 132.57 89.6555 143.846 100.264C155.121 110.872 155.804 145.091 155.804 145.091C155.804 145.091 184.164 149.198 190.997 164.596C190.997 164.596 195.439 150.909 186.897 142.696C184.762 140.643 182.519 137.071 180.357 132.868C172.089 116.797 169.283 98.4767 171.885 80.5857C173.158 71.8307 173.941 63.2703 172.547 61.2532C169.472 56.8046 156.488 29.4289 155.463 22.2428C154.438 15.0567 156.488 6.10352e-05 156.488 6.10352e-05C156.488 6.10352e-05 156.829 18.4787 160.93 24.296C165.03 30.1133 176.647 58.8578 176.647 58.8578C176.647 58.8578 176.647 95.1306 186.214 112.925C195.781 130.719 214.231 150.566 213.206 163.57V171.098C213.206 171.098 233.707 151.593 232.34 145.091C230.973 138.59 229.265 123.191 216.281 113.951C203.297 104.712 194.756 89.9977 203.981 68.7815C213.206 47.5653 213.206 43.8012 213.206 43.8012L207.056 70.1503C207.056 70.1503 203.639 93.7618 213.206 101.975C222.773 110.187 235.415 125.244 235.415 125.244L232.682 75.9676L241.565 95.4728C241.565 95.4728 260.699 70.8347 283.25 62.622C305.8 54.4093 319.809 25.6648 319.809 25.6648L338.943 10.6081L323.226 29.4289C323.226 29.4289 318.442 51.6717 291.45 67.4127C264.458 83.1538 247.032 106.423 246.007 120.795C244.982 135.168 243.957 147.829 243.957 147.829C243.957 147.829 294.525 146.118 305.8 123.875C317.076 101.632 318.101 57.489 329.034 50.3029C339.968 43.1168 360.469 34.2197 360.469 34.2197L337.576 53.0405C337.576 53.0405 332.793 68.4393 333.818 79.3896C334.843 90.3399 326.301 100.606 326.301 100.606L319.809 119.769L312.634 136.194C312.634 136.194 342.018 136.879 357.394 154.331C372.769 171.783 411.037 176.916 411.037 176.916L389.511 182.733C389.511 182.733 369.011 175.889 349.535 163.228C330.059 150.566 332.11 139.274 307.85 151.935C283.591 164.596 250.449 175.205 250.449 175.205C250.449 175.205 269.583 166.307 304.092 187.866C338.601 209.424 287.008 184.102 271.633 192.314C256.257 200.527 249.082 190.261 242.932 210.793C236.782 231.325 225.506 287.445 238.49 318.927L251.474 350.409H177.672Z" fill="#4F4F4E"/>
<path opacity="0.1" d="M306.319 123.875C297.158 141.946 262.063 146.465 249.22 147.524C248.859 152.163 248.622 155.096 248.622 155.096C248.622 155.096 299.19 153.385 310.465 131.143C321.741 108.9 322.766 64.7566 333.699 57.5705C334.859 56.8084 336.127 56.027 337.466 55.239C337.841 53.8579 338.095 53.0404 338.095 53.0404L360.987 34.2196C360.987 34.2196 340.486 43.1167 329.553 50.3028C318.619 57.489 317.594 101.632 306.319 123.875Z" fill="black"/>
<path opacity="0.1" d="M247.397 89.3044C247.322 97.7295 246.23 102.74 246.23 102.74C246.23 102.74 265.356 78.1128 287.901 69.8949C289.233 69.0507 290.585 68.2195 291.968 67.4127C318.961 51.6716 323.744 29.4289 323.744 29.4289L339.461 10.6081L320.327 25.6647C320.327 25.6647 306.319 54.4092 283.768 62.6219C268.397 68.22 254.615 81.448 247.397 89.3044Z" fill="black"/>
<path opacity="0.1" d="M217.871 170.838V178.366C217.871 178.366 238.372 158.861 237.005 152.359C235.96 147.387 234.708 137.213 228.373 128.568C231.229 135.101 232.098 141.474 232.858 145.091C233.838 149.754 223.574 161.102 217.688 167.15C217.894 168.368 217.956 169.605 217.871 170.838Z" fill="black"/>
<path opacity="0.1" d="M190.371 119.174C190.534 119.521 190.701 119.862 190.879 120.192C196.118 129.938 204.017 140.297 209.927 149.812C205.151 140.389 196.838 129.613 190.371 119.174Z" fill="black"/>
<path opacity="0.1" d="M207.029 104.606C204.274 97.8445 203.82 89.7992 206.985 80.3716C206.945 76.9549 207.142 73.5397 207.574 70.1503L212.954 47.1007C211.962 50.4247 209.693 56.8372 204.499 68.7815C197.924 83.9026 200.378 95.7184 207.029 104.606Z" fill="black"/>
<path opacity="0.1" d="M357.912 154.331C347.249 142.227 329.851 138.19 320.187 136.851L317.299 143.462C317.299 143.462 346.683 144.146 362.058 161.598C370.585 171.276 386.149 177.164 398.325 180.491L411.555 176.915C411.555 176.915 373.287 171.783 357.912 154.331Z" fill="black"/>
<path opacity="0.1" d="M148.852 149.621C163.203 143.462 143.386 108.9 143.386 108.9L142.843 108.651C147.784 119.091 154.949 137.957 144.706 142.354C135.121 146.468 126.146 136.232 121.243 128.98C121.421 129.493 121.518 129.774 121.518 129.774C121.518 129.774 134.502 155.781 148.852 149.621Z" fill="black"/>
<path opacity="0.1" d="M195.662 171.864C195.662 171.864 199.986 158.515 191.863 150.273C193.855 157.373 191.515 164.596 191.515 164.596C186.229 152.684 168.065 147.531 160.109 145.807C160.417 149.773 160.469 152.359 160.469 152.359C160.469 152.359 188.829 156.465 195.662 171.864Z" fill="black"/>
<path opacity="0.1" d="M212.954 47.1007C213.724 44.5205 213.724 43.8011 213.724 43.8011L212.954 47.1007Z" fill="black"/>
<path opacity="0.1" d="M42.3837 184.249C42.4526 184.226 42.5226 184.206 42.5911 184.183C56.9415 179.392 69.2418 161.256 81.8839 155.097C94.5259 148.937 102.043 140.724 119.127 149.621C119.127 149.621 116.138 137.369 110.346 129.319C112.264 133.522 113.815 137.883 114.98 142.354C97.8961 133.457 90.3792 141.669 77.7372 147.829C65.0952 153.988 52.7948 172.125 38.4444 176.916C24.094 181.706 0.518333 172.125 0.518333 172.125C0.518333 172.125 16.2354 182.048 36.3944 183.759C38.7004 183.955 40.6681 184.128 42.3837 184.249Z" fill="black"/>
<path opacity="0.1" d="M184.833 350.409C191.093 331.188 206.149 278.038 194.295 242.699C189.176 227.437 184.431 217.705 180.42 211.497C183.42 217.374 186.7 225.148 190.149 235.431C204.841 279.232 178.19 350.409 178.19 350.409H184.833Z" fill="black"/>
<path opacity="0.1" d="M51.3985 204.648C55.5875 205.074 59.6649 206.256 63.4333 208.137C77.4653 215.164 87.8764 219.62 100.553 214.444C103.441 212.916 106.671 211.026 110.396 208.775C110.687 208.563 110.974 208.359 111.268 208.137C129.377 194.449 154.319 176.655 178.578 187.263C178.578 187.263 173.675 182.448 168.179 177.877C145.944 172.414 123.677 188.355 107.121 200.869C89.0125 214.557 77.0539 209.766 59.2867 200.869C41.5195 191.972 23.4106 201.896 23.4106 201.896C36.6121 201.499 45.1188 202.687 51.3985 204.648Z" fill="black"/>
<path opacity="0.1" d="M86.0798 51.7716C86.4696 52.429 86.9418 53.0336 87.4849 53.5707C87.086 52.9197 86.6146 52.3162 86.0798 51.7716Z" fill="black"/>
<path opacity="0.1" d="M148.511 107.531C149.039 108.031 149.534 108.566 149.992 109.131C148.495 105.527 146.647 102.411 144.364 100.264C133.089 89.6555 114.638 90.3399 114.638 90.3399L137.777 100.961C141.742 102.443 145.386 104.673 148.511 107.531Z" fill="black"/>
<path opacity="0.1" d="M173.065 61.2531C174.459 63.2703 173.676 71.8307 172.403 80.5857C169.802 98.4766 172.607 116.797 180.875 132.868C181.964 135.025 183.18 137.115 184.516 139.128C176.643 123.3 174.003 105.372 176.55 87.8533C177.822 79.0984 178.606 70.538 177.212 68.5208C174.136 64.0723 161.153 36.6966 160.128 29.5104C159.82 26.7226 159.749 23.9137 159.914 21.1137C157.26 13.5717 157.006 0 157.006 0C157.006 0 154.956 15.0567 155.981 22.2428C157.006 29.4288 169.99 56.8046 173.065 61.2531Z" fill="black"/>
<path opacity="0.1" d="M205.119 13.9458C204.982 13.2694 204.775 12.6095 204.499 11.9769C204.499 11.9769 204.762 12.7154 205.119 13.9458Z" fill="black"/>
<path opacity="0.1" d="M84.4378 48.4094C87.4491 48.7786 90.9129 49.7039 93.5551 51.8499C93.3827 51.266 93.2324 50.7427 93.1127 50.3029C90.0375 39.0104 73.6371 41.0636 73.6371 41.0636C81.0487 42.0152 82.9631 45.1901 84.4378 48.4094Z" fill="black"/>
<path d="M169.36 335.788C171.796 344.807 180.141 350.393 180.141 350.393C180.141 350.393 184.535 341.356 182.099 332.337C179.663 323.317 171.319 317.732 171.319 317.732C171.319 317.732 166.924 326.769 169.36 335.788Z" fill="#4F4F4E"/>
<path d="M172.94 333.85C179.625 340.367 180.441 350.385 180.441 350.385C180.441 350.385 170.42 349.837 163.735 343.32C157.05 336.803 156.233 326.784 156.233 326.784C156.233 326.784 166.255 327.332 172.94 333.85Z" fill="#F3A9CD"/>
<path d="M150.784 89.3128C150.203 98.638 143.146 105.786 143.146 105.786C143.146 105.786 137.031 97.8146 137.612 88.4895C138.194 79.1643 145.25 72.0164 145.25 72.0164C145.25 72.0164 151.365 79.9876 150.784 89.3128Z" fill="#F3A9CD"/>
<path d="M77.224 30.3608C85.1157 35.3437 87.9941 44.9734 87.9941 44.9734C87.9941 44.9734 78.0776 46.524 70.186 41.5411C62.2944 36.5582 59.4159 26.9285 59.4159 26.9285C59.4159 26.9285 69.3324 25.3778 77.224 30.3608Z" fill="#F3A9CD"/>
<path d="M59.6008 144.048C67.4924 149.031 70.3708 158.661 70.3708 158.661C70.3708 158.661 60.4544 160.211 52.5627 155.228C44.6711 150.245 41.7927 140.616 41.7927 140.616C41.7927 140.616 51.7091 139.065 59.6008 144.048Z" fill="#F3A9CD"/>
<path d="M101.586 187.654C109.477 192.637 112.356 202.267 112.356 202.267C112.356 202.267 102.439 203.817 94.5476 198.834C86.656 193.851 83.7775 184.222 83.7775 184.222C83.7775 184.222 93.694 182.671 101.586 187.654Z" fill="#F3A9CD"/>
<path d="M220.035 46.9809C217.655 56.0151 209.345 61.6529 209.345 61.6529C209.345 61.6529 204.895 52.6434 207.274 43.6093C209.654 34.5751 217.964 28.9373 217.964 28.9373C217.964 28.9373 222.414 37.9467 220.035 46.9809Z" fill="#F3A9CD"/>
<path d="M295.107 54.0251C292.31 62.9385 283.748 68.1828 283.748 68.1828C283.748 68.1828 279.72 58.9756 282.518 50.0622C285.315 41.1488 293.877 35.9044 293.877 35.9044C293.877 35.9044 297.905 45.1116 295.107 54.0251Z" fill="#F3A9CD"/>
<path d="M376.249 153.227C371.182 161.073 361.534 163.843 361.534 163.843C361.534 163.843 360.102 153.894 365.169 146.049C370.235 138.204 379.883 135.433 379.883 135.433C379.883 135.433 381.316 145.382 376.249 153.227Z" fill="#F3A9CD"/>
</g>
<defs>
<clipPath id="clip0">
<rect width="449" height="363" fill="white"/>
</clipPath>
</defs>
</svg>
