<svg width="687" height="471" viewBox="0 0 687 471" fill="none" xmlns="http://www.w3.org/2000/svg">
<path d="M636.999 282.628L636.996 282.636C633.492 291.8 631.86 301.575 632.198 311.382C632.536 321.189 634.835 330.829 638.961 339.73L638.964 339.735C639.463 340.802 639.997 341.876 640.538 342.941L640.539 342.943C641.477 344.782 642.453 346.606 643.425 348.421C645.837 352.926 648.222 357.381 649.923 361.898C652.286 368.171 653.19 374.247 650.958 380.213L650.958 380.214C649.223 384.862 645.841 388.475 641.588 391.436C637.326 394.404 632.272 396.659 627.316 398.621L627.316 398.621C588.841 413.862 548.432 423.658 507.255 427.725C476.874 430.725 446.263 430.579 415.626 430.425C349.39 430.1 283.148 429.775 217.193 424.519L217.191 424.518C187.034 422.156 156.875 418.695 127.996 410.164C88.3603 398.418 52.0887 377.392 22.1824 348.826L22.1803 348.824C21.1182 347.814 20.0719 346.784 19.0291 345.734C12.7492 339.395 7.16576 332.514 4.35941 324.378C-1.20155 308.094 5.42744 289.995 14.3153 274.532C16.3295 271.028 18.4608 267.559 20.6079 264.065C20.8244 263.713 21.0411 263.36 21.2579 263.007C23.6189 259.162 25.9839 255.283 28.1859 251.334C32.5893 243.438 36.38 235.196 38.246 226.207C41.0022 212.968 39.2999 199.796 35.7971 186.898C33.1337 177.092 29.3976 167.346 25.7472 157.824C24.609 154.855 23.4792 151.907 22.3928 148.987C17.8178 136.688 14.0603 123.24 13.3129 110.242C12.566 97.2529 14.8285 84.8118 22.1827 74.396C29.3753 64.2116 40.5531 57.4851 52.0602 51.8227C85.9346 35.1723 123.03 26.1204 160.758 25.2982C165.318 25.2031 169.985 25.2246 174.681 25.2463C181.193 25.2763 187.761 25.3066 194.177 25.0266C205.326 24.5401 216.4 23.1178 226.95 19.0997L226.951 19.0992C231.752 17.2659 236.365 14.9136 240.888 12.6068C241.936 12.0724 242.98 11.5405 244.019 11.018C249.59 8.21846 255.104 5.66379 260.981 4.22296C280.833 -0.629116 301.557 7.92327 319.885 18.2597C322.774 19.89 325.658 21.572 328.554 23.2607C336.153 27.6918 343.832 32.1695 351.881 35.8835C359.893 39.584 369.233 43.7883 377.913 46.1258L378.303 44.6774L377.914 46.1259C382.476 47.354 387.036 46.7156 391.309 45.3561C395.346 44.0714 399.249 42.1001 402.748 40.3322C402.938 40.2362 403.127 40.1408 403.314 40.0462L403.315 40.0459C407.345 38.0108 411.306 35.7306 415.239 33.4446C415.584 33.2438 415.929 33.0431 416.274 32.8425C419.868 30.7513 423.442 28.6717 427.077 26.7519C435.04 22.5455 443.174 19.1731 452.065 18.2561C462.672 17.1767 473.258 19.8155 484.112 22.5211C484.818 22.697 485.525 22.8733 486.233 23.0488C497.716 25.8943 509.501 28.5415 521.311 26.0585L521.002 24.5906L521.311 26.0584C526.348 24.9982 531.069 23.0513 535.644 21.0346C536.393 20.7042 537.138 20.3725 537.879 20.0421C541.705 18.3376 545.447 16.6702 549.337 15.4262L549.338 15.4259C573.524 7.67843 599.858 17.1219 623.304 28.4997L623.305 28.5C637.838 35.5465 652.266 43.6309 661.102 56.6452C667.876 66.6448 670.78 78.7561 673.583 90.8816C684.233 136.956 693.747 187.253 671.518 228.154C667.264 235.959 661.961 243.158 656.598 250.438C655.554 251.855 654.507 253.276 653.466 254.705C647.108 263.427 640.967 272.418 636.999 282.628Z" fill="#F4E6EE" stroke="#4F4F4E" stroke-width="3"/>
<path d="M652.363 380.751C648.613 390.8 637.83 396.085 627.868 400.028C589.264 415.32 548.719 425.149 507.402 429.23C476.932 432.239 446.243 432.091 415.618 431.937C349.392 431.612 283.094 431.287 217.074 426.026C186.893 423.661 156.605 420.191 127.569 411.614C87.7043 399.797 51.2236 378.646 21.1463 349.911C20.0715 348.888 19.0145 347.848 17.9634 346.79C27.0084 345.637 36.1462 345.395 45.2394 346.069C70.7557 347.812 95.6165 354.906 121.015 357.986C219.348 369.88 320.161 321.229 416.191 345.537C445.829 353.044 473.896 367.361 504.338 370.234C549.27 374.479 592.219 353.452 636.236 343.432C638.084 343.007 639.974 342.61 641.875 342.25C648.271 354.806 657.187 367.846 652.363 380.751Z" fill="#4F4F4E"/>
<path d="M534.028 172.534H530.999V339.873H534.028V172.534Z" fill="#4F4F4E"/>
<path d="M536.909 371.174C535.521 372.253 533.813 372.838 532.055 372.838C530.298 372.838 528.59 372.253 527.201 371.174C525.849 362.219 529.286 344.614 530.095 340.672C530.207 340.157 530.266 339.874 530.266 339.874H534.152C534.405 340.136 534.606 340.445 534.742 340.784C537.441 346.506 536.909 371.174 536.909 371.174Z" fill="#4F4F4E"/>
<path opacity="0.1" d="M533.356 336.256V339.874H531.714V336.25C531.978 336.209 532.244 336.189 532.511 336.191C532.794 336.191 533.076 336.213 533.356 336.256Z" fill="black"/>
<path opacity="0.1" d="M534.755 340.784C534.063 341.146 533.291 341.327 532.511 341.31C531.662 341.329 530.825 341.107 530.096 340.672C530.208 340.157 530.267 339.874 530.267 339.874H534.153C534.411 340.135 534.615 340.444 534.755 340.784Z" fill="black"/>
<path d="M532.517 340.695C534.323 340.695 535.788 339.824 535.788 338.75C535.788 337.676 534.323 336.805 532.517 336.805C530.71 336.805 529.245 337.676 529.245 338.75C529.245 339.824 530.71 340.695 532.517 340.695Z" fill="#4F4F4E"/>
<path d="M518.131 145.579L529.463 140.784L546.641 144.124L533.461 134.146L518.131 145.579Z" fill="#4F4F4E"/>
<path d="M521.503 147.346L518.131 145.579L529.652 140.057L546.641 144.124L543.653 145.579L529.652 142.434L521.503 147.346Z" fill="#F4E6EE"/>
<path d="M521.503 147.346L518.131 145.579L529.988 139.537L546.641 144.124L543.653 145.579L529.652 142.434L521.503 147.346Z" fill="#4F4F4E"/>
<path d="M521.049 146.04L530.32 172.05H534.914L543.5 144.432L529.653 141.204L521.049 146.04Z" fill="#4F4F4E"/>
<path d="M537.194 164.725L535.357 170.625L534.914 172.05H530.32L529.978 171.086L527.811 165.009L531.289 162.917L537.194 164.725Z" fill="#4F4F4E"/>
<path opacity="0.2" d="M529.653 142.434L531.85 172.05H530.32L521.504 147.346L529.653 142.434Z" fill="#F4E6EE"/>
<path opacity="0.1" d="M533.461 134.146L529.652 140.057L518.131 145.579L533.461 134.146Z" fill="black"/>
<path opacity="0.1" d="M535.357 170.625L534.914 172.05H530.32L529.978 171.086C530.363 170.702 530.825 170.404 531.334 170.212C531.843 170.021 532.387 169.94 532.93 169.975C533.785 169.953 534.628 170.179 535.357 170.625Z" fill="black"/>
<path opacity="0.1" d="M533.355 172.534V175.064C533.212 175.073 533.068 175.073 532.924 175.064C532.526 175.062 532.13 175.014 531.743 174.923V172.511L533.355 172.534Z" fill="black"/>
<path d="M532.924 174.479C534.731 174.479 536.195 173.609 536.195 172.534C536.195 171.46 534.731 170.59 532.924 170.59C531.117 170.59 529.652 171.46 529.652 172.534C529.652 173.609 531.117 174.479 532.924 174.479Z" fill="#4F4F4E"/>
<path d="M385.986 342.486C385.986 342.486 346.622 340.825 342.488 263.705C338.355 186.586 379.354 173.522 379.354 173.522C379.354 173.522 392.346 166.257 398.103 165.955C403.861 165.654 423.118 167.474 423.118 167.474L401.895 163.372C401.895 163.372 431.763 151.992 440.703 151.082L408.42 157.892C408.42 157.892 407.965 139.986 415.695 134.063C415.695 134.063 409.105 133.573 405.591 146.477C404.594 150.199 402.739 153.635 400.175 156.509C397.611 159.384 394.41 161.617 390.828 163.029C378.847 167.705 362.288 175.088 358.521 181.407C358.521 181.407 351.547 188.696 352.616 169.726C353.685 150.757 358.68 134.512 360.499 134.057C360.499 134.057 374.754 118.883 394.749 117.972C394.749 117.972 383.081 113.243 363.369 127.992C363.369 127.992 361.704 120.556 369.133 111.754C376.561 102.952 388.082 84.4314 400.666 82.4629C400.666 82.4629 383.081 81.3988 369.133 104.163C369.133 104.163 363.977 107.503 363.523 99.0029C363.068 90.5023 360.033 79.8796 360.033 79.8796C360.033 79.8796 355.787 99.4581 364.757 108.254C364.757 108.254 347.632 130.564 348.388 155.604C348.388 155.604 343.073 166.99 341.107 153.63C341.107 153.63 339.967 135.24 337.687 119.639C336.766 113.352 337.149 106.942 338.815 100.809C340.48 94.6772 343.391 88.9547 347.366 83.9998C351.151 79.2707 353.791 74.6953 352.326 72.2894L332.467 95.9349C332.467 95.9349 315.791 57.2332 303.662 48.8863C291.533 40.5395 290.015 38.7188 290.015 38.7188L309.573 61.6312L285.013 52.9829L309.573 64.3682C309.573 64.3682 320.946 73.6254 327.466 98.9674C333.985 124.309 334.587 140.158 334.587 140.158C334.587 140.158 299.57 112.374 292.897 113.297L315.561 130.44C321.725 135.105 326.817 141.041 330.492 147.846C334.166 154.652 336.338 162.168 336.861 169.886C336.861 169.886 293.05 158.655 282.439 156.532L262.426 136.044L277.585 155.468L246.358 155.013L228.465 142.268C228.465 142.268 242.567 154.091 241.203 154.865C239.839 155.64 219.218 156.532 219.218 156.532C219.218 156.532 271.673 156.231 277.437 160.026C283.2 163.821 296.08 165.181 296.08 165.181L258.936 170.796L303.225 167.61C303.225 167.61 336.731 173.681 338.55 184.162C338.55 184.162 331.723 201.979 327.176 209.049C323.403 214.919 315.809 233.936 314.291 250.629C312.774 267.323 310.654 292.973 316.417 308.602C322.18 324.232 324.295 333.188 321.419 337.893C318.543 342.599 315.809 348.67 325.21 349.881C334.611 351.093 375.841 349.29 375.841 349.29C375.841 349.29 388.413 351.785 385.986 342.486Z" fill="#4F4F4E"/>
<path d="M174.114 369.17L175.024 371.109V356.709H174.114V369.17Z" fill="#4F4F4E"/>
<path d="M115.489 369.17L114.579 371.109V356.709H115.489V369.17Z" fill="#4F4F4E"/>
<path d="M121.671 330.25H119.155V347.954H121.671V330.25Z" fill="#4F4F4E"/>
<path d="M172.266 330.25H169.75V347.954H172.266V330.25Z" fill="#4F4F4E"/>
<g opacity="0.1">
<path opacity="0.1" d="M121.671 330.25H119.155V347.954H121.671V330.25Z" fill="black"/>
<path opacity="0.1" d="M172.267 330.25H169.751V347.954H172.267V330.25Z" fill="black"/>
</g>
<path opacity="0.1" d="M121.671 330.25H119.155V332.313H121.671V330.25Z" fill="black"/>
<path opacity="0.1" d="M172.266 330.25H169.75V332.313H172.266V330.25Z" fill="black"/>
<path d="M175.851 329.505H115.281V332.147H175.851V329.505Z" fill="#4F4F4E"/>
<path opacity="0.1" d="M121.671 333.265H119.155V335.907H121.671V333.265Z" fill="black"/>
<path opacity="0.1" d="M172.266 333.265H169.75V335.907H172.266V333.265Z" fill="black"/>
<path d="M175.851 333.099H115.281V335.741H175.851V333.099Z" fill="#4F4F4E"/>
<path opacity="0.1" d="M121.671 336.853H119.155V339.495H121.671V336.853Z" fill="black"/>
<path opacity="0.1" d="M172.266 336.853H169.75V339.495H172.266V336.853Z" fill="black"/>
<path d="M175.851 336.687H115.281V339.33H175.851V336.687Z" fill="#4F4F4E"/>
<path opacity="0.1" d="M121.671 340.447H119.155V343.089H121.671V340.447Z" fill="black"/>
<path opacity="0.1" d="M172.266 340.447H169.75V343.089H172.266V340.447Z" fill="black"/>
<path d="M175.851 340.281H115.281V342.924H175.851V340.281Z" fill="#4F4F4E"/>
<path opacity="0.1" d="M121.671 344.035H119.155V346.678H121.671V344.035Z" fill="black"/>
<path opacity="0.1" d="M172.266 344.035H169.75V346.678H172.266V344.035Z" fill="black"/>
<path d="M175.851 343.87H115.281V346.512H175.851V343.87Z" fill="#4F4F4E"/>
<g opacity="0.1">
<path opacity="0.1" d="M120.413 331.361C120.615 331.361 120.779 331.197 120.779 330.994C120.779 330.792 120.615 330.628 120.413 330.628C120.211 330.628 120.047 330.792 120.047 330.994C120.047 331.197 120.211 331.361 120.413 331.361Z" fill="black"/>
<path opacity="0.1" d="M120.413 334.949C120.615 334.949 120.779 334.785 120.779 334.583C120.779 334.38 120.615 334.216 120.413 334.216C120.211 334.216 120.047 334.38 120.047 334.583C120.047 334.785 120.211 334.949 120.413 334.949Z" fill="black"/>
<path opacity="0.1" d="M120.413 338.543C120.615 338.543 120.779 338.379 120.779 338.177C120.779 337.974 120.615 337.81 120.413 337.81C120.211 337.81 120.047 337.974 120.047 338.177C120.047 338.379 120.211 338.543 120.413 338.543Z" fill="black"/>
<path opacity="0.1" d="M120.413 342.131C120.615 342.131 120.779 341.967 120.779 341.765C120.779 341.563 120.615 341.398 120.413 341.398C120.211 341.398 120.047 341.563 120.047 341.765C120.047 341.967 120.211 342.131 120.413 342.131Z" fill="black"/>
<path opacity="0.1" d="M120.413 345.726C120.615 345.726 120.779 345.562 120.779 345.359C120.779 345.157 120.615 344.993 120.413 344.993C120.211 344.993 120.047 345.157 120.047 345.359C120.047 345.562 120.211 345.726 120.413 345.726Z" fill="black"/>
<path opacity="0.1" d="M171.009 331.361C171.211 331.361 171.375 331.197 171.375 330.994C171.375 330.792 171.211 330.628 171.009 330.628C170.807 330.628 170.643 330.792 170.643 330.994C170.643 331.197 170.807 331.361 171.009 331.361Z" fill="black"/>
<path opacity="0.1" d="M171.009 334.949C171.211 334.949 171.375 334.785 171.375 334.583C171.375 334.38 171.211 334.216 171.009 334.216C170.807 334.216 170.643 334.38 170.643 334.583C170.643 334.785 170.807 334.949 171.009 334.949Z" fill="black"/>
<path opacity="0.1" d="M171.009 338.543C171.211 338.543 171.375 338.379 171.375 338.177C171.375 337.974 171.211 337.81 171.009 337.81C170.807 337.81 170.643 337.974 170.643 338.177C170.643 338.379 170.807 338.543 171.009 338.543Z" fill="black"/>
<path opacity="0.1" d="M171.009 342.131C171.211 342.131 171.375 341.967 171.375 341.765C171.375 341.563 171.211 341.398 171.009 341.398C170.807 341.398 170.643 341.563 170.643 341.765C170.643 341.967 170.807 342.131 171.009 342.131Z" fill="black"/>
<path opacity="0.1" d="M171.009 345.726C171.211 345.726 171.375 345.562 171.375 345.359C171.375 345.157 171.211 344.993 171.009 344.993C170.807 344.993 170.643 345.157 170.643 345.359C170.643 345.562 170.807 345.726 171.009 345.726Z" fill="black"/>
</g>
<path d="M120.413 331.195C120.615 331.195 120.779 331.031 120.779 330.829C120.779 330.626 120.615 330.462 120.413 330.462C120.211 330.462 120.047 330.626 120.047 330.829C120.047 331.031 120.211 331.195 120.413 331.195Z" fill="#4F4F4E"/>
<path d="M120.413 334.784C120.615 334.784 120.779 334.62 120.779 334.417C120.779 334.215 120.615 334.051 120.413 334.051C120.211 334.051 120.047 334.215 120.047 334.417C120.047 334.62 120.211 334.784 120.413 334.784Z" fill="#4F4F4E"/>
<path d="M120.413 338.378C120.615 338.378 120.779 338.214 120.779 338.012C120.779 337.809 120.615 337.645 120.413 337.645C120.211 337.645 120.047 337.809 120.047 338.012C120.047 338.214 120.211 338.378 120.413 338.378Z" fill="#4F4F4E"/>
<path d="M120.413 341.966C120.615 341.966 120.779 341.802 120.779 341.6C120.779 341.397 120.615 341.233 120.413 341.233C120.211 341.233 120.047 341.397 120.047 341.6C120.047 341.802 120.211 341.966 120.413 341.966Z" fill="#4F4F4E"/>
<path d="M120.413 345.56C120.615 345.56 120.779 345.396 120.779 345.194C120.779 344.991 120.615 344.827 120.413 344.827C120.211 344.827 120.047 344.991 120.047 345.194C120.047 345.396 120.211 345.56 120.413 345.56Z" fill="#4F4F4E"/>
<path d="M120.413 331.195C120.615 331.195 120.779 331.031 120.779 330.829C120.779 330.626 120.615 330.462 120.413 330.462C120.211 330.462 120.047 330.626 120.047 330.829C120.047 331.031 120.211 331.195 120.413 331.195Z" fill="#4F4F4E"/>
<path d="M120.413 334.784C120.615 334.784 120.779 334.62 120.779 334.417C120.779 334.215 120.615 334.051 120.413 334.051C120.211 334.051 120.047 334.215 120.047 334.417C120.047 334.62 120.211 334.784 120.413 334.784Z" fill="#4F4F4E"/>
<path d="M120.413 338.378C120.615 338.378 120.779 338.214 120.779 338.012C120.779 337.809 120.615 337.645 120.413 337.645C120.211 337.645 120.047 337.809 120.047 338.012C120.047 338.214 120.211 338.378 120.413 338.378Z" fill="#4F4F4E"/>
<path d="M120.413 341.966C120.615 341.966 120.779 341.802 120.779 341.6C120.779 341.397 120.615 341.233 120.413 341.233C120.211 341.233 120.047 341.397 120.047 341.6C120.047 341.802 120.211 341.966 120.413 341.966Z" fill="#4F4F4E"/>
<path d="M120.413 345.56C120.615 345.56 120.779 345.396 120.779 345.194C120.779 344.991 120.615 344.827 120.413 344.827C120.211 344.827 120.047 344.991 120.047 345.194C120.047 345.396 120.211 345.56 120.413 345.56Z" fill="#4F4F4E"/>
<path d="M171.009 331.195C171.211 331.195 171.375 331.031 171.375 330.829C171.375 330.626 171.211 330.462 171.009 330.462C170.807 330.462 170.643 330.626 170.643 330.829C170.643 331.031 170.807 331.195 171.009 331.195Z" fill="#4F4F4E"/>
<path d="M171.009 334.784C171.211 334.784 171.375 334.62 171.375 334.417C171.375 334.215 171.211 334.051 171.009 334.051C170.807 334.051 170.643 334.215 170.643 334.417C170.643 334.62 170.807 334.784 171.009 334.784Z" fill="#4F4F4E"/>
<path d="M171.009 338.378C171.211 338.378 171.375 338.214 171.375 338.012C171.375 337.809 171.211 337.645 171.009 337.645C170.807 337.645 170.643 337.809 170.643 338.012C170.643 338.214 170.807 338.378 171.009 338.378Z" fill="#4F4F4E"/>
<path d="M171.009 341.966C171.211 341.966 171.375 341.802 171.375 341.6C171.375 341.397 171.211 341.233 171.009 341.233C170.807 341.233 170.643 341.397 170.643 341.6C170.643 341.802 170.807 341.966 171.009 341.966Z" fill="#4F4F4E"/>
<path d="M171.009 345.56C171.211 345.56 171.375 345.396 171.375 345.194C171.375 344.991 171.211 344.827 171.009 344.827C170.807 344.827 170.643 344.991 170.643 345.194C170.643 345.396 170.807 345.56 171.009 345.56Z" fill="#4F4F4E"/>
<g opacity="0.1">
<path opacity="0.1" d="M120.413 331.195C120.615 331.195 120.779 331.031 120.779 330.829C120.779 330.626 120.615 330.462 120.413 330.462C120.211 330.462 120.047 330.626 120.047 330.829C120.047 331.031 120.211 331.195 120.413 331.195Z" fill="black"/>
<path opacity="0.1" d="M120.413 334.784C120.615 334.784 120.779 334.619 120.779 334.417C120.779 334.215 120.615 334.051 120.413 334.051C120.211 334.051 120.047 334.215 120.047 334.417C120.047 334.619 120.211 334.784 120.413 334.784Z" fill="black"/>
<path opacity="0.1" d="M120.413 338.378C120.615 338.378 120.779 338.214 120.779 338.011C120.779 337.809 120.615 337.645 120.413 337.645C120.211 337.645 120.047 337.809 120.047 338.011C120.047 338.214 120.211 338.378 120.413 338.378Z" fill="black"/>
<path opacity="0.1" d="M120.413 341.966C120.615 341.966 120.779 341.802 120.779 341.599C120.779 341.397 120.615 341.233 120.413 341.233C120.211 341.233 120.047 341.397 120.047 341.599C120.047 341.802 120.211 341.966 120.413 341.966Z" fill="black"/>
<path opacity="0.1" d="M120.413 345.56C120.615 345.56 120.779 345.396 120.779 345.194C120.779 344.991 120.615 344.827 120.413 344.827C120.211 344.827 120.047 344.991 120.047 345.194C120.047 345.396 120.211 345.56 120.413 345.56Z" fill="black"/>
<path opacity="0.1" d="M120.413 331.195C120.615 331.195 120.779 331.031 120.779 330.829C120.779 330.626 120.615 330.462 120.413 330.462C120.211 330.462 120.047 330.626 120.047 330.829C120.047 331.031 120.211 331.195 120.413 331.195Z" fill="black"/>
<path opacity="0.1" d="M120.413 334.784C120.615 334.784 120.779 334.619 120.779 334.417C120.779 334.215 120.615 334.051 120.413 334.051C120.211 334.051 120.047 334.215 120.047 334.417C120.047 334.619 120.211 334.784 120.413 334.784Z" fill="black"/>
<path opacity="0.1" d="M120.413 338.378C120.615 338.378 120.779 338.214 120.779 338.011C120.779 337.809 120.615 337.645 120.413 337.645C120.211 337.645 120.047 337.809 120.047 338.011C120.047 338.214 120.211 338.378 120.413 338.378Z" fill="black"/>
<path opacity="0.1" d="M120.413 341.966C120.615 341.966 120.779 341.802 120.779 341.599C120.779 341.397 120.615 341.233 120.413 341.233C120.211 341.233 120.047 341.397 120.047 341.599C120.047 341.802 120.211 341.966 120.413 341.966Z" fill="black"/>
<path opacity="0.1" d="M120.413 345.56C120.615 345.56 120.779 345.396 120.779 345.194C120.779 344.991 120.615 344.827 120.413 344.827C120.211 344.827 120.047 344.991 120.047 345.194C120.047 345.396 120.211 345.56 120.413 345.56Z" fill="black"/>
<path opacity="0.1" d="M171.009 331.195C171.211 331.195 171.375 331.031 171.375 330.829C171.375 330.626 171.211 330.462 171.009 330.462C170.807 330.462 170.643 330.626 170.643 330.829C170.643 331.031 170.807 331.195 171.009 331.195Z" fill="black"/>
<path opacity="0.1" d="M171.009 334.784C171.211 334.784 171.375 334.619 171.375 334.417C171.375 334.215 171.211 334.051 171.009 334.051C170.807 334.051 170.643 334.215 170.643 334.417C170.643 334.619 170.807 334.784 171.009 334.784Z" fill="black"/>
<path opacity="0.1" d="M171.009 338.378C171.211 338.378 171.375 338.214 171.375 338.011C171.375 337.809 171.211 337.645 171.009 337.645C170.807 337.645 170.643 337.809 170.643 338.011C170.643 338.214 170.807 338.378 171.009 338.378Z" fill="black"/>
<path opacity="0.1" d="M171.009 341.966C171.211 341.966 171.375 341.802 171.375 341.599C171.375 341.397 171.211 341.233 171.009 341.233C170.807 341.233 170.643 341.397 170.643 341.599C170.643 341.802 170.807 341.966 171.009 341.966Z" fill="black"/>
<path opacity="0.1" d="M171.009 345.56C171.211 345.56 171.375 345.396 171.375 345.194C171.375 344.991 171.211 344.827 171.009 344.827C170.807 344.827 170.643 344.991 170.643 345.194C170.643 345.396 170.807 345.56 171.009 345.56Z" fill="black"/>
</g>
<path opacity="0.1" d="M119.155 356.709H120.046V357.448H116.846V356.295H119.155V356.709Z" fill="black"/>
<path opacity="0.1" d="M119.155 356.295H116.846V363.643H119.155V356.295Z" fill="black"/>
<path opacity="0.1" d="M172.963 356.295H170.654V363.643H172.963V356.295Z" fill="black"/>
<path opacity="0.1" d="M172.963 356.295V357.448H169.757V356.709H170.649V356.295H172.963Z" fill="black"/>
<path d="M177.251 348.989H113.835L115.282 347.215H175.845L177.251 348.989Z" fill="#4F4F4E"/>
<path d="M179.476 351.755L111.442 351.59L113.751 349.154H177.498L179.476 351.755Z" fill="#4F4F4E"/>
<path d="M181.62 354.356H109.01L111.236 351.838L179.642 351.921L181.62 354.356Z" fill="#4F4F4E"/>
<path d="M120.047 356.709V361.905L119.155 363.643L118.86 357.448L118.824 356.709H120.047Z" fill="#4F4F4E"/>
<path d="M170.979 356.709L170.944 357.448L170.649 363.643L169.757 361.905V356.709H170.979Z" fill="#4F4F4E"/>
<path d="M119.155 356.295H116.846V363.643H119.155V356.295Z" fill="#4F4F4E"/>
<path d="M172.963 356.295H170.654V363.643H172.963V356.295Z" fill="#4F4F4E"/>
<path d="M175.845 355.468H113.835V357.283H175.845V355.468Z" fill="#4F4F4E"/>
<path opacity="0.1" d="M175.845 355.468H113.835V357.283H175.845V355.468Z" fill="black"/>
<path d="M114.578 355.136H111.938V371.109H114.578V355.136Z" fill="#4F4F4E"/>
<path d="M175.023 371.109H177.663V355.137H175.023V371.109Z" fill="#4F4F4E"/>
<path opacity="0.1" d="M114.578 355.136H111.938V371.109H114.578V355.136Z" fill="black"/>
<path opacity="0.1" d="M175.023 371.109H177.663V355.137H175.023V371.109Z" fill="black"/>
<path opacity="0.1" d="M175.845 355.468H113.835V355.633H175.845V355.468Z" fill="black"/>
<path opacity="0.1" d="M113.102 356.827C113.305 356.827 113.469 356.663 113.469 356.461C113.469 356.258 113.305 356.094 113.102 356.094C112.9 356.094 112.736 356.258 112.736 356.461C112.736 356.663 112.9 356.827 113.102 356.827Z" fill="black"/>
<path opacity="0.1" d="M176.559 356.774C176.762 356.774 176.926 356.61 176.926 356.408C176.926 356.205 176.762 356.041 176.559 356.041C176.357 356.041 176.193 356.205 176.193 356.408C176.193 356.61 176.357 356.774 176.559 356.774Z" fill="black"/>
<path d="M109.606 353.682L109.01 354.356V354.912H181.62V354.356L181.077 353.682H109.606Z" fill="#4F4F4E"/>
<path d="M181.614 354.356H109.01V355.474H181.614V354.356Z" fill="#4F4F4E"/>
<path d="M527.268 374.987C527.268 374.987 525.667 358.435 516.101 349.609C512.069 345.938 509.334 341.058 508.306 335.7C507.839 333.153 507.605 330.569 507.609 327.98" stroke="#4F4F4E" stroke-width="2" stroke-miterlimit="10"/>
<path d="M501.616 323.304C502.348 325.119 507.751 329.061 507.751 329.061C507.751 329.061 508.933 322.47 508.183 320.656C507.805 319.824 507.121 319.17 506.273 318.83C505.426 318.491 504.48 318.492 503.633 318.834C502.786 319.175 502.104 319.831 501.728 320.663C501.352 321.496 501.312 322.442 501.616 323.304Z" fill="#4F4F4E"/>
<path d="M500.24 334.642C501.84 335.765 508.507 336.131 508.507 336.131C508.507 336.131 505.909 329.972 504.315 328.849C503.546 328.362 502.62 328.19 501.728 328.367C500.836 328.545 500.047 329.06 499.523 329.804C498.999 330.548 498.782 331.466 498.915 332.366C499.049 333.267 499.523 334.082 500.24 334.642Z" fill="#4F4F4E"/>
<path d="M507.391 351.708C509.34 351.873 515.287 348.817 515.287 348.817C515.287 348.817 509.931 344.815 507.988 344.65C507.511 344.583 507.025 344.615 506.561 344.742C506.096 344.87 505.662 345.091 505.286 345.392C504.91 345.693 504.599 346.068 504.372 346.493C504.145 346.919 504.008 347.386 503.967 347.867C503.927 348.347 503.985 348.831 504.138 349.288C504.291 349.745 504.535 350.167 504.856 350.526C505.178 350.886 505.568 351.176 506.005 351.379C506.442 351.582 506.916 351.694 507.397 351.708H507.391Z" fill="#4F4F4E"/>
<path d="M515.712 363.412C517.602 363.903 523.979 361.899 523.979 361.899C523.979 361.899 519.379 357.046 517.484 356.579C517.025 356.433 516.541 356.381 516.061 356.429C515.582 356.476 515.117 356.621 514.695 356.854C514.273 357.087 513.904 357.404 513.608 357.785C513.313 358.166 513.099 358.603 512.978 359.07C512.857 359.537 512.833 360.024 512.907 360.501C512.981 360.977 513.15 361.434 513.406 361.842C513.662 362.251 513.999 362.603 514.395 362.877C514.792 363.151 515.24 363.341 515.712 363.436V363.412Z" fill="#4F4F4E"/>
<path d="M515.54 333.696C514.749 335.469 509.222 339.235 509.222 339.235C509.222 339.235 508.283 332.614 509.074 330.823C509.244 330.371 509.504 329.958 509.839 329.611C510.174 329.263 510.576 328.988 511.022 328.801C511.467 328.615 511.945 328.521 512.427 328.526C512.91 328.531 513.386 328.635 513.827 328.831C514.268 329.027 514.665 329.311 514.992 329.666C515.319 330.02 515.571 330.438 515.731 330.894C515.892 331.349 515.958 331.833 515.925 332.315C515.892 332.796 515.761 333.266 515.54 333.696Z" fill="#4F4F4E"/>
<path d="M525.101 347.505C523.807 348.977 517.424 350.898 517.424 350.898C517.424 350.898 518.504 344.301 519.786 342.829C520.42 342.182 521.279 341.802 522.184 341.769C523.09 341.735 523.974 342.05 524.654 342.649C525.335 343.248 525.76 344.085 525.843 344.988C525.926 345.891 525.661 346.792 525.101 347.505Z" fill="#4F4F4E"/>
<path d="M532.548 362.206C531.526 363.873 525.544 366.853 525.544 366.853C525.544 366.853 525.491 360.161 526.519 358.494C526.75 358.074 527.065 357.705 527.443 357.411C527.821 357.116 528.255 356.901 528.718 356.778C529.182 356.656 529.665 356.63 530.139 356.7C530.614 356.77 531.069 356.936 531.477 357.187C531.885 357.439 532.238 357.77 532.515 358.162C532.791 358.554 532.985 358.998 533.085 359.467C533.186 359.937 533.19 360.421 533.097 360.892C533.005 361.363 532.818 361.81 532.548 362.206Z" fill="#4F4F4E"/>
<path d="M164.925 239.351C164.925 239.351 175.98 238.688 174.675 246.444C174.742 246.838 174.684 247.243 174.508 247.602C174.332 247.961 174.047 248.255 173.695 248.442C173.695 248.442 173.695 247.851 172.561 248.058C172.171 248.124 171.774 248.144 171.38 248.117C170.838 248.086 170.322 247.879 169.909 247.526C169.909 247.526 166.803 246.243 165.593 241.159C165.593 241.159 164.701 240.048 164.736 239.764L166.602 240.562C166.245 241.336 166.194 242.217 166.461 243.027C166.461 243.027 166.526 240.61 166.88 240.663C166.957 240.663 167.854 241.13 167.854 241.13C167.854 241.13 166.756 243.494 167.583 245.179C167.583 245.179 167.27 242.288 168.173 241.301L169.484 242.064C169.484 242.064 168.203 244.493 169.071 246.468C169.071 246.468 168.846 243.435 169.762 242.253L170.943 243.181C170.943 243.181 169.762 245.546 170.476 247.213C170.476 247.213 170.571 243.666 171.203 243.412C171.647 243.796 172.043 244.233 172.384 244.712C172.384 244.712 171.557 246.444 172.071 247.36C172.071 247.36 172.384 244.996 172.661 244.996C173.2 245.796 173.588 246.687 173.807 247.626C173.754 246.638 173.445 245.68 172.909 244.848C173.507 244.961 174.06 245.247 174.498 245.67C174.498 245.67 174.338 244.57 172.655 244.488C172.343 244.029 171.978 243.608 171.569 243.234C172.476 243.156 173.39 243.262 174.256 243.548C174.256 243.548 173.364 242.507 171.262 242.956L170.081 241.993C170.081 241.993 172.283 241.691 173.222 242.028C173.222 242.028 172.141 241.106 169.768 241.774L168.486 241.012C169.47 240.794 170.479 240.706 171.486 240.752C171.486 240.752 170.305 240.113 168.108 240.805L167.193 240.391C167.193 240.391 168.575 240.125 168.964 240.078C169.354 240.03 169.39 239.924 169.39 239.924C168.517 239.781 167.622 239.881 166.803 240.214C166.803 240.214 164.89 239.469 164.925 239.351Z" fill="#4F4F4E"/>
<path d="M227.444 217.184C227.444 217.184 238.498 216.516 237.193 224.278C237.261 224.671 237.202 225.075 237.026 225.433C236.85 225.791 236.565 226.084 236.213 226.27C236.213 226.27 236.213 225.679 235.079 225.892C234.689 225.953 234.293 225.971 233.898 225.945C233.359 225.912 232.845 225.704 232.434 225.354C232.434 225.354 229.322 224.065 228.117 218.981C228.117 218.981 227.219 217.87 227.255 217.586L229.121 218.384C228.763 219.158 228.715 220.04 228.985 220.849C228.985 220.849 229.044 218.431 229.404 218.485C229.475 218.485 230.373 218.952 230.373 218.952C230.373 218.952 229.28 221.316 230.107 223.007C230.107 223.007 229.794 220.116 230.698 219.123L232.015 219.891C232.015 219.891 230.733 222.315 231.601 224.29C231.601 224.29 231.377 221.257 232.286 220.075L233.467 221.003C233.467 221.003 232.286 223.397 232.995 225.034C232.995 225.034 233.095 221.488 233.727 221.233C234.171 221.618 234.568 222.054 234.908 222.534C234.908 222.534 234.081 224.266 234.595 225.182C234.595 225.182 234.908 222.818 235.186 222.818C235.724 223.617 236.112 224.509 236.331 225.448C236.279 224.46 235.969 223.502 235.434 222.67C236.032 222.783 236.584 223.068 237.022 223.492C237.022 223.492 236.863 222.392 235.18 222.309C234.867 221.851 234.503 221.43 234.093 221.056C235.001 220.981 235.914 221.087 236.78 221.369C236.78 221.369 235.888 220.329 233.786 220.778L232.605 219.815C232.605 219.815 234.808 219.513 235.741 219.85C235.741 219.85 234.666 218.928 232.286 219.602L231.011 218.833C231.993 218.616 232.999 218.528 234.005 218.573C234.005 218.573 232.824 217.935 230.633 218.626L229.717 218.219C229.717 218.219 231.093 217.947 231.489 217.905C231.885 217.864 231.914 217.752 231.914 217.752C231.042 217.604 230.147 217.703 229.328 218.035C228.676 217.807 228.046 217.522 227.444 217.184Z" fill="#4F4F4E"/>
<path d="M252.697 203.507C252.697 203.507 259.291 194.609 264.398 200.598C264.742 200.799 265.014 201.104 265.175 201.469C265.336 201.834 265.377 202.24 265.293 202.629C265.293 202.629 264.841 202.249 264.275 203.255C264.071 203.593 263.83 203.908 263.556 204.194C263.185 204.586 262.695 204.846 262.162 204.936C262.162 204.936 259.175 206.491 254.506 204.146C254.506 204.146 253.078 204.119 252.883 203.91L254.694 202.993C255.057 203.765 255.701 204.369 256.495 204.682C256.495 204.682 254.681 203.083 254.953 202.841C254.999 202.787 255.933 202.399 255.933 202.399C255.933 202.399 257.042 204.756 258.869 205.209C258.869 205.209 256.453 203.591 256.273 202.261L257.709 201.746C257.709 201.746 258.742 204.285 260.812 204.889C260.812 204.889 258.345 203.112 258.024 201.655L259.494 201.347C259.494 201.347 260.569 203.791 262.278 204.301C262.278 204.301 259.626 201.944 259.837 201.296C260.417 201.203 261.007 201.18 261.593 201.228C261.593 201.228 262.388 202.974 263.42 203.17C263.42 203.17 261.81 201.41 261.988 201.197C262.947 201.299 263.88 201.574 264.74 202.011C263.949 201.416 263.016 201.037 262.035 200.912C262.506 200.527 263.079 200.287 263.685 200.224C263.685 200.224 262.74 199.639 261.595 200.875C261.043 200.82 260.487 200.829 259.937 200.902C260.463 200.159 261.131 199.527 261.904 199.045C261.904 199.045 260.534 199.059 259.527 200.959L258.029 201.244C258.029 201.244 259.214 199.363 260.072 198.865C260.072 198.865 258.675 199.095 257.661 201.352L256.253 201.835C256.717 200.942 257.297 200.115 257.978 199.374C257.978 199.374 256.73 199.868 255.851 201.991L254.95 202.43C254.95 202.43 255.627 201.201 255.849 200.872C256.072 200.542 256.005 200.447 256.005 200.447C255.332 201.02 254.831 201.77 254.56 202.611C253.966 202.963 253.343 203.263 252.697 203.507Z" fill="#4F4F4E"/>
<path d="M202.397 257.098C202.397 257.098 199.82 246.327 207.69 246.264C208.066 246.13 208.474 246.117 208.857 246.229C209.24 246.34 209.578 246.569 209.822 246.884C209.822 246.884 209.24 246.986 209.646 248.066C209.775 248.44 209.861 248.827 209.904 249.22C209.965 249.757 209.85 250.299 209.576 250.765C209.576 250.765 208.847 254.053 204.05 256.122C204.05 256.122 203.111 257.199 202.826 257.214L203.288 255.238C204.112 255.455 204.989 255.35 205.739 254.943C205.739 254.943 203.348 255.305 203.338 254.941C203.325 254.871 203.629 253.906 203.629 253.906C203.629 253.906 206.148 254.571 207.669 253.464C207.669 253.464 204.877 254.274 203.742 253.556L204.27 252.126C204.27 252.126 206.879 252.967 208.673 251.77C208.673 251.77 205.725 252.517 204.403 251.827L205.112 250.503C205.112 250.503 207.675 251.25 209.164 250.268C209.164 250.268 205.654 250.785 205.294 250.207C205.595 249.702 205.957 249.236 206.37 248.818C206.37 248.818 208.219 249.331 209.032 248.666C209.032 248.666 206.649 248.768 206.601 248.495C207.295 247.826 208.105 247.289 208.992 246.91C208.028 247.134 207.139 247.605 206.412 248.277C206.419 247.668 206.605 247.074 206.946 246.57C206.946 246.57 205.89 246.917 206.101 248.589C205.704 248.977 205.353 249.409 205.056 249.877C204.824 248.996 204.77 248.078 204.898 247.176C204.898 247.176 204.028 248.235 204.835 250.228L204.092 251.558C204.092 251.558 203.412 249.441 203.582 248.464C203.582 248.464 202.86 249.682 203.937 251.909L203.402 253.299C203.017 252.369 202.756 251.393 202.626 250.395C202.626 250.395 202.202 251.669 203.264 253.707L203.021 254.679C203.021 254.679 202.514 253.371 202.405 252.989C202.296 252.606 202.18 252.597 202.18 252.597C202.186 253.481 202.439 254.346 202.908 255.095C202.797 255.776 202.626 256.446 202.397 257.098Z" fill="#4F4F4E"/>
<path d="M200.697 209.819C200.697 209.819 195.748 219.726 189.679 214.715C189.305 214.577 188.984 214.324 188.762 213.993C188.541 213.661 188.429 213.269 188.444 212.87C188.444 212.87 188.956 213.166 189.339 212.078C189.481 211.709 189.663 211.357 189.883 211.028C190.181 210.578 190.618 210.236 191.127 210.056C191.127 210.056 193.799 208.005 198.804 209.503C198.804 209.503 200.216 209.282 200.444 209.454L198.819 210.671C198.328 209.975 197.588 209.492 196.753 209.321C196.753 209.321 198.817 210.581 198.591 210.867C198.555 210.928 197.702 211.472 197.702 211.472C197.702 211.472 196.2 209.343 194.323 209.214C194.323 209.214 196.983 210.388 197.391 211.667L196.067 212.424C196.067 212.424 194.609 210.102 192.465 209.867C192.465 209.867 195.204 211.188 195.773 212.567L194.378 213.126C194.378 213.126 192.896 210.906 191.123 210.701C191.123 210.701 194.145 212.561 194.049 213.236C193.494 213.428 192.917 213.553 192.332 213.608C192.332 213.608 191.245 212.026 190.195 212.013C190.195 212.013 192.086 213.466 191.948 213.707C190.986 213.773 190.02 213.664 189.097 213.384C189.979 213.832 190.963 214.043 191.952 213.995C191.555 214.457 191.031 214.793 190.446 214.96C190.446 214.96 191.478 215.372 192.391 213.956C192.944 213.914 193.491 213.809 194.019 213.641C193.631 214.465 193.082 215.203 192.405 215.812C192.405 215.812 193.751 215.56 194.414 213.514L195.839 212.973C195.839 212.973 194.998 215.032 194.24 215.671C194.24 215.671 195.576 215.201 196.182 212.804L197.486 212.083C197.183 213.043 196.755 213.958 196.214 214.806C196.214 214.806 197.357 214.102 197.854 211.859L198.665 211.271C198.665 211.271 198.212 212.598 198.05 212.961C197.888 213.325 197.971 213.407 197.971 213.407C198.534 212.725 198.897 211.901 199.018 211.025C199.542 210.575 200.103 210.171 200.697 209.819Z" fill="#4F4F4E"/>
<path d="M254.336 130.747C254.336 130.747 265.397 130.079 264.092 137.841C264.159 138.234 264.1 138.638 263.924 138.996C263.748 139.354 263.464 139.647 263.111 139.833C263.111 139.833 263.112 139.242 261.978 139.455C261.587 139.516 261.191 139.534 260.797 139.508C260.256 139.475 259.74 139.267 259.326 138.917C259.326 138.917 256.22 137.628 255.016 132.544C255.016 132.544 254.118 131.439 254.153 131.149L256.019 131.947C255.662 132.723 255.613 133.607 255.884 134.418C255.884 134.418 255.943 132 256.303 132.053C256.374 132.053 257.271 132.52 257.271 132.52C257.271 132.52 256.173 134.885 257.006 136.576C257.006 136.576 256.687 133.685 257.596 132.692L258.913 133.46C258.913 133.46 257.632 135.884 258.5 137.858C258.5 137.858 258.275 134.826 259.185 133.644L260.366 134.578C260.366 134.578 259.185 136.942 259.893 138.603C259.893 138.603 259.994 135.056 260.625 134.808C261.07 135.19 261.467 135.625 261.806 136.103C261.806 136.103 260.98 137.835 261.493 138.751C261.493 138.751 261.806 136.387 262.084 136.387C262.625 137.185 263.014 138.077 263.23 139.017C263.181 138.029 262.873 137.071 262.338 136.239C262.936 136.352 263.488 136.637 263.926 137.06C263.926 137.06 263.767 135.961 262.084 135.878C261.768 135.42 261.404 134.998 260.997 134.619C261.905 134.544 262.818 134.65 263.684 134.932C263.684 134.932 262.793 133.892 260.69 134.341L259.509 133.384C259.509 133.384 261.712 133.076 262.645 133.413C262.645 133.413 261.57 132.491 259.19 133.165L257.909 132.396C258.894 132.182 259.902 132.094 260.909 132.136C260.909 132.136 259.728 131.498 257.537 132.189L256.622 131.782C256.622 131.782 257.998 131.51 258.393 131.468C258.789 131.427 258.818 131.315 258.818 131.315C257.947 131.167 257.051 131.266 256.232 131.598C255.577 131.369 254.943 131.085 254.336 130.747Z" fill="#4F4F4E"/>
<path d="M286.525 105.63C286.525 105.63 297.579 104.962 296.28 112.723C296.346 113.117 296.286 113.521 296.109 113.879C295.932 114.237 295.647 114.529 295.294 114.715C295.294 114.715 295.294 114.124 294.16 114.337C293.77 114.404 293.374 114.423 292.979 114.396C292.438 114.363 291.923 114.156 291.509 113.805C291.509 113.805 288.403 112.522 287.192 107.439C287.192 107.439 286.301 106.327 286.336 106.043L288.161 106.818C287.803 107.592 287.755 108.474 288.025 109.283C288.025 109.283 288.084 106.865 288.444 106.918C288.515 106.918 289.413 107.385 289.413 107.385C289.413 107.385 288.314 109.75 289.141 111.435C289.141 111.435 288.828 108.544 289.731 107.551L291.042 108.319C291.042 108.319 289.761 110.743 290.629 112.723C290.629 112.723 290.411 109.691 291.32 108.508L292.501 109.437C292.501 109.437 291.32 111.801 292.029 113.468C292.029 113.468 292.123 109.921 292.755 109.667C293.201 110.048 293.598 110.483 293.936 110.962C293.936 110.962 293.115 112.7 293.623 113.616C293.623 113.616 293.942 111.251 294.213 111.251C294.755 112.047 295.144 112.937 295.359 113.876C295.31 112.888 295.003 111.93 294.467 111.098C295.067 111.211 295.619 111.499 296.056 111.925C296.056 111.925 295.891 110.82 294.208 110.743C293.895 110.284 293.531 109.864 293.121 109.49C294.03 109.411 294.946 109.516 295.814 109.797C295.814 109.797 294.916 108.757 292.814 109.206L291.704 108.237C291.704 108.237 293.912 107.935 294.845 108.237C294.845 108.237 293.771 107.32 291.391 107.988L290.109 107.22C291.094 107.005 292.102 106.92 293.109 106.966C293.109 106.966 291.928 106.327 289.737 107.019L288.822 106.605C288.822 106.605 290.198 106.333 290.594 106.292C290.989 106.25 291.019 106.138 291.019 106.138C290.147 105.99 289.25 106.091 288.432 106.428C288.432 106.428 286.495 105.754 286.525 105.63Z" fill="#4F4F4E"/>
<path d="M355.881 62.6125C355.881 62.6125 359.808 72.9811 352.019 74.0451C351.664 74.2247 351.261 74.2877 350.868 74.2251C350.474 74.1625 350.111 73.9775 349.829 73.6964C349.829 73.6964 350.372 73.5072 349.829 72.5141C349.647 72.154 349.51 71.7728 349.421 71.3791C349.301 70.8541 349.355 70.3041 349.575 69.8126C349.575 69.8126 349.876 66.4608 354.364 63.7948C354.364 63.7948 355.155 62.6125 355.438 62.5593L355.232 64.581C354.389 64.4673 353.534 64.6786 352.84 65.1722C352.84 65.1722 355.167 64.5101 355.202 64.8707C355.202 64.9416 355.049 65.9347 355.049 65.9347C355.049 65.9347 352.486 65.5859 351.104 66.8805C351.104 66.8805 353.767 65.6983 354.99 66.2894L354.647 67.7732C354.647 67.7732 351.954 67.2707 350.325 68.6894C350.325 68.6894 353.153 67.5722 354.547 68.0983L354.015 69.5111C354.015 69.5111 351.382 69.0737 350.035 70.2618C350.035 70.2618 353.431 69.3042 353.874 69.8303C353.643 70.3744 353.348 70.8885 352.994 71.3614C352.994 71.3614 351.092 71.0894 350.372 71.8461C350.372 71.8461 352.734 71.45 352.799 71.6924C352.198 72.4452 351.463 73.0805 350.632 73.5663C351.551 73.2214 352.365 72.6428 352.994 71.8875C353.063 72.4971 352.952 73.1138 352.675 73.6609C352.675 73.6609 353.679 73.1821 353.265 71.5446C353.61 71.1091 353.904 70.635 354.139 70.1318C354.483 70.9759 354.654 71.8805 354.641 72.7919C354.641 72.7919 355.368 71.6096 354.293 69.7594L354.883 68.3525C354.883 68.3525 355.828 70.3682 355.787 71.3614C355.787 71.3614 356.342 70.0609 354.996 67.986L355.35 66.5377C355.848 67.4119 356.23 68.348 356.484 69.3219C356.484 69.3219 356.744 68.0037 355.433 66.118L355.551 65.119C355.551 65.119 356.218 66.3544 356.383 66.7268C356.549 67.0993 356.655 67.0874 356.655 67.0874C356.531 66.2179 356.169 65.3996 355.61 64.7229C355.637 64.0127 355.728 63.3064 355.881 62.6125Z" fill="#4F4F4E"/>
<path d="M204.626 276.39C204.626 276.39 211.464 285.116 204.349 288.45C204.064 288.729 203.698 288.911 203.303 288.969C202.909 289.028 202.506 288.96 202.152 288.775C202.152 288.775 202.613 288.432 201.821 287.628C201.542 287.337 201.296 287.016 201.089 286.67C200.811 286.202 200.693 285.657 200.752 285.116C200.752 285.116 200.044 281.829 203.534 277.939C203.534 277.939 203.935 276.574 204.189 276.438L204.597 278.43C203.756 278.576 203.003 279.037 202.489 279.718C202.489 279.718 204.514 278.394 204.668 278.725C204.703 278.79 204.839 279.789 204.839 279.789C204.839 279.789 202.282 280.221 201.355 281.87C201.355 281.87 203.552 279.967 204.898 280.168L205.016 281.681C205.016 281.681 202.294 282.006 201.16 283.845C201.16 283.845 203.522 281.935 205.016 282.018L204.933 283.525C204.933 283.525 202.282 283.892 201.355 285.429C201.355 285.429 204.307 283.502 204.898 283.868C204.843 284.457 204.714 285.037 204.514 285.594C204.514 285.594 202.624 285.902 202.152 286.842C202.152 286.842 204.26 285.766 204.414 285.973C204.065 286.87 203.555 287.696 202.908 288.408C203.69 287.803 204.301 287.005 204.679 286.091C204.924 286.648 205.002 287.264 204.904 287.864C204.904 287.864 205.719 287.102 204.839 285.659C205.038 285.141 205.176 284.602 205.252 284.052C205.83 284.747 206.263 285.551 206.528 286.416C206.528 286.416 206.87 285.086 205.288 283.626L205.412 282.113C205.412 282.113 206.912 283.756 207.183 284.714C207.183 284.714 207.331 283.307 205.412 281.758L205.311 280.268C206.048 280.957 206.693 281.738 207.23 282.591C207.23 282.591 207.083 281.255 205.264 279.843L205.087 278.855C205.087 278.855 206.091 279.837 206.351 280.144C206.61 280.451 206.723 280.404 206.723 280.404C206.346 279.604 205.755 278.925 205.016 278.442C205.016 278.442 204.508 276.426 204.626 276.39Z" fill="#4F4F4E"/>
<path d="M241.626 251.39C241.626 251.39 248.464 260.116 241.349 263.45C241.064 263.729 240.698 263.911 240.303 263.969C239.909 264.028 239.506 263.96 239.152 263.775C239.152 263.775 239.613 263.432 238.821 262.628C238.542 262.337 238.296 262.016 238.089 261.67C237.811 261.202 237.693 260.657 237.752 260.116C237.752 260.116 237.044 256.829 240.534 252.939C240.534 252.939 240.935 251.574 241.189 251.438L241.597 253.43C240.756 253.576 240.003 254.037 239.489 254.718C239.489 254.718 241.514 253.394 241.668 253.725C241.703 253.79 241.839 254.789 241.839 254.789C241.839 254.789 239.282 255.221 238.355 256.87C238.355 256.87 240.552 254.967 241.898 255.168L242.016 256.681C242.016 256.681 239.294 257.006 238.16 258.845C238.16 258.845 240.522 256.935 242.016 257.018L241.933 258.525C241.933 258.525 239.282 258.892 238.355 260.429C238.355 260.429 241.307 258.502 241.898 258.868C241.843 259.457 241.714 260.037 241.514 260.594C241.514 260.594 239.624 260.902 239.152 261.842C239.152 261.842 241.26 260.766 241.414 260.973C241.065 261.87 240.555 262.696 239.908 263.408C240.69 262.803 241.301 262.005 241.679 261.091C241.924 261.648 242.002 262.264 241.904 262.864C241.904 262.864 242.719 262.102 241.839 260.659C242.038 260.141 242.176 259.602 242.252 259.052C242.83 259.747 243.263 260.551 243.528 261.416C243.528 261.416 243.87 260.086 242.288 258.626L242.412 257.113C242.412 257.113 243.912 258.756 244.183 259.714C244.183 259.714 244.331 258.307 242.412 256.758L242.311 255.268C243.048 255.957 243.693 256.738 244.23 257.591C244.23 257.591 244.083 256.255 242.264 254.843L242.087 253.855C242.087 253.855 243.091 254.837 243.351 255.144C243.61 255.451 243.723 255.404 243.723 255.404C243.346 254.604 242.755 253.925 242.016 253.442C242.016 253.442 241.508 251.426 241.626 251.39Z" fill="#4F4F4E"/>
<path d="M460.758 354.327C461.776 353.497 462.519 352.378 462.89 351.117C463.161 349.834 462.618 348.303 461.402 347.842C460.032 347.316 458.573 348.262 457.469 349.219C456.364 350.177 455.107 351.27 453.642 351.069C454.383 350.391 454.935 349.531 455.246 348.575C455.556 347.619 455.614 346.598 455.414 345.613C455.352 345.205 455.178 344.823 454.912 344.508C454.156 343.698 452.78 344.047 451.876 344.685C448.989 346.719 448.18 350.644 448.168 354.179C447.873 352.902 448.121 351.572 448.115 350.266C448.109 348.959 447.749 347.511 446.644 346.807C445.958 346.436 445.186 346.255 444.406 346.281C443.107 346.234 441.666 346.364 440.781 347.316C439.676 348.498 439.96 350.472 440.922 351.773C441.885 353.073 443.338 353.889 444.678 354.788C445.752 355.431 446.67 356.305 447.365 357.347C447.444 357.495 447.509 357.649 447.56 357.808H455.697C457.535 356.884 459.237 355.713 460.758 354.327Z" fill="#4F4F4E"/>
<path d="M111.938 313.952C111.938 313.952 114.454 313.733 115.287 314.437C115.287 314.437 112.44 315.176 112.145 315.767C112.145 315.767 112.204 315.826 112.44 315.767C112.677 315.708 114.177 315.389 114.495 315.767L114.602 315.95L114.714 316.021L114.879 316.134C114.981 316.201 115.059 316.298 115.104 316.411C115.157 316.577 115.287 316.411 115.287 316.411C115.287 316.411 115.476 316.801 115.417 316.908C115.358 317.014 115.6 317.28 115.6 317.28V318.463L115.694 318.374C115.72 319.119 115.903 319.851 116.232 320.52C116.232 320.52 117.359 323.387 117.749 323.605H117.985C117.985 323.605 119.686 325.864 121.316 326.342C122.946 326.821 123.034 327.324 123.034 327.324L120.997 329.582C120.611 329.612 120.228 329.673 119.851 329.765C120.557 329.841 121.268 329.867 121.977 329.842L123.548 327.767C123.748 327.813 123.933 327.909 124.085 328.045C124.184 328.075 124.277 328.118 124.363 328.175C124.493 328.27 124.587 328.175 124.694 328.216C124.8 328.258 123.861 329.842 123.861 329.842H122.816L123.684 330.155C123.979 330.268 124.587 329.895 124.587 329.895L125.42 328.382L125.757 328.677V328.471C125.757 328.471 126.105 328.677 126.253 328.642C126.4 328.606 126.07 328.4 126.07 328.4C126.234 328.428 126.402 328.428 126.566 328.4C126.66 328.346 126.477 328.045 126.477 328.045V327.826C126.477 327.826 125.928 327.826 125.999 327.714C126.07 327.602 126.27 327.548 126.619 327.714C126.967 327.879 129.105 328.807 129.92 328.471C130.449 328.881 131.019 329.235 131.62 329.529C132.022 329.623 132.489 330.321 132.489 330.321C132.489 330.321 134.207 332.094 135.223 331.657C135.029 331.35 134.875 331.02 134.762 330.675C134.703 330.362 133.445 329.345 133.445 329.345C133.445 329.345 136.108 329.972 136.108 329.789C136.108 329.789 137.437 330.545 137.514 330.545C137.591 330.545 137.514 330.084 136.793 329.546L137.797 329.694C137.779 329.46 137.691 329.236 137.545 329.051C137.398 328.867 137.201 328.731 136.976 328.66C136.734 328.323 136.419 328.044 136.055 327.844L131.892 325.533C131.892 325.533 132.3 325.326 131.839 324.735C131.967 324.691 132.097 324.656 132.229 324.628C132.465 324.569 130.363 322.796 130.304 322.802C130.032 322.611 129.806 322.363 129.642 322.074C129.565 321.85 127.664 320.738 127.664 320.738C127.664 320.738 126.022 320.626 124.894 318.374C123.767 316.122 121.086 315.873 121.086 315.873C121.086 315.873 120.123 311.103 115.576 312.918C115.529 312.953 112.417 313.119 111.938 313.952Z" fill="#4F4F4E"/>
<path opacity="0.1" d="M382.644 341.529C382.183 341.529 379.573 341.529 379.573 341.529L379.467 341.405C380.134 341.174 381.575 340.831 382.644 341.529Z" fill="black"/>
<path opacity="0.1" d="M390.108 341.529C389.647 341.529 387.037 341.529 387.037 341.529L386.931 341.405C387.598 341.174 389.039 340.831 390.108 341.529Z" fill="black"/>
<path d="M76.3415 275.5H86.5C99.2025 275.5 109.5 285.797 109.5 298.5V302.038L109.02 306.448C108.664 309.726 104.298 310.596 102.713 307.704C100.817 304.245 97.2471 302.032 93.3057 301.874L75.8265 301.173C68.9402 300.896 63.5 295.233 63.5 288.342C63.5 281.249 69.2493 275.5 76.3415 275.5Z" fill="white" stroke="#4F4F4E" stroke-width="3"/>
<path d="M75.5068 289.643H74.3027L73.5908 293.695H72L73.6523 284.185H75.2432L74.54 288.211H75.5068L79.3037 284.185H81.3516L76.834 288.835L79.8838 293.695H78.0029L75.5068 289.643ZM87.2051 293.695C87.1641 293.525 87.1436 293.358 87.1436 293.194L87.17 292.693C86.2969 293.502 85.3711 293.894 84.3926 293.871C83.5547 293.859 82.8721 293.596 82.3448 293.08C81.8233 292.558 81.586 291.908 81.6329 291.129C81.6915 290.121 82.1309 289.336 82.9512 288.773C83.7774 288.205 84.8614 287.921 86.2032 287.921L87.8643 287.93L87.9698 287.174C88.0284 286.605 87.917 286.157 87.6358 285.829C87.3604 285.495 86.9444 285.322 86.3877 285.31C85.8428 285.299 85.3594 285.433 84.9375 285.715C84.5215 285.99 84.2666 286.356 84.1729 286.813L82.5733 286.822C82.626 286.265 82.8428 285.773 83.2237 285.346C83.6045 284.912 84.0938 284.578 84.6915 284.344C85.2891 284.103 85.9073 283.989 86.5459 284.001C87.5362 284.024 88.3067 284.326 88.8575 284.906C89.4082 285.48 89.6397 286.245 89.5518 287.2L88.7784 291.911L88.7344 292.588C88.7227 292.91 88.7579 293.229 88.8399 293.546L88.8223 293.695H87.2051ZM84.709 292.465C85.2188 292.476 85.6993 292.356 86.1504 292.104C86.6075 291.847 87 291.492 87.3282 291.041L87.6709 289.081L86.4668 289.072C85.4649 289.072 84.6973 289.23 84.1641 289.547C83.6309 289.863 83.3291 290.311 83.2588 290.891C83.2061 291.337 83.3086 291.709 83.5665 292.008C83.8301 292.301 84.211 292.453 84.709 292.465ZM99.5977 288.984C99.4805 289.951 99.2198 290.821 98.8155 291.595C98.4112 292.368 97.9102 292.948 97.3125 293.335C96.7149 293.716 96.0528 293.897 95.3262 293.88C94.2247 293.856 93.3809 293.484 92.795 292.764L91.9424 297.351H90.3516L92.6368 284.185L94.0782 284.177L93.9024 285.24C94.6875 284.396 95.628 283.986 96.7237 284.01C97.6377 284.033 98.3497 284.37 98.8594 285.02C99.3692 285.671 99.6387 286.567 99.668 287.71C99.6739 288.085 99.6592 288.448 99.6241 288.8L99.5977 288.984ZM98.0332 288.8L98.0772 288.061C98.0772 287.206 97.9131 286.553 97.585 286.101C97.2627 285.644 96.794 285.404 96.1788 285.381C95.2588 285.357 94.4649 285.794 93.7969 286.69L92.9971 291.252C93.3545 292.096 93.9961 292.529 94.9219 292.553C95.7129 292.57 96.3838 292.263 96.9346 291.63C97.4913 290.991 97.8575 290.048 98.0332 288.8Z" fill="#4F4F4E"/>
<path d="M609.5 389.5H102.5V468.5H609.5V389.5Z" fill="white" stroke="#4F4F4E" stroke-width="5"/>
<path d="M170.018 443H163.504V433.656H155.44V443H148.949V418.697H155.44V428.445H163.504V418.697H170.018V443ZM199.127 431.612H186.481V426.379H199.127V431.612ZM236.861 443H230.348V433.656H222.284V443H215.793V418.697H222.284V428.445H230.348V418.697H236.861V443ZM253.078 443.449C249.514 443.449 246.609 442.356 244.363 440.17C242.132 437.984 241.017 435.071 241.017 431.433V430.804C241.017 428.363 241.488 426.184 242.432 424.268C243.375 422.336 244.708 420.854 246.43 419.82C248.167 418.772 250.143 418.248 252.359 418.248C255.684 418.248 258.297 419.296 260.198 421.393C262.115 423.489 263.073 426.461 263.073 430.31V432.96H247.598C247.807 434.547 248.436 435.82 249.484 436.778C250.548 437.737 251.888 438.216 253.505 438.216C256.006 438.216 257.96 437.31 259.367 435.498L262.557 439.069C261.583 440.447 260.266 441.525 258.604 442.304C256.941 443.067 255.1 443.449 253.078 443.449ZM252.337 423.504C251.049 423.504 250.001 423.938 249.192 424.807C248.399 425.675 247.89 426.918 247.665 428.535H256.694V428.019C256.664 426.581 256.275 425.473 255.526 424.694C254.778 423.901 253.715 423.504 252.337 423.504ZM287.915 443H281.401V423.953H273.271V443H266.779V418.697H287.915V443ZM314.756 431.073C314.756 434.817 313.902 437.819 312.195 440.08C310.503 442.326 308.212 443.449 305.322 443.449C302.867 443.449 300.882 442.596 299.37 440.889V452.344H292.879V418.697H298.898L299.123 421.078C300.695 419.191 302.747 418.248 305.277 418.248C308.272 418.248 310.601 419.356 312.263 421.572C313.925 423.788 314.756 426.843 314.756 430.736V431.073ZM308.265 430.602C308.265 428.341 307.86 426.596 307.052 425.368C306.258 424.14 305.098 423.526 303.57 423.526C301.534 423.526 300.134 424.305 299.37 425.862V435.813C300.164 437.415 301.579 438.216 303.615 438.216C306.715 438.216 308.265 435.678 308.265 430.602ZM333.443 418.697H339.935V443H333.443V427.996L325.312 443H318.799V418.697H325.312V433.679L333.443 418.697ZM355.006 438.216C356.204 438.216 357.177 437.886 357.926 437.228C358.674 436.569 359.064 435.693 359.094 434.6H365.181C365.166 436.247 364.716 437.759 363.833 439.137C362.95 440.499 361.737 441.563 360.194 442.326C358.667 443.075 356.975 443.449 355.118 443.449C351.644 443.449 348.904 442.349 346.897 440.148C344.891 437.931 343.888 434.877 343.888 430.983V430.557C343.888 426.813 344.883 423.826 346.875 421.595C348.867 419.364 351.599 418.248 355.073 418.248C358.113 418.248 360.546 419.117 362.373 420.854C364.215 422.576 365.151 424.874 365.181 427.749H359.094C359.064 426.491 358.674 425.473 357.926 424.694C357.177 423.901 356.189 423.504 354.961 423.504C353.449 423.504 352.303 424.058 351.524 425.166C350.761 426.259 350.379 428.041 350.379 430.512V431.186C350.379 433.686 350.761 435.483 351.524 436.576C352.288 437.669 353.449 438.216 355.006 438.216ZM389.057 423.908H381.263V443H374.749V423.908H367.09V418.697H389.057V423.908ZM401.68 433.814L406.172 418.697H413.135L403.364 446.773L402.825 448.054C401.373 451.228 398.977 452.815 395.638 452.815C394.694 452.815 393.736 452.673 392.763 452.389V447.47L393.751 447.492C394.979 447.492 395.892 447.305 396.491 446.931C397.105 446.556 397.584 445.935 397.929 445.066L398.692 443.067L390.18 418.697H397.165L401.68 433.814ZM436.831 443H430.317V423.953H422.187V443H415.695V418.697H436.831V443ZM462.863 443H456.35V433.656H448.286V443H441.795V418.697H448.286V428.445H456.35V418.697H462.863V443ZM466.884 430.624C466.884 428.213 467.348 426.065 468.276 424.178C469.205 422.291 470.537 420.831 472.274 419.798C474.026 418.765 476.055 418.248 478.361 418.248C481.641 418.248 484.313 419.251 486.38 421.258C488.461 423.264 489.622 425.99 489.861 429.434L489.906 431.096C489.906 434.824 488.866 437.819 486.784 440.08C484.703 442.326 481.91 443.449 478.406 443.449C474.902 443.449 472.102 442.326 470.006 440.08C467.924 437.834 466.884 434.779 466.884 430.916V430.624ZM473.375 431.096C473.375 433.402 473.809 435.169 474.678 436.397C475.546 437.609 476.789 438.216 478.406 438.216C479.979 438.216 481.206 437.617 482.09 436.419C482.973 435.206 483.415 433.274 483.415 430.624C483.415 428.363 482.973 426.611 482.09 425.368C481.206 424.125 479.964 423.504 478.361 423.504C476.774 423.504 475.546 424.125 474.678 425.368C473.809 426.596 473.375 428.505 473.375 431.096ZM504.012 438.216C505.21 438.216 506.183 437.886 506.932 437.228C507.68 436.569 508.07 435.693 508.1 434.6H514.187C514.172 436.247 513.722 437.759 512.839 439.137C511.955 440.499 510.743 441.563 509.2 442.326C507.673 443.075 505.981 443.449 504.124 443.449C500.65 443.449 497.91 442.349 495.903 440.148C493.897 437.931 492.894 434.877 492.894 430.983V430.557C492.894 426.813 493.889 423.826 495.881 421.595C497.872 419.364 500.605 418.248 504.079 418.248C507.119 418.248 509.552 419.117 511.379 420.854C513.221 422.576 514.157 424.874 514.187 427.749H508.1C508.07 426.491 507.68 425.473 506.932 424.694C506.183 423.901 505.195 423.504 503.967 423.504C502.454 423.504 501.309 424.058 500.53 425.166C499.767 426.259 499.385 428.041 499.385 430.512V431.186C499.385 433.686 499.767 435.483 500.53 436.576C501.294 437.669 502.454 438.216 504.012 438.216ZM538.062 423.908H530.269V443H523.755V423.908H516.096V418.697H538.062V423.908ZM548.282 425.817H552.932C555.028 425.817 556.87 426.169 558.457 426.873C560.044 427.577 561.257 428.588 562.096 429.905C562.949 431.208 563.376 432.728 563.376 434.465C563.376 437.025 562.425 439.092 560.523 440.664C558.637 442.221 556.061 443 552.797 443H541.769V418.697H548.282V425.817ZM548.282 431.028V437.812H552.887C554.174 437.812 555.163 437.512 555.852 436.913C556.54 436.314 556.885 435.498 556.885 434.465C556.885 433.417 556.548 432.586 555.874 431.972C555.2 431.343 554.204 431.028 552.887 431.028H548.282Z" fill="#4F4F4E"/>
</svg>
