<svg width="442" height="450" viewBox="0 0 442 450" fill="none" xmlns="http://www.w3.org/2000/svg">
<path opacity="0.1" d="M110.041 448.198C170.573 448.198 219.644 440.351 219.644 430.672C219.644 420.993 170.573 413.147 110.041 413.147C49.5096 413.147 0.438965 420.993 0.438965 430.672C0.438965 440.351 49.5096 448.198 110.041 448.198Z" fill="#E9378D"/>
<path opacity="0.1" d="M227.483 409.653C259.505 409.653 285.464 405.777 285.464 400.994C285.464 396.212 259.505 392.336 227.483 392.336C195.461 392.336 169.502 396.212 169.502 400.994C169.502 405.777 195.461 409.653 227.483 409.653Z" fill="#E9378D"/>
<path opacity="0.1" d="M309.667 396.641C317.49 396.641 323.832 395.769 323.832 394.693C323.832 393.617 317.49 392.745 309.667 392.745C301.843 392.745 295.501 393.617 295.501 394.693C295.501 395.769 301.843 396.641 309.667 396.641Z" fill="#FF94C8"/>
<path opacity="0.1" d="M363.922 402.159C371.745 402.159 378.087 401.287 378.087 400.211C378.087 399.135 371.745 398.263 363.922 398.263C356.099 398.263 349.757 399.135 349.757 400.211C349.757 401.287 356.099 402.159 363.922 402.159Z" fill="#FF94C8"/>
<path opacity="0.1" d="M342.208 417.307C347.771 417.307 352.281 416.686 352.281 415.92C352.281 415.154 347.771 414.534 342.208 414.534C336.646 414.534 332.136 415.154 332.136 415.92C332.136 416.686 336.646 417.307 342.208 417.307Z" fill="#FF94C8"/>
<path opacity="0.1" d="M398.523 415.92C404.086 415.92 408.596 415.299 408.596 414.534C408.596 413.768 404.086 413.147 398.523 413.147C392.96 413.147 388.451 413.768 388.451 414.534C388.451 415.299 392.96 415.92 398.523 415.92Z" fill="#FF94C8"/>
<path d="M364.225 399.774C364.225 399.774 344.364 334.47 367.336 308.307C384.523 288.744 404.032 291.087 412.77 293.506C415.029 294.108 417.13 295.194 418.929 296.691C420.728 298.187 422.181 300.057 423.188 302.172C426.244 308.785 425.691 319.503 404.128 332.03C368.028 352.987 365.781 381.743 365.781 381.743L364.225 399.774Z" fill="#FF94C8"/>
<path d="M409.688 302.768C409.688 302.768 351.126 321.125 364.254 399.774" stroke="#4F4F4E" stroke-miterlimit="10"/>
<path d="M375.46 309.347C375.46 309.347 383.52 314.796 380.99 322.99" stroke="#4F4F4E" stroke-miterlimit="10"/>
<path d="M403.783 314.2C403.783 314.2 398.854 309.174 392.86 311.947" stroke="#4F4F4E" stroke-miterlimit="10"/>
<path d="M380.652 339.489C380.652 339.489 371.996 335.087 369.756 340.605" stroke="#4F4F4E" stroke-miterlimit="10"/>
<path d="M359.221 348.668C359.221 348.668 365.719 348.155 365.837 351.268" stroke="#4F4F4E" stroke-miterlimit="10"/>
<path d="M363.424 400.294C363.424 400.294 386.694 352.828 393.082 353.847C396.117 354.339 397.52 357.313 398.149 360.342C398.933 364.233 398.491 368.271 396.884 371.899C393.58 379.511 384.717 393.937 363.424 400.294Z" fill="#FF94C8"/>
<path d="M392.909 362.873C392.909 362.873 368.491 398.388 363.77 399.948" stroke="#4F4F4E" stroke-miterlimit="10"/>
<path d="M395.156 368.419H389.453" stroke="#4F4F4E" stroke-miterlimit="10"/>
<path d="M388.326 381.41L379.394 381.791" stroke="#4F4F4E" stroke-miterlimit="10"/>
<path d="M382.891 371.018L383.859 375.684" stroke="#4F4F4E" stroke-miterlimit="10"/>
<path d="M373.393 385.223L373.559 389.466" stroke="#4F4F4E" stroke-miterlimit="10"/>
<path d="M364.116 400.294C364.116 400.294 340.853 352.828 334.458 353.847C331.423 354.339 330.027 357.313 329.391 360.342C328.607 364.233 329.049 368.271 330.656 371.899C333.96 379.511 342.83 393.937 364.116 400.294Z" fill="#FF94C8"/>
<path d="M334.631 362.873C334.631 362.873 359.055 398.388 363.77 399.948" stroke="#4F4F4E" stroke-miterlimit="10"/>
<path d="M332.384 368.419H338.087" stroke="#4F4F4E" stroke-miterlimit="10"/>
<path d="M339.215 381.41L348.147 381.791" stroke="#4F4F4E" stroke-miterlimit="10"/>
<path d="M344.648 371.018L343.68 375.684" stroke="#4F4F4E" stroke-miterlimit="10"/>
<path d="M354.154 385.223L353.981 389.466" stroke="#4F4F4E" stroke-miterlimit="10"/>
<path d="M404.068 411.379C404.701 410.862 405.161 410.163 405.388 409.376C405.49 408.981 405.455 408.563 405.288 408.191C405.12 407.819 404.831 407.515 404.468 407.331C403.618 407.005 402.706 407.594 402.021 408.19C401.337 408.787 400.542 409.473 399.643 409.341C400.107 408.92 400.454 408.386 400.65 407.791C400.846 407.196 400.885 406.559 400.763 405.944C400.724 405.688 400.614 405.448 400.445 405.251C399.975 404.745 399.125 404.96 398.558 405.355C396.76 406.624 396.256 409.071 396.249 411.275C396.162 410.464 396.162 409.646 396.249 408.835C396.284 408.428 396.219 408.019 396.06 407.643C395.901 407.267 395.652 406.936 395.336 406.679C394.911 406.453 394.435 406.341 393.953 406.353C393.553 406.295 393.144 406.322 392.754 406.433C392.365 406.545 392.003 406.737 391.693 406.998C391.001 407.733 391.188 408.967 391.783 409.771C392.448 410.528 393.238 411.163 394.119 411.65C394.79 412.048 395.361 412.593 395.792 413.244C395.841 413.336 395.882 413.431 395.917 413.528H400.977C402.098 412.953 403.137 412.23 404.068 411.379Z" fill="#FF94C8"/>
<path d="M315.412 392.294C316.045 391.776 316.505 391.077 316.733 390.291C316.835 389.896 316.799 389.478 316.631 389.107C316.462 388.735 316.171 388.434 315.806 388.253C314.956 387.927 314.05 388.516 313.359 389.112C312.668 389.708 311.886 390.388 310.981 390.263C311.445 389.843 311.792 389.309 311.989 388.713C312.185 388.118 312.224 387.481 312.101 386.866C312.064 386.61 311.956 386.37 311.79 386.173C311.32 385.667 310.462 385.889 309.902 386.284C308.105 387.552 307.6 390 307.593 392.197C307.495 391.39 307.484 390.574 307.559 389.764C307.594 389.357 307.529 388.948 307.37 388.572C307.21 388.196 306.962 387.865 306.646 387.608C306.223 387.376 305.745 387.264 305.264 387.282C304.863 387.223 304.455 387.249 304.065 387.359C303.676 387.469 303.314 387.66 303.003 387.92C302.71 388.327 302.559 388.82 302.575 389.322C302.592 389.824 302.774 390.306 303.093 390.693C303.758 391.447 304.549 392.081 305.429 392.565C306.098 392.968 306.67 393.515 307.102 394.166C307.151 394.256 307.191 394.352 307.22 394.45H312.287C313.422 393.877 314.473 393.152 315.412 392.294Z" fill="#FF94C8"/>
<path d="M344.959 411.379C345.59 410.86 346.051 410.162 346.28 409.376C346.383 408.98 346.347 408.561 346.178 408.188C346.01 407.816 345.718 407.513 345.353 407.331C344.503 407.005 343.597 407.594 342.906 408.19C342.215 408.787 341.434 409.473 340.528 409.341C340.993 408.921 341.34 408.387 341.537 407.792C341.733 407.196 341.772 406.559 341.648 405.944C341.615 405.687 341.507 405.446 341.337 405.251C340.867 404.745 340.01 404.96 339.45 405.355C337.652 406.624 337.147 409.071 337.14 411.275C337.054 410.464 337.054 409.646 337.14 408.835C337.174 408.428 337.109 408.02 336.95 407.644C336.791 407.269 336.543 406.937 336.228 406.679C335.802 406.454 335.326 406.342 334.845 406.353C334.444 406.295 334.036 406.322 333.646 406.433C333.257 406.545 332.895 406.737 332.585 406.998C331.893 407.733 332.08 408.967 332.674 409.771C333.339 410.528 334.13 411.163 335.011 411.65C335.681 412.048 336.253 412.593 336.684 413.244C336.733 413.334 336.767 413.431 336.809 413.528H341.869C342.99 412.953 344.029 412.23 344.959 411.379Z" fill="#FF94C8"/>
<path d="M292.508 43.0354C292.508 43.0354 273.497 27.2224 308.173 1.79407C308.173 1.79407 325.387 34.8066 302.325 45.9818C302.325 45.9818 302.76 29.6835 300.624 29.7112C298.488 29.7389 292.508 43.0354 292.508 43.0354Z" fill="#FF94C8"/>
<path d="M263.417 59.1119C263.417 59.1119 229.853 62.2246 238.889 4.13724C238.889 4.13724 287.281 19.3887 275.729 52.4706C275.729 52.4706 260.479 36.3109 258.446 38.4045C256.414 40.4982 263.417 59.1119 263.417 59.1119Z" fill="#FF94C8"/>
<path d="M103.978 133.4C103.978 133.4 70.7803 139.258 75.0872 80.6095C75.0872 80.6095 124.538 91.854 115.73 125.775C115.73 125.775 99.2213 110.918 97.3616 113.171C95.502 115.424 103.978 133.4 103.978 133.4Z" fill="#FF94C8"/>
<path d="M353.158 56.7618C353.158 56.7618 385.09 67.5764 389.694 8.96919C389.694 8.96919 339.124 12.581 342.684 47.4445C342.684 47.4445 361.246 35.2641 362.733 37.7737C364.219 40.2832 353.158 56.7618 353.158 56.7618Z" fill="#FF94C8"/>
<path d="M184.696 73.9196C184.696 73.9196 152.847 62.8693 184.972 13.6971C184.972 13.6971 222.767 47.5901 198.647 72.963C198.647 72.963 191.409 51.9367 188.692 53.0043C185.975 54.0719 184.696 73.9196 184.696 73.9196Z" fill="#FF94C8"/>
<path d="M300.251 56.7618C300.251 56.7618 298.371 38.7858 329.404 43.2504C329.404 43.2504 321.592 69.2819 303.88 63.3199C303.88 63.3199 312.391 55.0356 311.264 53.9611C310.137 52.8865 300.251 56.7618 300.251 56.7618Z" fill="#FF94C8"/>
<path d="M268.81 94.0239C268.81 94.0239 266.923 76.0479 297.956 80.5125C297.956 80.5125 290.151 106.544 272.433 100.617C272.433 100.617 280.943 92.2977 279.816 91.2578C278.689 90.2179 268.81 94.0239 268.81 94.0239Z" fill="#FF94C8"/>
<path d="M334.569 101.934C334.569 101.934 320.957 90.0932 346.66 72.1242C346.66 72.1242 358.682 96.4918 341.682 104.263C341.682 104.263 342.263 92.3878 340.701 92.3739C339.138 92.3601 334.569 101.934 334.569 101.934Z" fill="#FF94C8"/>
<path d="M279.67 203.731C279.67 203.731 296.511 197.29 300.182 228.507C300.182 228.507 273.089 227.627 274.278 208.93C274.278 208.93 284.447 215.051 285.201 213.679C285.954 212.306 279.67 203.731 279.67 203.731Z" fill="#FF94C8"/>
<path d="M280.997 172.111C280.997 172.111 267.385 160.271 293.096 142.302C293.096 142.302 305.118 166.669 288.111 174.448C288.111 174.448 288.692 162.565 287.136 162.552C285.581 162.538 280.997 172.111 280.997 172.111Z" fill="#FF94C8"/>
<path d="M176.276 138.482C176.276 138.482 159.94 146.108 154.071 115.223C154.071 115.223 181.164 114.177 181.288 132.915C181.288 132.915 170.711 127.529 170.061 128.95C169.412 130.371 176.276 138.482 176.276 138.482Z" fill="#FF94C8"/>
<path d="M136.767 101.823C136.767 101.823 120.424 109.449 114.562 78.5644C114.562 78.5644 141.655 77.5176 141.779 96.2631C141.779 96.2631 131.202 90.8765 130.552 92.2977C129.902 93.7189 136.767 101.823 136.767 101.823Z" fill="#FF94C8"/>
<path d="M191.755 186.912C191.755 186.912 173.78 187.606 180.3 156.832C180.3 156.832 205.664 166.42 198.53 183.737C198.53 183.737 190.87 174.656 189.716 175.709C188.561 176.763 191.755 186.912 191.755 186.912Z" fill="#FF94C8"/>
<path d="M188.568 208.736C188.568 208.736 191.769 226.518 160.493 224.368C160.493 224.368 166.362 197.824 184.468 202.462C184.468 202.462 176.587 211.349 177.797 212.341C179.007 213.332 188.568 208.736 188.568 208.736Z" fill="#FF94C8"/>
<path d="M146.618 194.968C146.618 194.968 139.795 211.696 114.562 193.034C114.562 193.034 133.732 173.81 146.522 187.488C146.522 187.488 135.115 190.739 135.599 192.223C136.083 193.706 146.618 194.968 146.618 194.968Z" fill="#FF94C8"/>
<path d="M288.567 129.414C288.567 129.414 269.556 113.608 304.233 88.1729C304.233 88.1729 321.447 121.192 298.384 132.367C298.384 132.367 298.82 116.069 296.684 116.097C294.547 116.125 288.567 129.414 288.567 129.414Z" fill="#FF94C8"/>
<path d="M367.087 96.7969C367.087 96.7969 353.192 76.3183 393.544 61.5313C393.544 61.5313 400.948 98.0447 375.701 102.364C375.701 102.364 380.623 86.828 378.563 86.2595C376.503 85.691 367.087 96.7969 367.087 96.7969Z" fill="#FF94C8"/>
<path d="M364.917 161.207C364.917 161.207 345.906 145.401 380.582 119.965C380.582 119.965 397.796 152.978 374.734 164.153C374.734 164.153 375.169 147.862 373.033 147.889C370.897 147.917 364.917 161.207 364.917 161.207Z" fill="#FF94C8"/>
<path d="M330.967 192.008C330.967 192.008 338.516 168.437 374.963 191.231C374.963 191.231 350.815 219.544 331.893 202.24C331.893 202.24 347.102 196.576 346.314 194.614C345.526 192.652 330.967 192.008 330.967 192.008Z" fill="#FF94C8"/>
<path d="M379.67 174.871C379.67 174.871 387.219 151.3 423.665 174.094C423.665 174.094 399.517 202.406 380.589 185.103C380.589 185.103 395.798 179.439 395.017 177.477C394.236 175.515 379.67 174.871 379.67 174.871Z" fill="#FF94C8"/>
<path d="M223.473 85.601C223.473 85.601 199.16 81.2404 216.83 41.9748C216.83 41.9748 248.036 62.1969 233.463 83.3132C233.463 83.3132 225.858 68.9214 223.985 70.0029C222.111 71.0843 223.473 85.601 223.473 85.601Z" fill="#FF94C8"/>
<path d="M165.651 94.731C165.651 94.731 141.205 98.3567 145.533 55.4792C145.533 55.4792 181.53 64.7203 174.396 89.3861C174.396 89.3861 162.602 78.1693 161.192 79.7776C159.781 81.386 165.651 94.731 165.651 94.731Z" fill="#FF94C8"/>
<path d="M150.49 158.281C150.49 158.281 126.052 161.886 130.38 119.022C130.38 119.022 166.377 128.263 159.242 152.929C159.242 152.929 147.448 141.712 146.038 143.321C144.628 144.929 150.49 158.281 150.49 158.281Z" fill="#FF94C8"/>
<path d="M124.62 177.581C124.62 177.581 103.542 190.483 90.8076 149.338C90.8076 149.338 127.538 143.723 130.593 169.228C130.593 169.228 115.384 163.529 114.693 165.56C114.001 167.591 124.62 177.581 124.62 177.581Z" fill="#FF94C8"/>
<path d="M322.65 157.837C322.65 157.837 303.631 142.024 338.308 116.596C338.308 116.596 355.522 149.609 332.466 160.784C332.466 160.784 332.895 144.485 330.759 144.513C328.623 144.541 322.65 157.837 322.65 157.837Z" fill="#FF94C8"/>
<path d="M187.774 392.641C187.774 392.641 233.056 390.728 237.826 301.825C242.596 212.923 195.399 197.838 195.399 197.838C195.399 197.838 180.446 189.463 173.816 189.117C167.186 188.77 145.029 190.864 145.029 190.864L169.461 186.143C169.461 186.143 135.088 173.02 124.794 171.966L161.953 179.841C161.953 179.841 162.478 159.196 153.581 152.375C153.581 152.375 161.186 151.806 165.209 166.676C166.353 170.966 168.483 174.928 171.43 178.244C174.376 181.559 178.056 184.136 182.174 185.768C195.959 191.162 215.012 199.668 219.354 206.961C219.354 206.961 227.38 215.356 226.163 193.491C224.946 171.626 219.181 152.895 217.086 152.368C217.086 152.368 200.688 134.877 177.681 133.83C177.681 133.83 191.113 128.402 213.795 145.373C213.795 145.373 215.71 136.804 207.165 126.655C198.621 116.506 185.354 95.1608 170.871 92.887C170.871 92.887 191.113 91.6599 207.165 117.906C207.165 117.906 213.097 121.754 213.622 111.958C214.148 102.163 217.632 89.9129 217.632 89.9129C217.632 89.9129 222.52 112.485 212.226 122.627C212.226 122.627 231.936 148.347 231.065 177.221C231.065 177.221 237.176 190.337 239.443 174.94C239.443 174.94 240.757 153.74 243.377 135.751C244.439 128.503 243.998 121.114 242.081 114.045C240.165 106.976 236.815 100.38 232.24 94.6686C227.878 89.2266 224.843 83.9371 226.529 81.1641L249.385 108.457C249.385 108.457 268.576 63.8468 282.568 54.2245C296.56 44.6022 298.275 42.5016 298.275 42.5016L275.765 68.9214L304.034 58.9455L275.682 72.0826C275.682 72.0826 262.596 82.7517 255.095 111.972C247.594 141.193 246.896 159.363 246.896 159.363C246.896 159.363 287.2 127.348 294.874 128.395L268.79 148.201C261.697 153.582 255.839 160.426 251.61 168.271C247.38 176.117 244.88 184.781 244.276 193.678C244.276 193.678 294.701 180.729 306.916 178.281L329.944 154.662L312.495 177.054L348.444 176.534L369.032 161.838C369.032 161.838 352.806 175.481 354.376 176.354C355.945 177.228 379.678 178.281 379.678 178.281C379.678 178.281 319.305 177.928 312.675 182.302C306.045 186.677 291.244 188.25 291.244 188.25L333.989 194.725L283.045 191.051C283.045 191.051 244.462 198.053 242.388 210.122C242.388 210.122 250.242 230.67 255.475 238.816C259.817 245.589 268.555 267.509 270.304 286.754C272.053 305.999 274.452 335.566 267.857 353.59C261.262 371.615 258.787 381.93 262.105 387.358C265.423 392.786 268.555 399.781 257.743 401.175C246.93 402.568 199.464 400.482 199.464 400.482C199.464 400.482 184.953 403.345 187.774 392.641Z" fill="#6B3752"/>
<path opacity="0.1" d="M213.11 383.095C217.857 380.687 223.292 380.017 228.479 381.202C237.369 383.129 250.974 382.103 252.219 381.895" fill="black"/>
<path opacity="0.1" d="M241.53 278.324C241.53 278.324 243.694 312.522 239.85 319.267L241.53 278.324Z" fill="black"/>
<path opacity="0.1" d="M249.508 319.267C249.508 319.267 246.743 351.302 244.821 357.562C242.899 363.822 249.508 319.267 249.508 319.267Z" fill="black"/>
<path opacity="0.1" d="M252.219 240.514C254.175 241.208 262.588 258.338 260.902 263.391C259.215 268.445 252.219 240.514 252.219 240.514Z" fill="black"/>
<path opacity="0.1" d="M230.898 222.76C231.81 223.176 235.737 233.027 234.942 235.932C234.147 238.837 230.898 222.76 230.898 222.76Z" fill="black"/>
<path opacity="0.1" d="M267.275 280.196C266.308 290.123 265.782 296.626 266.397 304.577C266.919 310.753 266.831 316.964 266.135 323.122" fill="black"/>
<path opacity="0.1" d="M162.043 164.555C163.144 165.997 163.721 167.772 163.682 169.588C163.737 171.39 163.509 173.193 163.626 174.988C163.744 176.784 164.642 179.099 166.516 179.356" fill="black"/>
<path opacity="0.1" d="M194.257 105.345C196.644 107.725 198.763 110.361 200.576 113.206C201.101 114.107 201.7 114.963 202.366 115.764C203.445 116.799 204.6 117.749 205.823 118.606C208.55 120.827 210.49 123.871 211.354 127.286" fill="black"/>
<path opacity="0.1" d="M285.464 54.2245C284.889 55.3427 284.132 56.3572 283.224 57.2262C282.436 57.9819 281.53 58.6127 280.818 59.4446C280.246 60.1648 279.728 60.9273 279.27 61.7254C277.349 64.639 275.187 67.3848 272.806 69.9335" fill="black"/>
<path opacity="0.1" d="M243.224 104.839C244.731 105.781 245.125 107.799 245.09 109.573C245.056 111.348 244.752 113.199 245.415 114.849C245.713 115.605 246.197 116.236 246.515 117.012C246.969 118.332 247.143 119.732 247.026 121.123C247.026 122.731 246.98 124.349 246.888 125.976C246.805 127.91 246.618 130.017 245.305 131.439" fill="black"/>
<path opacity="0.1" d="M244.461 200.715C245.452 199.898 246.506 199.16 247.613 198.51C248.628 197.891 249.721 197.411 250.863 197.082C252.598 196.618 254.43 196.687 256.22 196.5C258.011 196.313 259.884 195.807 261.108 194.49" fill="black"/>
<path opacity="0.1" d="M315.412 178.607C313.29 178.67 311.084 178.746 309.19 179.716C308.229 180.216 307.393 180.93 306.425 181.456C305.199 182.136 303.823 182.496 302.422 182.503" fill="black"/>
<path opacity="0.1" d="M285.983 187.391C286.236 187.255 286.531 187.217 286.811 187.283C287.091 187.349 287.337 187.516 287.503 187.751C287.884 188.181 288.091 188.749 288.485 189.172C289.259 190.018 290.559 190.108 291.665 190.15" fill="black"/>
<path opacity="0.1" d="M273.842 142.177L271.768 143.245C269.649 144.272 267.634 145.505 265.754 146.926" fill="black"/>
<path opacity="0.1" d="M250.531 162.177C249.19 161.858 248.035 163.293 247.766 164.652C247.496 166.011 247.807 167.425 247.42 168.777C247.002 169.932 246.312 170.969 245.408 171.799" fill="black"/>
<path opacity="0.1" d="M227.869 164.673C226.645 168.326 229.252 172.299 228.477 176.091C228.249 177.241 227.717 178.316 227.447 179.453C226.756 182.462 227.952 185.658 229.915 188.042" fill="black"/>
</svg>
